<svg width="220" height="64" viewBox="0 0 220 64" fill="none" xmlns="http://www.w3.org/2000/svg">
<g clip-path="url(#clip0_221_722)">
<path d="M35.0567 11.6331C35.0567 15.0998 32.2849 17.8553 28.7979 17.8553C25.3108 17.8553 22.5391 15.0998 22.5391 11.6331C22.5391 8.16644 25.3108 5.41089 28.7979 5.41089C32.2849 5.41089 35.0567 8.16644 35.0567 11.6331Z" fill="#EF7C26"/>
<path d="M9.39685 34.3C12.4369 32.6111 16.1921 33.5889 17.9804 36.6111C19.6792 39.5444 18.6957 43.3666 15.6557 45.1444C12.6157 46.8333 8.86038 45.8555 7.07215 42.8333C5.37332 39.8111 6.35685 35.9889 9.39685 34.3Z" fill="#087EC4"/>
<path d="M41.4044 23.0999L50.2562 14.2999C51.6868 12.8777 51.6868 10.4777 50.2562 8.96657C48.8256 7.54435 46.4115 7.54435 44.8915 8.96657L28.7974 25.0555L12.7033 8.96657C11.2727 7.54435 8.85857 7.54435 7.33857 8.96657C5.90798 10.3888 5.90798 12.7888 7.33857 14.2999L16.1903 23.0999L28.7974 26.4777L41.4044 23.0999Z" fill="#EF7C26"/>
<path d="M16.1898 23.0999L4.02983 19.8999C2.06277 19.3666 -0.0831106 20.5221 -0.619581 22.5666C-1.15605 24.5221 0.00630111 26.6555 2.06277 27.1888L24.1475 33.0555L18.2463 55.011C17.7098 56.9666 18.8722 59.0999 20.9287 59.6333C21.2863 59.7221 21.5545 59.7221 21.9122 59.7221C23.611 59.7221 25.131 58.6555 25.5781 56.9666L28.7969 44.8777L25.3992 32.3444L16.1898 23.0999Z" fill="#087EC4"/>
<path d="M25.2224 31.3665C24.9542 30.3887 25.133 29.411 25.5801 28.5221C26.1165 27.6332 26.9213 27.011 27.9048 26.7443L28.8883 26.4776L16.2812 23.0999L25.4907 32.2554L25.2224 31.3665Z" fill="#39B54A"/>
<path d="M58.1259 22.5667C57.5894 20.6111 55.5329 19.3667 53.4765 19.9L41.3165 23.1L32.1965 32.2555L28.7988 44.7889L32.0177 56.8778C32.4647 58.5667 33.9847 59.6333 35.6835 59.6333C36.0412 59.6333 36.3094 59.5444 36.6671 59.5444C38.6341 59.0111 39.8859 56.9667 39.3494 54.9222L33.4482 32.9667L55.5329 27.1C57.5 26.5667 58.6624 24.5222 58.1259 22.5667Z" fill="#39B54A"/>
<path d="M29.7824 26.7445C31.7494 27.2779 33.0012 29.3223 32.4647 31.3667L32.1965 32.3445L41.4059 23.189L28.7988 26.5667L29.7824 26.7445Z" fill="#8CC63F"/>
<path d="M31.4804 32.9665C30.7651 33.6776 29.7816 34.0331 28.798 34.0331C27.8145 34.0331 26.831 33.6776 26.1157 32.9665L25.4004 32.2554L28.798 44.7887L32.1957 32.2554L31.4804 32.9665Z" fill="#006837"/>
<path d="M41.9418 45.1444C38.9018 43.4555 37.9182 39.6333 39.6171 36.6111C41.3159 33.5889 45.1606 32.6111 48.2006 34.3C51.2406 35.9889 52.2241 39.8111 50.5253 42.8333C48.8265 45.7666 44.9818 46.8333 41.9418 45.1444Z" fill="#39B54A"/>
<path d="M65.9045 9.23309C65.7257 8.78865 65.4575 8.69976 65.0998 8.69976H64.7422V6.47754H66.1728C67.4245 6.47754 67.8716 6.74421 68.3187 7.98865L72.2528 19.0998C72.6104 20.0775 72.9681 21.5886 72.9681 21.5886H73.0575C73.0575 21.5886 73.4151 20.0775 73.7728 19.0998L77.7069 7.98865C78.154 6.83309 78.5116 6.47754 79.8528 6.47754H81.2834V8.69976H80.8363C80.3892 8.69976 80.121 8.78865 80.0316 9.23309L74.3092 24.4331H71.6269L65.9045 9.23309Z" fill="white"/>
<path d="M87.9897 11.2776C91.8345 11.2776 94.9639 14.122 94.9639 18.0331C94.9639 21.9443 91.8345 24.7887 87.9897 24.7887C84.145 24.7887 81.0156 21.9443 81.0156 18.0331C81.0156 14.122 84.145 11.2776 87.9897 11.2776ZM87.9897 22.6554C90.4039 22.6554 92.4603 20.6998 92.4603 18.0331C92.4603 15.3665 90.4933 13.4109 87.9897 13.4109C85.5756 13.4109 83.5192 15.2776 83.5192 18.0331C83.6086 20.6998 85.5756 22.6554 87.9897 22.6554Z" fill="white"/>
<path d="M97.8262 9.14421C97.8262 8.78865 97.6474 8.61087 97.2897 8.61087H96.2168V6.47754H98.7203C99.8827 6.47754 100.33 6.92198 100.33 8.07754V21.7664C100.33 22.122 100.509 22.2998 100.866 22.2998H101.939V24.4331H99.4356C98.2733 24.4331 97.8262 23.9886 97.8262 22.8331V9.14421Z" fill="white"/>
<path d="M104.711 14.2997C104.711 13.9442 104.532 13.7664 104.175 13.7664H103.102V11.6331H105.516C106.678 11.6331 107.215 12.0775 107.215 13.2331V19.2775C107.215 21.0553 107.572 22.4775 109.629 22.4775C112.311 22.4775 113.831 20.1664 113.831 17.5886V11.5442H116.334V21.7664C116.334 22.122 116.513 22.2997 116.871 22.2997H117.944V24.4331H115.53C114.457 24.4331 113.92 23.8997 113.92 23.0109V22.5664V21.8553C113.384 23.0997 111.685 24.7886 109.182 24.7886C106.231 24.7886 104.8 23.2775 104.8 19.8109V14.2997H104.711Z" fill="white"/>
<path d="M120.625 14.2998C120.625 13.9443 120.446 13.7665 120.089 13.7665H119.016V11.6331H121.43C122.503 11.6331 123.039 12.0776 123.039 13.0554V13.4998C123.039 13.9443 122.95 14.2109 122.95 14.2109H123.039C123.576 13.0554 125.096 11.2776 127.957 11.2776C130.997 11.2776 132.427 12.9665 132.427 16.2554V21.8554C132.427 22.2109 132.606 22.3887 132.964 22.3887H134.037V24.522H131.533C130.371 24.522 129.924 24.0776 129.924 22.922V16.8776C129.924 15.0998 129.566 13.6776 127.51 13.6776C125.543 13.6776 123.933 15.0109 123.397 16.8776C123.218 17.4109 123.129 17.9443 123.129 18.6554V24.6998H120.625V14.2998Z" fill="white"/>
<path d="M136.808 13.5885H135.109V11.6329H136.808V8.07739H139.222V11.6329H142.352V13.5885H139.222V19.5441C139.222 22.1218 141.011 22.4774 141.994 22.4774C142.352 22.4774 142.62 22.3885 142.62 22.3885V24.6107C142.62 24.6107 142.262 24.6996 141.726 24.6996C140.116 24.6996 136.808 24.1663 136.808 19.8996V13.5885Z" fill="white"/>
<path d="M150.756 11.2776C154.421 11.2776 156.389 13.9443 156.389 17.322C156.389 17.6776 156.299 18.2998 156.299 18.2998H146.821C147 21.0554 148.967 22.5665 151.292 22.5665C153.527 22.5665 155.047 21.0554 155.047 21.0554L156.12 22.8331C156.12 22.8331 154.153 24.6998 151.113 24.6998C147 24.6998 144.229 21.7665 144.229 17.9443C144.229 13.9443 147.09 11.2776 150.756 11.2776ZM153.796 16.522C153.706 14.3887 152.365 13.2331 150.756 13.2331C148.878 13.2331 147.358 14.3887 146.911 16.522H153.796Z" fill="white"/>
<path d="M164.883 11.2776C168.548 11.2776 170.515 13.9443 170.515 17.322C170.515 17.6776 170.426 18.2998 170.426 18.2998H160.948C161.127 21.0554 163.094 22.5665 165.419 22.5665C167.654 22.5665 169.174 21.0554 169.174 21.0554L170.247 22.8331C170.247 22.8331 168.37 24.6998 165.24 24.6998C161.127 24.6998 158.355 21.7665 158.355 17.9443C158.355 13.9443 161.217 11.2776 164.883 11.2776ZM167.923 16.522C167.833 14.3887 166.492 13.2331 164.883 13.2331C163.005 13.2331 161.485 14.3887 161.038 16.522H167.923Z" fill="white"/>
<path d="M173.826 14.3C173.826 13.9445 173.647 13.7667 173.29 13.7667H172.217V11.6333H174.542C175.704 11.6333 176.24 12.0778 176.24 13.1445V13.9445C176.24 14.4778 176.151 14.8333 176.151 14.8333H176.24C176.866 12.9667 178.297 11.4556 180.353 11.4556C180.711 11.4556 180.979 11.5445 180.979 11.5445V13.9445C180.979 13.9445 180.622 13.8556 180.264 13.8556C178.654 13.8556 177.224 15.0111 176.598 16.8778C176.33 17.5889 176.33 18.3889 176.33 19.1889V24.4333H173.826V14.3Z" fill="white"/>
<path d="M183.838 14.2998C183.838 13.9442 183.659 13.7664 183.301 13.7664H182.229V11.6331H184.643C185.805 11.6331 186.252 12.0775 186.252 13.2331V21.8553C186.252 22.2109 186.431 22.3887 186.789 22.3887H187.861V24.522H185.447C184.285 24.522 183.838 24.0775 183.838 22.922V14.2998ZM183.927 6.47754H186.163V9.05532H183.927V6.47754Z" fill="white"/>
<path d="M190.813 14.2998C190.813 13.9443 190.634 13.7665 190.276 13.7665H189.203V11.6331H191.617C192.69 11.6331 193.227 12.0776 193.227 13.0554V13.4998C193.227 13.9443 193.137 14.2109 193.137 14.2109H193.227C193.763 13.0554 195.283 11.2776 198.144 11.2776C201.184 11.2776 202.615 12.9665 202.615 16.2554V21.8554C202.615 22.2109 202.794 22.3887 203.151 22.3887H204.224V24.522H201.721C200.558 24.522 200.111 24.0776 200.111 22.922V16.8776C200.111 15.0998 199.754 13.6776 197.697 13.6776C195.73 13.6776 194.121 15.0109 193.584 16.8776C193.405 17.4109 193.316 17.9443 193.316 18.6554V24.6998H190.813V14.2998Z" fill="white"/>
<path d="M211.288 11.2776C214.507 11.2776 215.401 13.322 215.401 13.322H215.49V12.8776C215.49 12.0776 215.937 11.5443 216.921 11.5443H219.335V13.6776H218.352C217.994 13.6776 217.815 13.8554 217.815 14.2109V23.9887C217.815 28.2554 214.596 29.8554 211.288 29.8554C209.679 29.8554 208.159 29.4109 206.817 28.7887L207.622 26.8331C207.622 26.8331 209.232 27.722 211.199 27.722C213.434 27.722 215.312 26.7443 215.312 24.1665V23.2776C215.312 22.8331 215.401 22.4776 215.401 22.4776H215.312C214.507 23.722 213.345 24.4331 211.467 24.4331C207.89 24.4331 205.655 21.5887 205.655 17.8554C205.566 14.0331 207.622 11.2776 211.288 11.2776ZM215.312 17.7665C215.312 14.3887 213.613 13.4109 211.646 13.4109C209.41 13.4109 208.069 15.0109 208.069 17.6776C208.069 20.3443 209.5 22.2109 211.825 22.2109C213.702 22.2109 215.312 21.1443 215.312 17.7665Z" fill="white"/>
<path d="M66.7084 42.2998C66.7084 42.2998 68.586 44.4332 71.2684 44.4332C72.9672 44.4332 74.3978 43.4554 74.3978 41.7665C74.3978 38.0332 65.6354 38.5665 65.6354 32.9665C65.6354 30.2998 68.0495 28.1665 71.4472 28.1665C73.4142 28.1665 76.6331 29.0554 76.6331 31.4554V32.9665H74.3084V32.1665C74.3084 31.1887 72.9672 30.5665 71.5366 30.5665C69.5695 30.5665 68.3178 31.6332 68.3178 32.9665C68.3178 36.611 77.0801 35.8109 77.0801 41.6776C77.0801 44.4332 74.9343 46.8332 71.3578 46.8332C67.5131 46.8332 65.3672 44.1665 65.3672 44.1665L66.7084 42.2998Z" fill="white"/>
<path d="M86.0229 33.2329C89.8677 33.2329 92.9971 36.0774 92.9971 39.9885C92.9971 43.8996 89.8677 46.744 86.0229 46.744C82.1782 46.744 79.0488 43.8996 79.0488 39.9885C79.0488 36.0774 82.1782 33.2329 86.0229 33.2329ZM86.0229 44.6107C88.4371 44.6107 90.4935 42.6551 90.4935 39.9885C90.4935 37.3218 88.5265 35.3662 86.0229 35.3662C83.6088 35.3662 81.5524 37.2329 81.5524 39.9885C81.6418 42.6551 83.6088 44.6107 86.0229 44.6107Z" fill="white"/>
<path d="M95.8575 31.0998C95.8575 30.7442 95.6786 30.5664 95.321 30.5664H94.248V28.4331H96.7516C97.9139 28.4331 98.361 28.8775 98.361 30.0331V43.722C98.361 44.0775 98.5398 44.2553 98.8975 44.2553H99.9704V46.3887H97.4669C96.3045 46.3887 95.8575 45.8553 95.8575 44.7887V31.0998Z" fill="white"/>
<path d="M102.742 36.2553C102.742 35.8997 102.563 35.722 102.206 35.722H101.133V33.5886H103.547C104.709 33.5886 105.246 34.0331 105.246 35.1886V41.322C105.246 43.0997 105.603 44.522 107.66 44.522C110.342 44.522 111.862 42.2108 111.862 39.6331V33.5886H114.366V43.8108C114.366 44.1664 114.545 44.3442 114.902 44.3442H115.975V46.4775H113.561C112.488 46.4775 111.952 45.9442 111.952 45.0553V44.6108V43.8997H111.862C111.326 45.1442 109.627 46.8331 107.123 46.8331C104.173 46.8331 102.742 45.322 102.742 41.8553V36.2553Z" fill="white"/>
<path d="M118.837 35.5443H117.139V33.5888H118.837V30.0332H121.252V33.5888H124.381V35.5443H121.252V41.411C121.252 43.9888 123.04 44.3443 124.023 44.3443C124.381 44.3443 124.649 44.2554 124.649 44.2554V46.4776H123.755C122.146 46.4776 118.837 45.9443 118.837 41.6776V35.5443Z" fill="white"/>
<path d="M127.867 36.2553C127.867 35.8998 127.688 35.722 127.331 35.722H126.258V33.5887H128.672C129.834 33.5887 130.281 34.0331 130.281 35.1887V43.8109C130.281 44.1664 130.46 44.3442 130.818 44.3442H131.891V46.4776H129.477C128.314 46.4776 127.867 45.9442 127.867 44.8776V36.2553ZM127.867 28.4331H130.103V31.0109H127.867V28.4331Z" fill="white"/>
<path d="M140.476 33.2329C144.321 33.2329 147.45 36.0774 147.45 39.9885C147.45 43.8996 144.321 46.744 140.476 46.744C136.631 46.744 133.502 43.8996 133.502 39.9885C133.502 36.0774 136.631 33.2329 140.476 33.2329ZM140.476 44.6107C142.89 44.6107 144.947 42.6551 144.947 39.9885C144.947 37.3218 142.98 35.3662 140.476 35.3662C138.062 35.3662 136.005 37.2329 136.005 39.9885C136.005 42.6551 138.062 44.6107 140.476 44.6107Z" fill="white"/>
<path d="M150.578 36.2554C150.578 35.8998 150.399 35.722 150.042 35.722H148.969V33.5887H151.383C152.456 33.5887 152.992 34.0332 152.992 35.0109V35.4554C152.992 35.8998 152.903 36.1665 152.903 36.1665H152.992C153.529 35.0109 155.049 33.2332 157.821 33.2332C160.861 33.2332 162.291 34.922 162.291 38.2109V43.8109C162.291 44.1665 162.47 44.3443 162.828 44.3443H163.901V46.4776H161.486C160.324 46.4776 159.877 45.9443 159.877 44.8776V38.8332C159.877 37.0554 159.519 35.6332 157.463 35.6332C155.496 35.6332 153.886 36.9665 153.35 38.8332C153.171 39.3665 153.082 39.8998 153.082 40.522V46.5665H150.578V36.2554Z" fill="white"/>
<path d="M166.402 42.8332C166.402 42.8332 167.922 44.6998 170.336 44.6998C171.499 44.6998 172.572 44.1665 172.572 43.011C172.572 40.6998 165.508 40.9665 165.508 36.7887C165.508 34.2998 167.654 33.1443 170.336 33.1443C171.856 33.1443 174.628 33.6776 174.628 35.6332V36.8776H172.393V36.2554C172.393 35.4554 171.23 35.1887 170.426 35.1887C168.995 35.1887 168.012 35.7221 168.012 36.6998C168.012 39.1887 175.075 38.6554 175.075 42.9221C175.075 45.2332 173.019 46.6554 170.336 46.6554C166.849 46.6554 165.15 44.3443 165.15 44.3443L166.402 42.8332Z" fill="white"/>
<path d="M66.7092 58.5667L64.7422 52.4334H65.994L66.7987 55.1889C67.0669 55.9889 67.2457 56.7 67.4245 57.4111C67.6034 56.7 67.7822 55.9 68.0504 55.1889L68.9445 52.3445H70.1069L67.961 58.4778H66.7092V58.5667Z" fill="#E96D1B"/>
<path d="M77.6165 55.4556C77.6165 57.5 76.3647 58.6556 74.6659 58.6556C72.967 58.6556 71.8047 57.3223 71.8047 55.5445C71.8047 53.6778 72.967 52.3445 74.7553 52.3445C76.5435 52.3445 77.6165 53.6778 77.6165 55.4556ZM72.967 55.5445C72.967 56.7889 73.5929 57.7667 74.6659 57.7667C75.7388 57.7667 76.3647 56.7889 76.3647 55.4556C76.3647 54.3 75.8282 53.2334 74.6659 53.2334C73.5929 53.2334 72.967 54.3 72.967 55.5445Z" fill="#E96D1B"/>
<path d="M79.8535 52.4336H81.0159V57.678H83.5194V58.6558H79.8535V52.4336Z" fill="#E96D1B"/>
<path d="M86.5593 52.4334V55.9889C86.5593 57.2334 87.0957 57.7667 87.811 57.7667C88.6157 57.7667 89.1522 57.2334 89.1522 55.9889V52.4334H90.3146V55.9C90.3146 57.7667 89.331 58.6556 87.811 58.6556C86.3805 58.6556 85.4863 57.8556 85.4863 55.9V52.3445H86.5593V52.4334Z" fill="#E96D1B"/>
<path d="M92.9082 58.5669V52.4336H94.16L95.7694 55.1003C96.2164 55.8114 96.5741 56.5225 96.8423 57.1447C96.7529 56.3447 96.7529 55.5447 96.7529 54.5669V52.4336H97.8259V58.5669H96.6635L95.0541 55.9003C94.6964 55.1892 94.2494 54.478 93.9811 53.7669C94.0706 54.5669 94.0706 55.3669 94.0706 56.3447V58.5669H92.9082Z" fill="#E96D1B"/>
<path d="M101.581 53.3223H99.793V52.3445H104.442V53.3223H102.654V58.5667H101.492V53.3223H101.581Z" fill="#E96D1B"/>
<path d="M109.983 55.8111H107.658V57.5889H110.251V58.4778H106.496V52.3445H110.073V53.2334H107.658V54.8334H109.983V55.8111Z" fill="#E96D1B"/>
<path d="M116.063 55.8111H113.739V57.5889H116.331V58.4778H112.576V52.3445H116.153V53.2334H113.649V54.8334H115.974V55.8111H116.063Z" fill="#E96D1B"/>
<path d="M118.658 52.5222C119.105 52.4334 119.731 52.4333 120.357 52.4333C121.251 52.4333 121.877 52.6111 122.235 52.9667C122.592 53.2334 122.771 53.6778 122.771 54.2111C122.771 55.0111 122.235 55.5445 121.698 55.7222C122.145 55.9 122.413 56.3445 122.592 56.8778C122.771 57.6778 122.95 58.3889 123.039 58.5667H121.877C121.788 58.3889 121.609 57.8556 121.43 57.1445C121.251 56.3445 120.983 56.0778 120.357 56.0778H119.821V58.5667H118.658V52.5222ZM119.731 55.1889H120.357C121.162 55.1889 121.609 54.7445 121.609 54.2111C121.609 53.5 121.162 53.2334 120.357 53.2334C119.999 53.2334 119.731 53.2333 119.642 53.3222V55.1889H119.731Z" fill="#E96D1B"/>
<path d="M130.372 55.7222V56.5222H128.047V55.7222H130.372Z" fill="#E96D1B"/>
<path d="M136.987 52.4333V58.5667H135.824V52.4333H136.987Z" fill="#E96D1B"/>
<path d="M139.578 58.5669V52.4336H140.83L142.439 55.1003C142.886 55.8114 143.244 56.5225 143.512 57.1447C143.423 56.3447 143.423 55.5447 143.423 54.5669V52.4336H144.496V58.5669H143.333L141.724 55.9003C141.366 55.1892 140.919 54.478 140.651 53.7669C140.74 54.5669 140.74 55.3669 140.74 56.3447V58.5669H139.578Z" fill="#E96D1B"/>
<path d="M148.341 53.3223H146.553V52.3445H151.202V53.3223H149.414V58.5667H148.252V53.3223H148.341Z" fill="#E96D1B"/>
<path d="M156.747 55.8111H154.422V57.5889H157.015V58.4778H153.26V52.3445H156.836V53.2334H154.333V54.8334H156.657V55.8111H156.747Z" fill="#E96D1B"/>
<path d="M159.341 52.5225C159.788 52.4336 160.414 52.4336 161.04 52.4336C161.934 52.4336 162.56 52.6114 162.918 52.9669C163.275 53.2336 163.454 53.678 163.454 54.2114C163.454 55.0114 162.918 55.5447 162.381 55.7225C162.828 55.9003 163.097 56.3447 163.275 56.878C163.454 57.678 163.633 58.3891 163.723 58.5669H162.56C162.471 58.3891 162.292 57.8558 162.113 57.1447C161.934 56.3447 161.666 56.078 161.04 56.078H160.414V58.5669H159.252V52.5225H159.341ZM160.414 55.1892H161.04C161.845 55.1892 162.292 54.7447 162.292 54.2114C162.292 53.5003 161.845 53.2336 161.04 53.2336C160.683 53.2336 160.414 53.2336 160.325 53.3225V55.1892H160.414Z" fill="#E96D1B"/>
<path d="M165.865 58.5669V52.4336H167.117L168.726 55.1003C169.173 55.8114 169.531 56.5225 169.799 57.1447C169.71 56.3447 169.71 55.5447 169.71 54.5669V52.4336H170.783V58.5669H169.621L168.011 55.9003C167.653 55.1892 167.206 54.478 166.938 53.7669C167.028 54.5669 167.028 55.3669 167.028 56.3447V58.5669H165.865Z" fill="#E96D1B"/>
<path d="M178.563 55.7222V56.5222H176.238V55.7222H178.563Z" fill="#E96D1B"/>
<path d="M184.821 53.3223H183.033V52.3445H187.683V53.3223H185.894V58.5667H184.732V53.3223H184.821Z" fill="#E96D1B"/>
<path d="M189.83 52.5222C190.277 52.4334 190.903 52.4333 191.528 52.4333C192.423 52.4333 193.048 52.6111 193.406 52.9667C193.764 53.2334 193.943 53.6778 193.943 54.2111C193.943 55.0111 193.406 55.5445 192.78 55.7222C193.227 55.9 193.496 56.3445 193.674 56.8778C193.853 57.6778 194.032 58.3889 194.121 58.5667H192.959C192.87 58.3889 192.691 57.8556 192.512 57.1445C192.333 56.3445 192.065 56.0778 191.439 56.0778H190.903V58.5667H189.74V52.5222H189.83ZM190.903 55.1889H191.528C192.333 55.1889 192.78 54.7445 192.78 54.2111C192.78 53.5 192.333 53.2334 191.528 53.2334C191.171 53.2334 190.903 53.2333 190.813 53.3222V55.1889H190.903Z" fill="#E96D1B"/>
<path d="M197.697 56.7889L197.16 58.5667H195.998L197.965 52.4333H199.396L201.363 58.5667H200.111L199.575 56.7889H197.697ZM199.396 55.9889L198.949 54.4778C198.859 54.1222 198.77 53.6778 198.68 53.3222C198.591 53.6778 198.502 54.1222 198.412 54.4778L197.965 55.9889H199.396Z" fill="#E96D1B"/>
<path d="M204.492 58.5667L202.525 52.4334H203.777L204.582 55.1889C204.85 55.9889 205.029 56.7 205.208 57.4111C205.387 56.7 205.565 55.9 205.834 55.1889L206.728 52.3445H207.89L205.744 58.4778H204.492V58.5667Z" fill="#E96D1B"/>
<path d="M213.344 55.8111H211.02V57.5889H213.613V58.4778H209.857V52.3445H213.434V53.2334H210.93V54.8334H213.255V55.8111H213.344Z" fill="#E96D1B"/>
<path d="M215.938 52.4336H217.1V57.678H219.603V58.6558H215.938V52.4336Z" fill="#E96D1B"/>
</g>
<defs>
<clipPath id="clip0_221_722">
<rect width="220" height="64" fill="white"/>
</clipPath>
</defs>
</svg>
