<svg viewBox="0 0 256 207" xmlns="http://www.w3.org/2000/svg">
    <path d="M78.2243 0.815019C76.3613 1.28075 76.2243 1.33554 76.8545 1.58211C77.375 1.80128 77.375 1.82867 76.7997 1.82867C75.8956 1.85607 75.7586 2.37659 76.4709 3.11628C77.1558 3.82858 77.7037 3.96556 77.8955 3.41764C78.0051 3.14368 78.0599 3.14368 78.0599 3.41764C78.0873 3.60941 78.279 3.77379 78.4982 3.77379C78.7174 3.77379 78.9092 3.60941 78.9092 3.41764C78.9092 3.19847 78.9913 3.19847 79.1557 3.47243C79.2927 3.6916 79.5941 3.77379 79.8406 3.6916C80.0872 3.58202 80.8269 3.6916 81.457 3.91077C82.7172 4.32171 86.58 4.86963 88.4156 4.86963C89.6484 4.86963 90.2785 4.3765 89.347 4.12994C89.0183 4.04775 88.7717 3.77379 88.7717 3.49983C88.7717 2.86972 88.1142 2.65055 85.9773 2.51357C83.813 2.37659 83.1829 2.18482 83.5391 1.74648C83.7583 1.49992 83.4021 1.33554 82.1145 1.06158C79.4297 0.513663 79.3749 0.513663 78.2243 0.815019Z" fill=""></path>
    <path d="M96.0043 6.76032C95.2646 7.08907 94.9633 7.82877 95.3742 8.3219C95.6208 8.65065 95.4564 8.70544 94.4428 8.70544C93.7579 8.70544 93.1551 8.81502 93.1003 8.952C93.073 9.08898 92.5524 9.28076 91.9771 9.36294C91.21 9.47253 90.9909 9.44513 91.1278 9.22596C91.4018 8.76023 86.087 9.14378 85.6212 9.6369C85.4295 9.82868 84.4158 10.0752 83.4022 10.1574C82.3885 10.267 81.2653 10.541 80.9091 10.7875C80.4982 11.0341 79.9777 11.1437 79.5667 11.0615C79.1832 10.9519 78.9092 11.0067 78.9092 11.1711C78.9092 11.3081 78.7174 11.445 78.4983 11.445C78.2791 11.445 78.0873 11.6642 78.0599 11.9108C78.0599 12.2121 77.9777 12.2669 77.8956 12.0478C77.7038 11.5546 76.7997 11.6368 76.6079 12.1573C76.4984 12.4039 76.5258 12.7053 76.6079 12.7874C76.7175 12.8696 76.8545 12.7874 76.9093 12.6231C76.9915 12.3765 77.1833 12.3765 77.6764 12.7053C78.0325 12.9244 78.5257 13.0888 78.7996 13.034C79.0462 12.9792 79.3202 13.1162 79.3749 13.2806C79.5393 13.7189 77.375 13.7737 77.1285 13.3628C77.0463 13.1984 76.7449 13.0888 76.4984 13.0888C76.1148 13.0888 76.1148 13.1436 76.4162 13.3354C76.9915 13.6915 76.1422 13.8833 73.4574 13.9655L71.1561 14.0203L71.9506 14.6504C72.389 15.0065 73.0191 15.5544 73.3204 15.8558C73.6766 16.2119 74.4163 16.4859 75.1834 16.5681C75.8683 16.6503 76.4436 16.8147 76.4436 16.9516C76.4436 17.0612 76.6627 17.2256 76.9367 17.2804C77.1833 17.3626 76.9915 17.4174 76.4984 17.4448C75.9778 17.4448 75.2381 17.3078 74.8546 17.0886C74.1971 16.7325 72.4985 16.3489 69.7042 15.9106C69.1562 15.8284 68.7453 15.938 68.5261 16.2119C68.1974 16.5955 68.2522 16.6503 68.8001 16.6777C69.5124 16.7051 69.348 16.7873 68.1152 17.0612C67.3481 17.2256 67.3481 17.253 67.8686 17.6091C68.1426 17.8009 68.8275 18.1023 69.348 18.2666C70.2521 18.568 70.2521 18.568 68.9645 18.4584C67.6221 18.3488 66.8824 17.8009 66.855 16.8968C66.855 16.4037 65.7317 15.2805 65.266 15.2805C65.0742 15.2805 64.6907 15.1161 64.3893 14.9517C64.0058 14.7052 63.7866 14.6778 63.54 14.9243C63.3209 15.1435 63.4853 15.3079 64.1154 15.527C64.6085 15.6914 65.129 15.7462 65.2934 15.6366C65.4304 15.5544 65.4852 15.6092 65.3756 15.7736C65.2934 15.938 65.3208 16.1298 65.4852 16.2393C65.9783 16.5407 65.7591 16.8695 64.9372 17.0612C64.4989 17.1708 64.1154 17.4174 64.1154 17.6091C64.1154 17.8009 63.9784 18.0201 63.7866 18.0749C63.6222 18.1297 64.1702 18.5406 65.0468 18.9789C66.5262 19.7186 66.581 19.8008 66.4166 20.6501C66.2796 21.3624 66.3618 21.609 66.8276 21.9103C67.1563 22.1021 67.4029 22.4308 67.4029 22.65C67.4029 22.9514 67.8138 22.9788 69.4028 22.8692C71.1013 22.7322 71.2383 22.7596 70.3343 23.0062C68.9371 23.3897 68.7727 23.9376 69.7589 24.7321C70.3891 25.2526 70.4986 25.4444 70.2247 25.7184C70.0329 25.9101 69.8685 26.3485 69.8685 26.6772C69.8685 27.143 69.6494 27.3347 69.0466 27.4717C68.5535 27.5813 68.2248 27.8279 68.2248 28.0744C68.2248 28.4032 68.033 28.458 67.3481 28.321C66.855 28.2388 66.3344 28.0196 66.1701 27.8553C65.9783 27.6635 66.0331 27.6361 66.3344 27.7457C66.6358 27.8553 66.9098 27.6087 67.2659 26.7868C67.5399 26.1841 67.8412 25.691 67.9508 25.691C68.0878 25.691 68.1426 25.28 68.1152 24.7869C68.0878 24.0198 67.9234 23.828 66.9372 23.3897C66.2796 23.1157 65.7591 22.7322 65.7591 22.5678C65.7591 22.4034 65.4852 21.8281 65.1564 21.3076C64.8277 20.7871 64.5263 20.1296 64.4715 19.8556C64.3619 19.1707 63.7592 18.6228 62.8825 18.4036C62.362 18.2666 62.2524 18.1297 62.4442 17.9379C62.8551 17.527 62.8004 16.6229 62.362 16.0202C62.0881 15.664 61.4032 15.4449 60.0881 15.3079C58.9649 15.1709 58.6088 15.0613 59.1841 15.0339C60.0881 14.9791 60.1155 14.9791 59.6224 14.5956C58.9375 14.0751 56.8828 14.0203 57.0472 14.5134C57.1294 14.7052 57.0198 15.0339 56.8006 15.2257C56.6089 15.4175 56.4445 16.075 56.4445 16.6503C56.4445 17.5817 56.3349 17.8009 55.6226 18.1571C54.6089 18.6776 54.5542 19.3077 55.4856 19.6638C56.0061 19.8556 56.1705 20.1296 56.1705 20.7323C56.1705 21.609 56.7732 22.2665 57.3485 22.0473C57.5677 21.9651 58.0882 22.1569 58.5266 22.4308C58.9649 22.7322 59.595 23.0883 59.9512 23.2253C60.5539 23.4719 60.7457 23.9102 60.3621 24.1294C60.2251 24.2116 59.2937 23.9102 58.2252 23.4719C55.4582 22.3487 54.9925 22.4034 56.2527 23.7185C56.8006 24.2938 57.2664 24.8691 57.2664 25.0061C57.2116 25.9649 54.2254 28.0744 51.4584 29.1155C50.7461 29.3894 50.0338 29.7456 49.8694 29.9374C49.6777 30.1565 50.0612 31.2798 51.1297 33.6632C52.6912 37.1151 53.4035 40.1835 53.4309 43.2792C53.4309 44.923 53.8145 45.9092 54.8281 46.8407C56.2527 48.1557 55.5952 50.3474 53.7597 50.3474C53.3213 50.3474 52.746 50.5939 52.4721 50.8953C52.0063 51.3884 52.0063 51.4432 52.6364 52.2377C52.9926 52.676 53.5953 53.4979 53.9788 54.0184C54.9103 55.3335 55.8144 55.3335 56.965 54.0458C58.0334 52.813 58.8827 52.7856 59.5676 53.9363C60.006 54.6486 60.006 54.9499 59.732 56.0458C59.458 57.2238 59.458 57.3608 59.9786 57.7443C61.7867 59.0867 61.7867 59.0867 61.4306 59.3333C60.9648 59.662 61.5401 60.1552 62.9373 60.6209C64.7729 61.251 64.3345 62.84 62.3894 62.5934C61.6497 62.4838 61.2936 62.566 61.184 62.84C60.9922 63.3331 60.3347 63.3331 59.8416 62.8126C59.595 62.5934 59.1841 62.4016 58.8827 62.4016C58.6088 62.4016 58.3622 62.2646 58.3622 62.1003C58.3622 61.8811 57.9513 61.8263 57.0472 61.9633C56.0609 62.1003 55.3486 61.9907 54.1158 61.525C52.3351 60.8948 48.9654 60.7305 48.4174 61.2784C48.2531 61.4428 47.486 61.5797 46.7463 61.5797C45.9792 61.5797 44.8834 61.7167 44.308 61.8811C43.2944 62.1551 43.2944 62.1551 43.4588 63.3057C43.6779 64.7577 43.9519 65.2782 45.1299 66.5932C45.8696 67.4151 46.034 67.826 45.9792 68.5931C45.9244 69.3876 46.0614 69.689 46.6641 70.1273C47.075 70.4287 47.4038 70.8396 47.4038 71.0314C47.4038 71.5245 48.3353 71.7985 49.3215 71.5793C49.9516 71.4423 50.1982 71.5245 50.5543 72.0998C50.9927 72.7299 51.3488 75.3599 50.9653 75.1408C50.8831 75.086 50.1708 74.9764 49.4037 74.8942C48.1435 74.7846 47.9791 74.8394 47.7051 75.4695C47.5408 75.8257 47.4586 76.264 47.5408 76.401C47.6504 76.538 47.3216 76.6476 46.8559 76.6476C46.0888 76.6476 46.034 76.7023 46.308 77.1955C46.4723 77.4968 46.7737 77.7434 46.9929 77.7434C47.212 77.7434 47.5956 78.0995 47.8695 78.5653C48.1161 79.0036 48.4448 79.3872 48.5544 79.3872C48.664 79.3872 48.7736 79.6337 48.7736 79.9625C48.7736 80.3186 48.8832 80.4556 49.1023 80.3186C49.2667 80.209 49.5407 80.3186 49.7051 80.5378C49.8968 80.7844 50.3352 81.0309 50.6913 81.0857C51.6228 81.1953 51.7598 81.4693 51.5954 82.7021C51.5132 83.3048 51.5406 83.7705 51.705 83.7705C52.1433 83.7705 52.9378 85.4417 52.7734 86.0444C52.5816 86.8389 53.2117 88.0443 53.7323 87.9347C54.061 87.8799 54.1158 88.0717 54.0336 88.7566C53.924 89.4415 53.9788 89.5785 54.335 89.4415C55.0199 89.1949 55.5404 90.099 55.8418 91.9893C56.0061 92.9756 56.1979 93.9618 56.2801 94.181C56.4171 94.5372 56.0609 94.7015 54.5815 95.0851C52.3351 95.6056 51.294 95.4138 49.7325 94.181C49.1571 93.7153 48.4174 93.3591 48.0887 93.3591C47.2668 93.3591 46.5819 92.5372 46.3901 91.3044C46.2806 90.5921 46.3353 90.2086 46.6093 90.0716C46.8285 89.9072 46.9655 89.3045 46.9929 88.51C46.9929 87.2498 47.0202 87.195 47.7599 87.195C48.1709 87.2224 48.4996 87.0854 48.4996 86.9211C48.4996 86.7293 48.1161 86.6745 47.5956 86.7293C46.2806 86.8663 40.7192 84.0171 38.3631 81.9898L36.5824 80.4282L35.103 80.5926C33.788 80.757 33.4866 80.6748 32.3634 79.9625C31.6785 79.5241 30.6648 79.0858 30.1443 78.9762C29.6238 78.8666 28.7745 78.5653 28.2814 78.2639C27.5965 77.8804 27.2403 77.8256 26.665 78.0448L25.9527 78.3187L26.5828 78.9762C26.9116 79.3324 27.8978 79.9625 28.7471 80.3734C29.9251 80.9487 30.4457 81.3871 30.8018 82.1268C31.7333 84.0445 30.5278 84.8664 26.7198 85.0033C25.2678 85.0581 24.1172 84.9759 24.1172 84.839C24.1172 84.702 23.761 84.5924 23.3227 84.5924C22.857 84.5924 22.4186 84.4554 22.3364 84.3184C22.2269 84.1541 21.9255 84.0993 21.6515 84.1815C21.2954 84.291 21.0488 84.1541 20.8297 83.7705C20.6105 83.3596 20.3639 83.25 19.953 83.387C19.542 83.4966 19.2407 83.387 18.9393 83.0308C18.5284 82.5377 18.3092 82.5103 16.2545 82.6747C14.0628 82.8938 12.4191 83.524 11.6246 84.4828C11.4054 84.7568 10.8575 84.7842 9.35073 84.6198C7.32342 84.428 6.50154 84.6746 7.18644 85.3595C7.84395 86.017 6.8029 86.4005 4.25507 86.4553C2.91266 86.4827 1.76203 86.6197 1.70724 86.7567C1.65245 86.9211 1.43328 86.9485 1.21411 86.8663C0.994943 86.7841 0.830566 86.8663 0.830566 87.0306C0.830566 87.195 1.02234 87.332 1.24151 87.332C1.48807 87.332 1.65245 87.5786 1.65245 88.0169C1.65245 88.647 1.87162 88.8114 2.6661 88.7292C2.83048 88.7018 2.94006 88.8936 2.88527 89.1675C2.85787 89.4415 2.88527 89.7702 2.99485 89.9346C3.07704 90.0716 3.15923 90.4551 3.21402 90.7565C3.24142 91.0579 3.18662 91.14 3.13183 90.9483C2.88527 90.4004 2.28256 90.5921 2.33735 91.2222C2.36474 91.6332 2.6661 91.9345 3.3236 92.1537C3.84413 92.3455 4.09069 92.5098 3.89892 92.5098C3.62496 92.5372 3.62496 92.6468 3.89892 93.14C4.09069 93.4961 4.36465 93.8523 4.50163 93.9344C4.61122 94.044 4.50163 94.2632 4.22767 94.4276C3.67975 94.7289 3.78934 94.7837 5.07695 94.8111C5.51529 94.8111 5.54268 94.8385 5.15914 94.9207C4.88518 95.0029 4.66601 95.1673 4.66601 95.3316C4.66601 95.4686 4.85778 95.5508 5.07695 95.4412C5.29612 95.359 5.48789 95.4138 5.48789 95.5508C5.48789 95.7152 5.67966 95.8248 5.89883 95.8248C6.118 95.8248 6.30977 95.6878 6.30977 95.5234C6.30977 95.0851 7.59738 95.4686 8.22749 96.0987C8.63843 96.5097 9.07677 96.6466 9.87125 96.5919C10.9397 96.5097 11.1041 96.3179 10.9945 95.3316C10.8849 94.5372 13.104 95.2494 14.3642 96.4275C15.1861 97.1672 17.4599 96.8932 18.1722 95.9343C18.7476 95.1947 19.2133 95.1125 20.0078 95.6056C20.4187 95.8796 20.6379 95.8522 21.1036 95.4138C21.7885 94.8111 22.1721 95.0577 21.542 95.7152C21.2132 96.0165 21.1584 96.2631 21.3502 96.4549C21.5146 96.6192 21.5146 96.948 21.3776 97.3315C21.2406 97.6603 21.2406 98.0438 21.3502 98.1808C21.6789 98.537 21.9255 100.373 21.6789 100.646C21.3228 101.057 20.3365 104.071 20.0078 105.715C19.679 107.413 19.0763 108.18 18.0627 108.18C17.7065 108.208 16.9942 108.263 16.5285 108.317C15.734 108.427 15.6244 108.564 15.6244 109.276C15.6244 110.591 16.1723 112.427 16.7477 113.057C17.0216 113.358 17.2682 113.797 17.2682 113.988C17.2682 114.399 19.2407 116.646 19.5968 116.646C19.679 116.646 19.953 116.454 20.1722 116.235C20.4187 116.016 20.8297 115.824 21.131 115.824C21.405 115.824 21.6515 116.016 21.6515 116.235C21.6515 116.454 21.7885 116.646 21.9255 116.646C22.0899 116.646 22.1995 116.783 22.1995 116.92C22.1995 117.084 22.4186 117.44 22.6926 117.742C22.9392 118.016 23.4049 118.728 23.7062 119.303C24.0076 119.878 24.4733 120.591 24.7473 120.892C25.4048 121.604 26.1171 122.947 25.9253 123.139C25.6788 123.385 26.665 124.865 27.0486 124.865C27.2677 124.865 27.4869 125.056 27.5691 125.275C27.6787 125.495 27.8704 125.604 28.0348 125.495C28.1718 125.412 28.2266 125.467 28.1444 125.604C28.0348 125.769 28.1992 126.207 28.5005 126.59C28.8019 126.974 29.0485 127.467 29.0485 127.686C29.0485 127.933 29.1854 128.207 29.3498 128.316C29.5416 128.426 29.5964 128.892 29.4868 129.522C29.3772 130.289 29.432 130.645 29.7608 130.919C29.9799 131.111 30.1169 131.494 30.0621 131.768C29.9525 132.097 30.1443 132.426 30.5552 132.7C30.9388 132.946 31.2949 133.33 31.3771 133.576C31.4319 133.85 31.8703 134.289 32.3086 134.59C32.7469 134.864 33.0757 135.193 33.0209 135.302C32.9387 135.385 33.2127 135.604 33.5688 135.768C34.0893 136.015 34.2537 136.289 34.2537 136.946C34.2537 137.467 34.4455 137.96 34.7468 138.179C34.9934 138.371 35.2126 138.645 35.2126 138.782C35.2126 138.919 35.6783 139.494 36.2536 140.042C36.8015 140.617 37.2673 141.247 37.2673 141.467C37.2673 141.686 37.3769 141.85 37.5138 141.85C37.6508 141.85 37.8974 142.234 38.0618 142.727C38.3631 143.576 38.3631 143.576 37.8152 143.083C37.5138 142.809 37.3495 142.48 37.4316 142.371C37.5138 142.234 37.3769 142.206 37.1303 142.288C36.8563 142.398 36.7193 142.343 36.7741 142.097C36.8289 141.905 36.6372 141.686 36.3906 141.631C36.0344 141.576 35.9523 141.658 36.0618 142.042C36.1988 142.508 36.1988 142.508 35.8153 142.042C35.5961 141.768 35.3222 141.658 35.2674 141.795C35.0756 142.069 36.555 144.371 36.7741 144.151C37.0207 143.932 38.1713 145.165 38.2261 145.658C38.2261 145.905 38.3357 146.233 38.4179 146.37C38.6371 146.754 39.5685 149.85 39.5959 150.343C39.6781 151.658 40.0617 152.206 41.0205 152.398C41.5684 152.48 42.1164 152.452 42.2807 152.288C42.4177 152.151 42.6917 152.096 42.8835 152.151C43.0752 152.233 43.6505 151.904 44.1437 151.466C44.7464 150.891 45.3491 150.617 45.9244 150.617C46.8559 150.617 48.6366 149.959 48.9106 149.521C48.9928 149.384 49.4859 149.247 50.0064 149.247C50.6639 149.247 51.0749 149.055 51.4858 148.535C51.8419 148.069 52.8282 147.548 54.3076 147.028C56.965 146.069 58.2526 145.357 58.143 144.864C57.9787 144.124 58.417 143.549 59.5402 143.083C61.6771 142.206 61.9511 142.124 62.8551 142.124C63.8688 142.124 64.2797 141.768 64.4441 140.754C64.4989 140.234 64.7181 140.042 65.3482 139.987C66.3618 139.85 66.855 139.467 66.855 138.809C66.855 138.206 67.8412 137.467 68.6631 137.467C69.1836 137.467 69.2384 137.33 69.211 135.796C69.1836 134.015 69.485 133.549 70.1973 134.289C70.5534 134.645 70.663 134.618 71.0192 134.207C71.4301 133.713 71.3753 132.974 70.937 133.248C70.4712 133.522 70.6904 132.837 71.3479 132.07C72.1424 131.111 72.8821 129.686 72.8821 129.111C72.8821 128.864 72.6355 128.7 72.3068 128.7C71.978 128.7 71.6767 128.481 71.5945 128.152C71.5123 127.851 71.3479 127.604 71.2109 127.604C71.074 127.604 70.9644 127.467 70.9644 127.303C70.9644 126.727 70.0877 126.152 68.8275 125.933C66.3618 125.467 65.1564 123.933 65.1564 121.276C65.1564 119.577 64.8277 119.248 64.2523 120.399C63.677 121.495 60.4443 124.782 60.0608 124.645C59.869 124.591 59.732 124.645 59.732 124.782C59.732 124.919 59.2937 124.974 58.7731 124.919C58.2526 124.865 57.8143 124.7 57.8143 124.563C57.8143 124.426 57.7047 124.317 57.5403 124.317C57.4033 124.317 57.2664 124.481 57.2664 124.7C57.2664 125.33 56.7184 125.495 56.1979 125.029C55.924 124.782 55.5678 124.591 55.376 124.591C55.1569 124.591 55.1021 124.399 55.2664 123.96C55.5678 123.084 55.376 120.673 54.9925 120.426C54.335 120.015 54.0062 120.235 53.6775 121.303L53.3487 122.399L52.8282 121.659C52.2803 120.783 52.1981 120.481 52.609 120.481C52.7734 120.481 52.883 120.673 52.883 120.92C52.883 121.139 53.02 121.248 53.157 121.166C53.6227 120.865 53.4583 120.152 52.883 120.015C52.5816 119.933 52.3077 119.769 52.3077 119.632C52.2803 119.495 52.2529 119.276 52.2255 119.111C52.2255 118.974 51.9515 118.673 51.6502 118.454C51.3488 118.235 51.1023 117.906 51.1023 117.687C51.0749 117.495 50.9379 117.358 50.7461 117.385C50.5543 117.44 50.4174 117.358 50.4174 117.221C50.4174 117.084 50.1708 116.865 49.8694 116.783C49.5681 116.701 49.3215 116.427 49.3215 116.207C49.3215 115.988 49.2119 115.824 49.1023 115.824C48.7188 115.824 47.6504 113.194 47.8421 112.646C47.9517 112.317 47.9243 112.235 47.7599 112.454C47.5956 112.673 47.3764 112.701 47.1298 112.536C46.7737 112.317 46.7737 112.262 47.1298 112.262C47.3764 112.262 47.7599 112.043 48.0065 111.769C48.9106 110.838 49.2119 110.673 49.7051 110.947C49.9516 111.084 50.3626 111.139 50.6365 111.057C50.9653 110.947 51.294 111.194 51.7324 111.797C52.0611 112.29 52.3351 112.838 52.3351 113.002C52.3351 113.166 52.4447 113.358 52.5816 113.413C52.7186 113.44 53.1844 114.098 53.5953 114.838C54.1706 115.796 54.6637 116.235 55.3486 116.481C55.8692 116.673 56.6636 117.139 57.102 117.55C57.5403 117.961 58.0882 118.289 58.3348 118.289C58.691 118.289 58.691 118.344 58.417 118.536C58.143 118.7 58.3348 118.81 59.0197 118.947C59.5676 119.057 59.9512 119.248 59.869 119.413C59.7594 119.55 59.8416 119.659 59.9786 119.659C60.1429 119.659 60.2799 119.522 60.2799 119.385C60.2799 119.194 60.4717 119.194 60.8278 119.385C61.1292 119.55 61.5127 119.605 61.6771 119.522C61.8141 119.413 62.3894 119.276 62.9373 119.221C64.0332 119.084 64.7455 118.646 64.4989 118.262C64.2797 117.879 65.4304 117.988 65.6769 118.344C65.7865 118.536 66.0331 119.194 66.1701 119.796C66.5262 121.139 67.5673 121.714 70.1151 121.988C72.1698 122.207 73.0191 122.344 73.9779 122.563C75.156 122.865 77.5394 122.919 77.5394 122.673C77.5394 122.563 78.0325 122.508 78.6353 122.591C79.2928 122.7 79.7311 122.645 79.7311 122.454C79.7311 122.289 80.0872 122.262 80.7173 122.399C81.2653 122.536 82.4707 122.508 83.4843 122.344C85.5117 122.043 86.0322 122.152 86.0322 122.947C86.0322 123.303 86.2239 123.495 86.5527 123.495C86.8815 123.495 87.128 123.769 87.265 124.234C87.4842 125.166 88.1691 125.96 88.717 125.96C88.9362 125.96 89.4841 126.317 89.895 126.782C91.0183 127.933 92.1415 128.453 93.2099 128.262C94.0592 128.125 94.0866 128.125 93.5935 128.536C93.0456 128.974 92.6072 129.084 91.7305 129.001C91.4566 128.974 91.2374 129.084 91.2374 129.275C91.2374 129.796 95.0181 133.357 95.5386 133.357C96.9632 133.303 99.0179 131.44 98.3878 130.809C98.1138 130.536 98.3056 129.522 98.6343 129.522C98.7439 129.522 98.7713 129.823 98.6891 130.207C98.6343 130.618 98.6891 130.892 98.8809 130.892C99.0727 130.892 99.1275 131.029 99.0453 131.166C98.9357 131.33 99.0727 131.823 99.2918 132.316C99.5932 132.892 99.6754 133.494 99.5658 134.124C99.4562 134.645 99.511 135.494 99.6754 136.042C100.388 138.535 100.908 140.453 101.237 141.905C101.429 142.754 102.059 144.343 102.607 145.466C103.182 146.562 103.867 147.905 104.114 148.425C104.388 148.946 104.798 150.096 105.018 151C105.264 151.877 105.867 153.219 106.387 154.014C107.401 155.521 108.771 158.753 108.771 159.575C108.771 160.288 110.25 162.561 110.963 162.945C111.757 163.356 112.743 162.726 112.962 161.63C113.154 160.753 114.113 160.315 115.127 160.644C115.538 160.753 115.647 160.699 115.565 160.452C115.483 160.233 115.264 160.068 115.045 160.068C114.606 160.068 114.606 159.849 114.908 158.753C115.072 158.205 115.319 158.014 115.812 158.014C116.414 158.014 116.469 157.932 116.305 157.219C116.031 155.877 116.058 153.685 116.387 153.302C116.825 152.781 116.853 150.535 116.442 148.425C115.921 145.494 116.058 144.699 117.154 144.973C117.675 145.11 117.839 145.028 117.976 144.453C118.058 144.069 118.305 143.768 118.524 143.768C119.455 143.768 120.277 143.11 120.277 142.343C120.277 141.932 120.387 141.576 120.524 141.576C120.962 141.576 123.702 138.809 124.578 137.467C125.044 136.754 125.893 135.96 126.496 135.686C127.071 135.385 127.811 134.864 128.167 134.535C128.797 133.96 128.852 133.631 128.715 132.289C128.66 131.933 128.825 131.549 129.044 131.44C129.263 131.33 129.729 131.111 130.085 130.919C130.578 130.672 130.742 130.672 130.852 131.001C131.016 131.412 132.057 131.357 133.537 130.892C133.975 130.727 134.66 130.618 135.044 130.618C136.003 130.59 137.126 129.714 136.907 129.166C136.824 128.919 136.852 128.645 136.961 128.563C137.098 128.508 137.263 128.7 137.345 129.001C137.427 129.33 137.619 129.494 137.756 129.412C138.057 129.221 138.359 129.851 138.359 130.645C138.359 131.303 138.961 132.316 140.194 133.713C140.687 134.261 141.098 134.864 141.098 135.028C141.098 135.193 141.317 135.275 141.591 135.22C142.139 135.056 142.852 135.686 142.66 136.179C142.605 136.371 142.66 136.727 142.797 136.974C142.961 137.33 142.934 137.467 142.687 137.467C142.441 137.467 142.441 137.549 142.687 137.795C142.961 138.069 143.098 138.069 143.235 137.823C143.564 137.33 144.03 137.768 144.632 139.138C145.098 140.152 145.153 140.727 145.043 142.453L144.879 144.507L145.646 144.727C147.18 145.138 147.673 145.11 148.057 144.535C148.276 144.234 148.879 143.686 149.427 143.329C150.057 142.891 150.413 142.425 150.413 142.042C150.44 141.193 152.248 145.001 152.495 146.37C152.577 146.973 152.851 147.795 153.043 148.206C153.262 148.617 153.426 149.247 153.426 149.658C153.426 150.069 153.591 150.343 153.81 150.343C154.029 150.343 154.33 150.726 154.495 151.192C154.906 152.343 154.878 152.535 154.385 152.37C154.084 152.233 154.029 152.315 154.139 152.644C154.221 152.891 154.413 153.082 154.55 153.082C154.659 153.082 154.632 153.466 154.467 153.932C154.248 154.562 154.111 154.671 153.947 154.397C153.81 154.206 153.7 154.151 153.7 154.315C153.7 154.836 154.139 155.247 154.659 155.192C155.262 155.137 155.563 155.986 155.098 156.452C154.906 156.644 154.687 156.617 154.385 156.37C154.139 156.151 153.974 156.151 153.974 156.315C153.974 156.48 154.193 156.726 154.44 156.89C154.961 157.164 155.098 159.027 154.714 160.616C154.44 161.767 154.796 164.15 155.152 163.794C155.7 163.246 156.44 163.438 156.44 164.096C156.44 164.616 156.495 164.644 156.714 164.315C156.906 163.986 156.988 163.986 156.988 164.287C156.988 164.479 157.371 165.109 157.81 165.685C158.549 166.616 158.604 166.78 158.221 167C157.81 167.219 157.81 167.274 158.193 167.575C158.577 167.876 158.632 167.876 158.632 167.438C158.632 166.972 158.659 166.972 159.043 167.493C159.262 167.821 159.399 168.589 159.371 169.219C159.344 169.849 159.453 170.452 159.618 170.561C159.782 170.671 160.001 171.273 160.111 171.903C160.193 172.561 160.577 173.383 160.96 173.794C161.344 174.205 161.645 174.807 161.645 175.136C161.645 175.575 162.166 176.095 163.645 177.081C165.809 178.533 166.303 178.999 166.193 179.465C166.138 179.657 166.166 179.711 166.22 179.574C166.467 179.163 167.179 179.383 167.015 179.821C166.905 180.15 166.96 180.232 167.261 180.095C167.535 179.985 167.672 180.122 167.672 180.478C167.672 180.78 167.809 181.026 167.974 181.026C168.165 181.026 168.22 180.78 168.138 180.451C168.028 180.013 168.056 179.958 168.357 180.204C168.604 180.424 168.768 180.424 168.905 180.204C169.179 179.766 168.796 179.383 168.001 179.355C167.535 179.328 167.426 179.273 167.754 179.191C168.001 179.136 168.22 178.889 168.22 178.67C168.22 178.451 168.138 178.314 168.028 178.369C167.891 178.451 167.782 178.205 167.782 177.848C167.754 177.492 167.398 176.753 166.987 176.205C166.33 175.355 166.248 174.999 166.248 173.273C166.275 172.177 166.138 170.917 165.946 170.479C165.645 169.684 163.481 167.328 163.07 167.328C162.96 167.328 162.631 166.945 162.357 166.479C162.001 165.904 161.7 165.685 161.371 165.767C160.522 165.986 159.81 165.219 159.426 163.712C159.262 162.918 158.933 162.123 158.769 161.986C158.358 161.657 158.002 159.931 158.33 159.931C158.604 159.931 158.577 159.219 158.275 158.945C158.166 158.836 158.084 159.027 158.084 159.356C158.084 160.068 157.317 160.452 156.96 159.904C156.604 159.384 156.823 157.082 157.371 155.274C157.645 154.452 157.865 153.028 157.892 152.124C157.947 150.535 157.974 150.48 158.714 150.398C159.399 150.315 159.453 150.37 159.453 151.384C159.453 152.398 159.481 152.452 160.412 152.48C161.59 152.535 162.467 152.973 162.467 153.521C162.467 153.767 162.659 153.904 162.96 153.85C163.262 153.795 163.563 154.069 163.892 154.726C164.166 155.247 164.357 155.849 164.385 156.014C164.385 156.452 165.371 157.466 165.782 157.466C165.919 157.466 165.974 157.301 165.864 157.11C165.755 156.918 165.782 156.863 165.919 157C166.166 157.247 166.193 157.356 166.275 158.151C166.33 158.808 166.85 158.644 166.85 157.959C166.85 157.438 166.905 157.411 167.344 157.795C167.59 158.014 168.056 158.288 168.357 158.397C168.741 158.534 168.796 158.644 168.549 158.808C168.056 159.11 168.165 162.123 168.686 162.123C168.878 162.123 169.179 161.877 169.371 161.575C169.563 161.246 170.248 160.699 170.878 160.315C171.946 159.712 172.384 159.027 172.467 157.877C172.494 157.712 172.631 157.63 172.823 157.685C173.288 157.767 174.713 157 175.59 156.206C175.973 155.849 176.439 155.548 176.631 155.548C177.014 155.548 177.316 154.123 177.151 153.028C177.097 152.617 177.179 152.343 177.288 152.425C177.425 152.507 177.535 152.315 177.535 152.014C177.535 151.713 177.425 151.411 177.288 151.329C177.179 151.247 176.987 150.589 176.905 149.877C176.823 149.165 176.549 148.179 176.329 147.74C176.083 147.274 175.891 146.727 175.891 146.48C175.891 146.261 175.535 145.713 175.069 145.275C174.631 144.836 174.247 144.343 174.247 144.151C174.247 143.96 174.028 143.74 173.727 143.631C173.097 143.439 169.864 140.343 169.864 139.96C169.864 139.795 169.453 139.247 168.933 138.7C168.138 137.905 168.001 137.549 168.001 136.48C168.001 135.686 168.138 135.193 168.357 135.111C168.549 135.028 168.933 134.535 169.179 134.015C169.426 133.494 169.727 133.138 169.864 133.22C169.974 133.303 170.165 133.166 170.248 132.946C170.33 132.727 170.549 132.563 170.741 132.59C170.932 132.645 171.069 132.481 171.069 132.234C171.015 131.659 172.878 131.001 173.617 131.303C173.891 131.412 174.412 131.494 174.768 131.467C175.288 131.412 175.371 131.494 175.234 131.851C174.987 132.535 175.919 134.426 176.521 134.453C177.151 134.453 177.37 133.823 176.987 133.083C176.768 132.672 176.768 132.535 176.96 132.645C177.151 132.755 177.261 132.618 177.261 132.289C177.261 131.96 177.425 131.686 177.617 131.686C177.781 131.659 178.083 131.631 178.22 131.577C178.384 131.549 178.658 131.494 178.85 131.494C179.042 131.467 179.124 131.303 179.014 131.111C178.905 130.946 178.932 130.892 179.124 131.001C179.288 131.083 179.48 131.056 179.59 130.919C179.699 130.727 180.001 130.727 180.439 130.892C181.425 131.275 181.726 131.22 181.535 130.727C181.452 130.508 181.48 130.399 181.644 130.481C181.809 130.563 181.918 130.508 181.918 130.344C181.918 130.179 182.055 130.125 182.22 130.234C182.658 130.481 183.014 129.796 182.877 128.974C182.768 128.316 182.768 128.316 183.069 129.029C183.37 129.741 184.384 130.125 184.384 129.549C184.384 129.412 184.877 129.029 185.507 128.727C186.11 128.399 186.548 128.262 186.439 128.426C186.356 128.563 186.411 128.7 186.548 128.7C186.713 128.7 186.85 128.563 186.85 128.426C186.85 128.262 186.932 128.179 187.069 128.179C188.028 128.344 188.575 128.07 188.849 127.358C189.014 126.892 189.397 126.481 189.699 126.399C190.027 126.317 190.521 125.878 190.822 125.412C191.123 124.974 191.507 124.591 191.699 124.591C192.137 124.591 192.685 123.577 192.438 123.166C192.329 123.002 192.356 122.919 192.493 123.002C192.794 123.193 193.452 122.536 193.233 122.289C193.123 122.207 193.315 122.125 193.644 122.125C194 122.125 194.246 121.961 194.246 121.687C194.246 121.467 194.137 121.33 194 121.413C193.644 121.632 193.397 120.426 193.699 120.07C193.863 119.878 193.89 119.659 193.781 119.577C193.699 119.468 193.753 119.385 193.918 119.385C194.109 119.385 194.246 119.139 194.246 118.865C194.246 118.563 194.383 118.235 194.52 118.153C194.685 118.07 194.794 117.687 194.794 117.331C194.794 116.399 195.068 115.824 195.507 115.824C195.726 115.824 195.918 115.659 195.918 115.468C196.055 114.481 196.027 113.988 195.808 113.55C195.671 113.249 195.698 113.112 195.918 113.139C196.109 113.194 196.246 112.646 196.301 111.495C196.329 110.564 196.246 109.797 196.109 109.797C196 109.797 195.863 109.906 195.863 110.071C195.835 110.208 195.808 110.454 195.781 110.591C195.726 111.139 195.342 111.221 194.904 110.756C194.603 110.482 194.219 110.372 193.808 110.454C192.877 110.701 193.233 109.934 194.274 109.468C195.096 109.084 195.26 108.838 194.794 108.564C194.63 108.454 194.575 108.29 194.657 108.18C194.712 108.043 194.438 107.879 194 107.797C193.123 107.605 192.685 106.92 193.315 106.674C193.507 106.591 193.671 106.674 193.616 106.838C193.589 107.002 193.726 107.194 193.918 107.249C194.082 107.331 194.246 107.194 194.246 107.002C194.246 106.674 193.315 105.852 191.918 104.92C191.781 104.811 191.452 104.4 191.233 104.016C190.137 102.098 188.932 100.838 187.671 100.236C186.439 99.6602 186.329 99.5232 186.493 98.8931C186.576 98.5096 187.014 97.8521 187.452 97.4137C188.247 96.6192 188.466 96.2083 187.891 96.5371C187.699 96.6466 187.945 96.3453 188.438 95.8522C189.041 95.3042 189.617 95.0029 190.164 95.0029C190.822 95.0029 190.959 94.8933 190.959 94.3454C190.959 93.4961 190.795 93.4139 189.26 93.2495C188.575 93.1947 187.754 93.003 187.452 92.8386C186.877 92.5372 185.37 92.7016 185.589 93.0578C185.644 93.14 185.535 93.4687 185.315 93.7427C184.987 94.181 184.822 94.2358 184.247 93.9618C183.863 93.7975 183.562 93.4139 183.562 93.1674C183.535 92.3455 182.932 91.7975 181.973 91.7702C180.713 91.7428 179.727 91.0579 179.727 90.1812C179.727 89.6333 179.836 89.4963 180.165 89.6333C180.987 89.9346 181.946 89.4963 182.083 88.7292C182.165 88.3183 182.603 87.7429 183.041 87.469C183.48 87.1676 183.836 86.7567 183.836 86.5649C183.836 85.9348 184.521 85.4691 185.288 85.6061C186.384 85.8252 186.74 86.3731 186.302 87.2772C185.781 88.2909 185.808 88.51 186.384 88.9484C186.85 89.2771 186.85 89.3593 186.466 89.7702C186.055 90.236 186.137 90.6195 186.603 90.6195C186.74 90.6195 187.315 90.099 187.918 89.4963C188.795 88.5922 189.233 88.3457 190.247 88.2361C190.932 88.1539 191.699 88.1813 191.973 88.2909C192.247 88.4278 192.575 88.4826 192.685 88.4552C192.794 88.4552 193.151 88.5374 193.425 88.7018C193.89 88.9484 193.972 89.2771 193.972 90.8387C193.972 92.1263 194.055 92.5646 194.246 92.2633C194.383 92.0441 194.52 91.9619 194.52 92.1263C194.52 92.5098 195.863 93.0852 196.055 92.7838C196.137 92.6468 196.411 92.6468 196.739 92.8112C197.013 92.9756 197.26 93.0304 197.26 92.9482C197.26 92.866 197.561 93.003 197.945 93.2495C198.63 93.6879 198.876 94.455 198.356 94.455C197.89 94.455 198.054 94.9207 198.849 95.77C200 97.0302 200.246 97.3863 200.082 97.5781C199.78 97.8795 199.808 99.2493 200.109 99.441C200.274 99.5506 200.411 99.9068 200.411 100.263C200.411 100.838 200.52 100.893 201.643 100.811C202.328 100.783 202.931 100.619 202.958 100.482C203.013 100.318 203.287 100.208 203.588 100.208C203.862 100.208 204.109 100.099 204.109 99.9342C204.109 99.7972 204.273 99.7424 204.493 99.8246C205.04 100.044 206.027 98.9753 206.027 98.2082C206.027 97.1124 204.41 94.2632 203.095 93.0304C202.41 92.3729 201.589 91.5784 201.26 91.2222C200.958 90.8661 200.219 90.3182 199.643 89.9894C199.096 89.6881 198.438 89.1401 198.219 88.784C197.808 88.1813 197.835 88.1265 198.548 87.6881C198.959 87.469 199.643 86.8115 200.027 86.2362C200.685 85.3047 200.712 85.1677 200.356 84.4828C199.89 83.6061 199.972 82.2363 200.493 82.3185C200.657 82.3733 200.821 82.1542 200.821 81.8254C200.821 81.524 200.931 81.3323 201.068 81.4145C201.205 81.524 201.452 81.2501 201.589 80.8391C201.753 80.4008 201.89 80.2364 201.89 80.4556C201.917 80.757 202.027 80.7296 202.328 80.3186C202.657 79.9077 202.712 79.8803 202.739 80.2364C202.739 80.8391 204.657 81.3871 205.534 81.0583C206.41 80.7296 207.944 78.9488 207.944 78.2913C207.944 77.5516 208.712 74.7298 209.013 74.3463C209.15 74.1819 209.259 72.9217 209.259 71.5793C209.259 70.2095 209.369 68.8123 209.533 68.4287C209.725 67.8808 209.643 67.4151 209.122 66.2371C208.766 65.4152 208.328 64.6481 208.136 64.5385C207.972 64.4289 207.917 64.2646 208.027 64.155C208.136 64.0454 207.944 63.7714 207.643 63.5523C206.629 62.8674 205.561 59.936 206.301 59.936C206.849 59.936 208.985 61.7167 209.15 62.2646C209.232 62.566 209.725 63.2509 210.218 63.7714C210.711 64.292 211.396 65.3056 211.725 65.9905C212.054 66.6754 212.684 67.5795 213.122 67.963C213.561 68.3466 214.054 69.0863 214.246 69.6342C214.41 70.1821 214.656 70.6204 214.793 70.6204C214.93 70.6204 215.15 71.0314 215.314 71.5245C215.506 72.045 215.999 72.8121 216.465 73.2504L217.314 74.0449L217.122 73.0587C216.93 72.0724 216.958 72.0724 217.697 72.2094C218.136 72.2916 218.684 72.6203 218.958 72.9217C219.341 73.3874 219.423 73.4148 219.451 73.0587C219.451 72.5382 218.547 71.4423 218.136 71.4423C217.971 71.4423 217.533 71.1684 217.177 70.8122C216.793 70.4835 216.191 69.9903 215.807 69.7438C215.424 69.4698 214.93 68.7301 214.711 68.1C214.492 67.4425 214.218 66.7028 214.109 66.4288C213.807 65.7165 215.122 65.8261 216.437 66.648C217.588 67.3877 217.807 67.4425 217.807 67.1137C217.807 67.0042 217.396 66.6754 216.93 66.374C216.437 66.1001 215.533 65.3604 214.903 64.7577C214.3 64.1276 212.711 62.6482 211.396 61.4428C210.081 60.2373 208.821 58.9223 208.602 58.5114C208.109 57.5799 207.013 56.3745 206.657 56.3745C206.492 56.3745 206.082 56.0458 205.725 55.6074C204.739 54.4842 204.219 54.1554 203.725 54.3472C203.342 54.4842 203.424 54.6212 204.136 55.0595C204.986 55.58 204.986 55.58 204.493 56.1279C204.027 56.6485 204.027 56.7307 204.41 57.0046C204.986 57.4429 205.862 58.8127 205.698 59.0045C205.479 59.2237 204.109 57.6621 204.109 57.1964C204.109 57.0594 203.342 56.5389 202.41 56.0731C201.452 55.6348 200.328 55.0595 199.917 54.8403C199.013 54.3472 196.602 54.128 196.959 54.5664C197.233 54.9225 196.849 56.1005 196.438 56.1005C196.301 56.1005 196.164 55.854 196.164 55.5526C196.164 55.2513 195.972 55.0047 195.753 55.0047C195.534 55.0047 195.342 54.7581 195.342 54.4568C195.342 54.1554 195.205 53.9089 195.041 53.9089C194.877 53.9089 194.794 53.7445 194.877 53.5253C195.096 52.95 194.109 52.1555 193.507 52.4021C193.233 52.5391 192.877 52.5939 192.685 52.5665C192.52 52.5391 192.301 52.6486 192.192 52.813C192.027 53.0596 192.794 53.1966 194.109 53.1418C194.411 53.1418 194.493 53.1966 194.301 53.2788C194.027 53.3883 194.055 53.5253 194.411 53.9363C194.657 54.2102 194.74 54.4568 194.575 54.4568C194.438 54.4568 194.356 54.7307 194.438 55.0595C194.52 55.4704 194.383 55.3609 194.027 54.7307C193.562 53.8815 193.342 53.7445 192.082 53.6075C189.726 53.3062 189.699 53.2514 190.74 51.9363C191.918 50.4296 192.356 49.5803 192 49.4707C191.699 49.3611 192.849 46.7859 193.205 46.7859C193.315 46.7859 193.288 46.4845 193.151 46.101C192.931 45.5531 192.986 45.3613 193.288 45.2517C193.507 45.1421 193.699 44.786 193.699 44.4298C193.699 43.9915 193.918 43.6901 194.274 43.5532C195.178 43.197 199.096 43.1422 199.315 43.471C199.397 43.6354 199.726 43.7723 200.027 43.7723C200.328 43.7723 200.52 43.6901 200.438 43.5532C200.383 43.4436 201.315 43.3888 202.52 43.4162C204.602 43.4984 204.712 43.471 204.575 42.9231C204.465 42.5121 204.547 42.4025 204.876 42.5121C205.972 42.8135 207.287 43.06 207.506 42.9779C207.67 42.9505 208.081 42.9779 208.438 43.0874C208.958 43.2244 209.013 43.334 208.766 43.6354C208.41 44.0737 208.712 44.3203 209.643 44.3203C211.807 44.3203 212.328 44.2655 212.328 44.0189C212.328 43.8545 212.629 43.7997 213.095 43.9093C213.533 43.9915 214.246 43.9367 214.656 43.7723C215.615 43.4162 215.314 43.1148 213.533 42.6491C212.328 42.3477 212.163 41.9642 212.657 40.704C212.794 40.3204 212.931 39.5807 212.958 39.0876C213.013 38.2383 213.095 38.1836 214.109 38.074C214.711 38.0192 215.451 37.9918 215.752 37.9918C216.054 38.0192 216.629 38.0192 217.067 38.0466C217.533 38.0466 217.807 38.1836 217.807 38.4301C217.807 38.978 218.848 39.9917 219.204 39.7999C219.341 39.6903 219.697 39.9095 219.999 40.2656C220.355 40.6766 220.519 40.7588 220.547 40.5122C220.547 40.293 220.629 40.2109 220.738 40.3204C220.848 40.4026 221.067 40.1013 221.204 39.6081C221.451 38.9232 221.67 38.6767 222.273 38.6219C222.93 38.5397 223.368 38.0192 222.738 38.0192C222.601 38.0192 222.163 37.6904 221.752 37.2795C221.04 36.5672 221.04 36.5398 221.615 36.348C222.273 36.1015 223.094 36.3206 222.848 36.6768C222.684 36.9781 224.135 38.8411 224.546 38.8411C225.067 38.8411 224.848 39.7451 224.19 40.3478C223.752 40.7314 223.615 41.1149 223.697 41.5533C223.752 41.9368 223.697 42.3751 223.533 42.5943C223.341 42.7861 223.286 43.334 223.396 43.7723C223.588 44.786 223.177 45.964 222.601 45.964C222.382 45.964 222.19 46.0736 222.19 46.238C222.19 46.375 221.916 46.5119 221.588 46.5119C220.958 46.5119 220.958 46.5119 221.67 47.1694C222.19 47.6626 222.355 48.0461 222.273 48.5118C222.053 49.6625 223.478 51.5254 226.656 54.265C227.396 54.8951 228.519 55.8814 229.122 56.4841C229.752 57.0594 230.82 57.9909 231.505 58.5388C232.163 59.0867 233.012 59.8538 233.368 60.2647C233.724 60.6757 234.382 61.2784 234.793 61.5797L235.587 62.1551L236.025 61.3058C236.518 60.3469 236.382 59.0867 235.724 58.5388C235.231 58.1278 235.231 57.306 235.724 57.1142C235.943 57.032 236.409 57.032 236.765 57.1142C237.286 57.2238 237.176 57.032 236.19 56.1827C235.231 55.3061 235.039 54.9773 235.203 54.4842C235.368 53.9637 235.505 53.9089 236.354 54.0732C237.176 54.2376 237.313 54.1828 237.203 53.7445C237.149 53.4705 236.628 52.9226 236.053 52.5391C234.382 51.3884 233.724 49.7173 235.203 50.4022C235.587 50.5665 235.971 50.6213 236.08 50.5392C236.327 50.2652 235.067 48.9776 234.546 48.9776C233.943 48.9502 232.601 47.7448 232.601 47.2242C232.601 46.6489 231.587 46.1558 230.793 46.3476C229.806 46.5941 228.711 45.4435 228.93 44.375C229.067 43.7449 228.93 43.4162 228.382 42.8409C227.697 42.1834 227.697 41.9916 228.3 42.1012C228.409 42.1286 228.765 41.9916 229.094 41.8272C229.396 41.6628 229.587 41.6354 229.478 41.7998C229.396 41.9368 229.505 42.1286 229.724 42.2382C230.163 42.4025 230.519 41.9916 230.3 41.6081C229.943 41.0327 230.957 41.1423 231.505 41.7176C232.19 42.4299 232.601 42.4025 232.601 41.6081C232.601 40.567 235.149 40.4848 237.231 41.4437C238.82 42.1834 239.121 42.1834 238.683 41.4163C238.491 41.0601 238.573 40.7862 239.066 40.293C239.422 39.9369 239.806 39.3342 239.888 38.978C239.97 38.5945 240.354 38.2109 240.847 38.0466C241.285 37.9096 241.642 37.6356 241.642 37.4987C241.642 37.3343 241.806 37.1973 242.025 37.1973C242.217 37.1973 242.573 37.0055 242.765 36.759C243.121 36.3206 244.189 36.348 246.381 36.8137C247.011 36.9507 247.121 36.8959 247.121 36.4302C247.121 36.0741 246.874 35.8001 246.518 35.6631C246.162 35.5809 245.696 35.3344 245.477 35.1426C245.258 34.9508 244.765 34.7043 244.381 34.5673C243.313 34.1837 240.272 32.4304 240.272 32.1838C240.272 32.0742 240.518 31.7181 240.792 31.3893C241.505 30.6496 241.094 29.9647 239.669 29.5538C239.094 29.362 238.683 29.1155 238.765 28.9785C238.847 28.8141 239.642 29.0607 240.491 29.499C241.806 30.1565 242.381 30.2935 243.97 30.2661C245.559 30.2661 246.134 30.3757 247.258 30.9784C247.997 31.3893 248.901 31.7181 249.23 31.7181C249.532 31.7181 250.573 31.9647 251.477 32.2386C253.038 32.7317 253.175 32.7317 253.449 32.2934C253.696 31.9099 253.723 31.9099 253.586 32.3208C253.422 32.8687 254.107 32.9783 254.792 32.54C255.148 32.3208 255.093 32.2386 254.6 32.1016C254.244 31.9921 254.052 31.8277 254.134 31.6907C254.216 31.5537 254.134 31.4441 253.997 31.4441C253.833 31.4441 253.449 31.1976 253.175 30.9236C252.627 30.3757 252.627 30.3757 253.34 30.2935C253.751 30.2387 254.134 30.0469 254.189 29.8278C254.271 29.5538 254.189 29.499 253.888 29.6086C253.614 29.7182 253.504 29.6634 253.586 29.4442C253.641 29.2524 253.367 28.8963 252.929 28.6497C251.641 27.8826 246.956 26.7868 244.984 26.7868C243.614 26.7868 242.82 26.6224 241.779 26.1293C240.299 25.3896 227.998 22.3213 223.971 21.6638C222.629 21.4446 220.464 21.2254 219.177 21.1706C215.67 21.0062 212.52 20.7597 211.917 20.5679C211.479 20.4583 211.506 20.5405 212.136 21.1432C212.547 21.5268 213.013 21.8555 213.15 21.8555C213.287 21.8555 213.862 22.1295 214.437 22.4582L215.478 23.0883L214.711 23.1705C214.273 23.2253 213.78 23.1431 213.588 22.9788C213.396 22.8144 212.657 22.5952 211.944 22.513C211.232 22.4034 210.602 22.2391 210.547 22.1295C210.465 21.9925 210.657 21.9651 210.958 22.0473C211.259 22.1295 211.506 22.0473 211.506 21.8829C211.506 21.7185 211.424 21.609 211.314 21.609C211.177 21.6364 210.657 21.609 210.136 21.5816L209.177 21.4994L210.136 21.3076L211.095 21.1158L210.218 21.0336C208.52 20.8693 208.355 20.8967 208.355 21.3076C208.355 21.609 208.054 21.7185 207.123 21.6911C204.903 21.609 199.863 21.5816 199.452 21.6364C198.493 21.7733 196.164 21.2528 196.164 20.8693C196.164 20.3487 194.877 19.746 192.685 19.2255C191.178 18.8694 189.973 18.8146 186.548 18.9515C183.124 19.0885 182.11 19.0611 181.316 18.7324C180.795 18.5132 179.781 18.2666 179.042 18.1571C177.151 17.9379 176.412 17.7187 176.603 17.4448C177.042 16.7325 171.59 16.0202 170.768 16.6777C170.521 16.8968 170.385 16.9242 170.494 16.7325C170.795 16.2667 170.193 16.1572 165.07 15.6914C159.508 15.1983 159.7 15.1983 160.549 15.6914L161.234 16.075L160.221 16.1024C159.426 16.1024 159.234 16.1846 159.344 16.5133C159.453 16.7325 159.837 16.9242 160.221 16.9242C160.604 16.9242 160.823 17.0064 160.714 17.116C160.632 17.2256 160.878 17.4722 161.289 17.6639L162.056 18.0201L161.234 17.8557C160.796 17.7461 160.166 17.6913 159.864 17.6913C159.563 17.7187 158.549 17.7461 157.591 17.7461C156.659 17.7461 155.591 17.8831 155.262 17.9927C154.878 18.1297 154.111 18.1297 153.399 17.9653C152.741 17.8283 151.92 17.6913 151.591 17.6639C151.289 17.6365 151.07 17.527 151.153 17.39C151.207 17.2804 151.125 17.1982 150.933 17.1982C150.769 17.1982 150.687 17.4174 150.769 17.6639C151.344 19.4995 151.372 19.3899 150.385 19.2255C148.961 18.9515 146.824 17.9105 145.81 16.9516C145.317 16.4859 144.714 16.1024 144.495 16.1024C144.276 16.1024 144.112 15.938 144.112 15.7462C144.112 14.9791 139.153 13.5819 138.742 14.2394C138.66 14.349 138.441 14.3764 138.276 14.2668C138.085 14.1572 137.646 14.0203 137.263 13.9929C136.879 13.9381 136.03 13.7737 135.345 13.6093C134.468 13.4176 134.085 13.4176 134.03 13.6093C133.975 13.7737 133.811 13.8559 133.674 13.7463C133.537 13.6641 133.427 13.7463 133.427 13.8833C133.427 14.0477 133.674 14.3216 133.975 14.5134C134.277 14.7052 134.523 14.9243 134.523 15.0065C134.523 15.1435 132.194 15.1161 129.592 14.8969C128.77 14.8421 127.838 14.7874 127.537 14.76C127.126 14.7326 127.071 14.6778 127.373 14.486C127.592 14.349 127.619 14.1846 127.455 14.0751C127.071 13.8559 120.442 13.7737 120.085 13.9929C119.674 14.2394 117.812 13.1436 117.812 12.6505C117.812 12.3765 117.455 12.2669 116.551 12.2669C115.538 12.2669 115.264 12.3765 115.154 12.7874C115.072 13.1436 114.853 13.2532 114.497 13.171C114.223 13.0888 113.784 13.1162 113.538 13.1984C113.182 13.3354 113.154 13.4449 113.428 13.7463C113.675 14.0751 113.565 14.212 112.688 14.4312C111.373 14.8148 110.058 14.8148 110.278 14.4586C110.36 14.2942 110.743 14.1846 111.1 14.1846C111.456 14.1846 111.867 14.0203 111.976 13.8285C112.25 13.4176 112.962 12.9792 114.579 12.1847C115.291 11.856 115.949 11.4176 116.031 11.1985C116.277 10.5684 115.072 9.49992 114.25 9.60951C113.867 9.6643 113.73 9.6643 113.921 9.60951C114.195 9.49992 114.168 9.39034 113.784 9.08898C113.209 8.65065 112.771 8.59586 113.017 8.9794C113.291 9.41774 112.825 9.30815 112.278 8.78763C111.867 8.43148 111.154 8.3219 108.415 8.3219C106.579 8.2945 104.771 8.40408 104.415 8.54106C103.922 8.70544 103.812 8.67804 103.894 8.40408C104.086 7.85616 103.62 7.06168 103.127 7.06168C102.908 7.06168 102.799 7.17126 102.881 7.33564C103.155 7.74658 101.977 7.66439 101.264 7.19866C100.525 6.70553 96.8262 6.40417 96.0043 6.76032ZM117.264 13.3628C117.565 13.5545 117.455 13.6367 116.798 13.6367C116.305 13.6367 115.894 13.4997 115.894 13.3628C115.894 13.0066 116.716 13.0066 117.264 13.3628ZM74.1423 23.8006C74.7998 24.5403 74.4711 24.7047 73.704 24.0472C73.3478 23.7459 72.9095 23.4993 72.7177 23.4993C72.5259 23.4993 72.3068 23.3897 72.2246 23.2801C71.9506 22.8144 73.6766 23.3075 74.1423 23.8006ZM245.066 27.6087C245.148 27.7731 245.039 27.8005 244.819 27.7183C244.326 27.5265 244.244 27.3347 244.628 27.3347C244.792 27.3347 244.984 27.4443 245.066 27.6087ZM239.861 32.266C240.08 32.6222 239.45 32.6222 238.902 32.266C238.573 32.0468 238.601 31.9921 239.094 31.9921C239.422 31.9921 239.779 32.1016 239.861 32.266ZM144.577 52.1829C145.673 54.7307 145.81 55.2513 145.482 55.7444C145.208 56.1827 145.18 56.1827 145.317 55.7444C145.399 55.4978 145.345 55.2787 145.208 55.2787C145.043 55.2787 144.934 55.5252 144.934 55.8266C144.934 56.1553 145.125 56.3745 145.427 56.3745C145.701 56.3745 145.783 56.4567 145.591 56.5937C145.427 56.7033 145.208 57.032 145.098 57.3334C145.016 57.6895 144.468 58.0731 143.756 58.3196C142.769 58.7032 142.605 58.8401 142.687 59.4703C142.769 60.073 142.632 60.2099 141.673 60.5113C140.852 60.7579 140.386 60.7579 139.948 60.5387C139.345 60.2647 139.345 60.2373 140.112 60.2373C140.879 60.2099 141.92 59.5524 141.92 59.0593C141.92 58.9497 142.167 58.5936 142.495 58.2648C142.797 57.9635 142.988 57.5251 142.906 57.306C142.824 57.1142 142.906 56.8402 143.098 56.7307C144.002 56.1553 144.249 53.9911 143.673 51.909C143.427 51.1419 144.221 51.361 144.577 52.1829ZM91.8949 71.9628C91.9771 72.0998 91.8675 72.2642 91.6484 72.3738C91.4292 72.456 91.2374 72.7025 91.2374 72.9491C91.2374 73.1683 91.0456 73.36 90.8265 73.36C90.5525 73.36 90.4155 73.634 90.4155 74.2093C90.4155 74.949 90.3607 75.0312 90.0046 74.7298C89.5115 74.3189 89.4567 73.0861 89.9224 73.0861C90.0868 73.0861 90.169 73.0039 90.0868 72.9217C89.8402 72.6751 90.7717 71.7711 91.2922 71.7437C91.5388 71.7163 91.8127 71.8259 91.8949 71.9628ZM93.5113 71.908C93.3195 71.9628 92.9908 71.9628 92.8264 71.908C92.6346 71.8259 92.7716 71.7711 93.1551 71.7711C93.5387 71.7711 93.6757 71.8259 93.5113 71.908ZM97.2645 72.2642C97.5659 72.4834 97.4563 72.5108 96.8536 72.3738C95.8399 72.1546 95.6208 71.9902 96.3331 71.9902C96.607 71.9902 97.0454 72.1272 97.2645 72.2642ZM98.9083 72.2368C98.9083 72.4012 98.6617 72.4834 98.3604 72.456C98.059 72.4286 97.8125 72.319 97.8125 72.2094C97.8125 72.0998 98.059 71.9902 98.3604 71.9902C98.6617 71.9902 98.9083 72.0998 98.9083 72.2368ZM65.9509 72.7025C65.8687 72.7847 65.6221 72.8121 65.4304 72.7299C65.2112 72.6477 65.2934 72.5655 65.5947 72.5655C65.8961 72.5382 66.0605 72.6203 65.9509 72.7025ZM63.8414 73.908C63.8414 74.0449 63.7044 74.1819 63.54 74.1819C63.4031 74.1819 63.3483 74.3189 63.4305 74.4559C63.54 74.6202 63.8414 74.675 64.1428 74.5929C64.5263 74.4559 64.6907 74.5929 64.8277 75.1134C64.9098 75.4969 65.1564 75.9353 65.3756 76.127C65.6769 76.3736 65.6769 76.5654 65.3208 77.2503C65.0468 77.7982 64.7729 78.0174 64.4989 77.9078C64.2523 77.8256 63.8962 77.7434 63.677 77.7434C63.4031 77.7434 63.2935 77.3599 63.2935 76.264C63.2935 75.4421 63.1839 74.675 63.0195 74.5929C62.8551 74.4833 62.8825 74.2915 63.1017 74.0449C63.4853 73.5792 63.8414 73.5244 63.8414 73.908ZM62.8825 75.2778C63.1565 76.1818 62.7182 76.4832 62.3072 75.6887C61.8415 74.7572 61.8415 74.7298 62.3072 74.7298C62.5264 74.7298 62.773 74.9764 62.8825 75.2778ZM62.0607 77.4146C61.8963 77.579 61.3758 76.1818 61.4032 75.6065C61.4032 75.3599 61.5949 75.6339 61.8141 76.2092C62.0333 76.8119 62.1428 77.3325 62.0607 77.4146ZM54.5542 83.5513C54.7185 83.9075 55.2391 84.5376 55.7322 84.9485C56.1979 85.3869 56.4171 85.6608 56.2253 85.5513C56.0061 85.4417 55.6774 85.5787 55.4582 85.8526C55.1569 86.2362 54.9925 86.2636 54.9103 86.017C54.8281 85.8526 54.4994 85.6882 54.198 85.6882C53.4857 85.6882 52.9104 84.9485 52.883 83.9897C52.883 82.8664 54.0336 82.5651 54.5542 83.5513ZM20.5557 114.865C20.5557 115.084 20.4461 115.276 20.2817 115.276C20.1448 115.276 20.09 115.084 20.1722 114.865C20.2817 114.646 20.3913 114.454 20.4461 114.454C20.5009 114.454 20.5557 114.646 20.5557 114.865ZM126.03 135.549C126.03 135.686 125.976 135.823 125.921 135.823C125.839 135.823 125.702 135.686 125.619 135.549C125.537 135.385 125.592 135.275 125.729 135.275C125.893 135.275 126.03 135.385 126.03 135.549ZM37.1029 143.165C37.1851 143.302 37.0755 143.412 36.8563 143.412C36.6372 143.412 36.5276 143.302 36.6098 143.165C36.692 143.055 36.8015 142.946 36.8563 142.946C36.9111 142.946 37.0207 143.055 37.1029 143.165ZM165.618 156.343C165.7 156.48 165.645 156.671 165.481 156.781C165.344 156.863 165.207 156.753 165.207 156.534C165.207 156.041 165.371 155.959 165.618 156.343ZM171.371 158.836C171.645 159.137 171.727 159.384 171.563 159.384C171.398 159.384 171.124 159.137 170.96 158.836C170.795 158.534 170.713 158.288 170.768 158.288C170.823 158.288 171.097 158.534 171.371 158.836Z" fill=""></path>
    <path d="M156.166 12.7872C156.166 13.2529 156.961 13.6912 157.481 13.5269C157.837 13.4173 158.084 13.4995 158.193 13.7734C158.303 14.0474 158.166 14.1844 157.782 14.1844C157.454 14.1844 157.317 14.2939 157.426 14.4857C157.508 14.6501 157.865 14.7049 158.221 14.6227C158.549 14.5405 159.864 14.5953 161.097 14.7597C163.344 15.0336 164.056 14.9241 163.289 14.4583C162.604 14.02 160.111 13.3625 159.125 13.3625C158.632 13.3625 157.974 13.1707 157.7 12.9515C157.097 12.5132 156.166 12.4036 156.166 12.7872Z" fill=""></path>
    <path d="M216.985 74.8939C216.985 75.1131 216.876 75.2227 216.711 75.1405C216.574 75.0583 216.438 75.1131 216.438 75.2775C216.438 75.4692 216.602 75.5514 216.821 75.4692C217.506 75.1953 219.314 77.8527 219.013 78.702C218.931 78.8937 218.985 79.1403 219.15 79.2499C219.752 79.606 219.424 79.88 218.657 79.6608C217.643 79.3869 217.396 79.606 217.972 80.2361C218.355 80.6745 218.383 80.7567 218.026 80.8937C217.78 81.0032 217.616 81.4142 217.616 81.9347C217.616 82.4278 217.67 82.647 217.725 82.4826C217.917 81.9621 219.095 82.8388 219.287 83.6606C219.478 84.4003 220.191 84.5373 220.437 83.9072C220.547 83.688 220.766 83.4963 220.985 83.4963C221.725 83.4963 221.369 82.9757 220.273 82.51C219.67 82.2361 219.177 81.9347 219.177 81.7977C219.177 81.4964 219.561 81.5238 219.917 81.8799C220.136 82.0991 220.355 82.0717 220.766 81.8251C221.204 81.5512 221.561 81.5786 222.821 82.0991C223.67 82.4552 224.492 82.647 224.684 82.51C224.903 82.4004 224.93 82.4278 224.821 82.6196C224.711 82.8114 224.766 82.9484 224.93 82.9484C225.149 82.9484 225.204 82.7018 225.095 82.2908C224.848 81.2498 225.177 80.7567 226.136 80.7567C227.04 80.7293 227.944 80.2087 227.944 79.7156C227.944 79.5512 227.752 79.4691 227.505 79.5786C227.177 79.7156 227.095 79.5238 227.149 78.4828C227.204 77.6061 227.314 77.2774 227.588 77.387C227.779 77.4691 227.944 77.4144 227.944 77.25C227.944 77.113 227.697 76.9212 227.396 76.839C226.93 76.7295 226.821 76.8664 226.684 77.7705C226.492 78.8937 226.026 78.9759 226.026 77.8527C226.026 77.0582 225.588 76.976 225.341 77.7431C225.177 78.2636 225.122 78.2636 223.204 77.5513C221.424 76.9212 220.109 76.2637 219.725 75.8254C219.451 75.4966 217.588 74.4556 217.287 74.4556C217.122 74.4556 216.985 74.6474 216.985 74.8939Z" fill=""></path>
    <path d="M221.094 84.1818C221.094 84.4284 220.957 84.5379 220.793 84.4284C220.573 84.2914 220.519 84.4558 220.656 84.9489C220.738 85.3598 220.683 85.7434 220.519 85.8256C220.327 85.9625 220.382 86.1817 220.683 86.5105C220.902 86.757 221.039 87.168 220.93 87.4419C220.82 87.7433 220.902 87.8803 221.204 87.8803C221.423 87.8803 221.751 88.1268 221.916 88.4282C222.354 89.2775 222.436 91.7979 222.025 92.2636C221.669 92.6746 221.642 92.7841 221.642 93.4964C221.642 93.743 221.313 94.0718 220.902 94.2635C220.464 94.4279 220.053 94.7019 219.943 94.8662C219.642 95.2498 219.149 94.4279 219.341 93.8526C219.532 93.2499 219.149 93.0581 218.574 93.469C218.19 93.743 218.19 93.88 218.519 94.4553C218.711 94.8388 218.875 94.9758 218.902 94.7567C218.902 94.5375 218.957 94.4279 219.039 94.5101C219.204 94.6745 218.546 96.0991 218.3 96.0991C217.971 96.0991 218.026 97.1401 218.354 97.2497C218.519 97.3045 218.519 97.4963 218.354 97.7154C218.163 98.0442 218.053 98.0442 217.697 97.7702C217.368 97.4963 216.985 97.4689 215.916 97.7428C215.176 97.9072 214.272 98.0442 213.916 98.0168C212.766 97.9072 212.327 98.0168 212.327 98.3455C212.327 98.8113 210.957 100.345 210.355 100.565C210.081 100.647 209.862 100.976 209.862 101.277C209.862 101.578 209.697 101.962 209.533 102.126C209.341 102.291 208.903 102.647 208.547 102.921L207.917 103.469L208.656 104.29C209.067 104.756 209.505 105.058 209.67 104.948C209.834 104.866 209.862 104.893 209.779 105.058C209.67 105.195 209.944 105.825 210.355 106.4C210.766 106.975 211.094 107.66 211.094 107.879C211.094 108.099 211.368 108.318 211.725 108.372C212.053 108.427 212.327 108.619 212.327 108.783C212.327 108.975 212.601 108.811 212.957 108.427C213.478 107.852 213.56 107.468 213.505 105.962C213.478 104.948 213.45 104.044 213.396 103.907C213.286 103.222 213.478 103.249 214.272 104.017C215.176 104.921 216.053 105.167 215.779 104.427C215.56 103.88 216.081 102.948 216.574 102.948C216.793 102.948 216.985 103.058 216.985 103.222C216.985 103.743 217.396 103.496 217.724 102.784C217.889 102.4 217.998 101.934 217.916 101.715C217.834 101.523 217.889 101.277 218.053 101.167C218.217 101.085 218.354 101.167 218.354 101.386C218.354 101.88 219.45 102.866 220.108 103.003C220.519 103.058 220.683 102.866 220.875 102.181C221.012 101.688 221.286 101.304 221.505 101.304C222.108 101.304 221.998 100.537 221.368 100.345C221.067 100.263 220.82 100.071 220.82 99.9345C220.82 99.8249 221.067 99.7701 221.368 99.8523C221.669 99.9345 221.916 100.071 221.916 100.181C221.916 100.263 222.464 100.345 223.149 100.345C224.272 100.345 224.382 100.291 224.382 99.6605L224.409 98.9756L224.82 99.7427C225.286 100.619 225.861 100.455 225.669 99.4962C225.532 98.7291 226.053 98.6195 226.683 99.277C227.094 99.6605 227.149 99.6605 227.559 99.277C227.779 99.0304 227.888 98.7017 227.806 98.5647C227.696 98.4003 227.751 98.099 227.916 97.9072C228.135 97.6332 228.08 97.3867 227.669 96.9209C227.368 96.5648 227.094 96.0443 227.094 95.7155C227.066 95.3868 227.012 94.9484 226.984 94.7293C226.957 94.5101 226.902 94.1265 226.875 93.88C226.875 93.6334 226.601 93.1677 226.299 92.8115C225.998 92.4554 225.751 92.0171 225.751 91.7979C225.751 91.5239 225.916 91.4691 226.299 91.5787C226.601 91.6883 226.847 91.6335 226.847 91.4691C226.847 91.3048 226.738 91.1678 226.573 91.1678C226.436 91.1678 226.299 90.5651 226.299 89.8254C226.299 88.5378 226.217 88.3734 224.518 86.62C223.532 85.6064 222.738 84.5927 222.738 84.401C222.738 84.2092 222.573 84.0448 222.354 84.0448C222.135 84.0448 221.779 83.9626 221.532 83.8804C221.231 83.7709 221.094 83.853 221.094 84.1818ZM222.464 84.9763C222.464 85.0311 222.272 85.1407 222.053 85.2502C221.834 85.3324 221.642 85.2776 221.642 85.1407C221.642 84.9763 221.834 84.8667 222.053 84.8667C222.272 84.8667 222.464 84.9215 222.464 84.9763ZM217.45 100.345C217.669 100.948 217.45 101.085 216.601 100.866C216.026 100.729 215.944 100.619 216.19 100.318C216.601 99.7975 217.231 99.8249 217.45 100.345ZM215.45 101.167C215.259 101.633 214.629 101.715 214.382 101.332C214.272 101.113 214.629 100.921 215.396 100.784C215.505 100.784 215.533 100.948 215.45 101.167ZM213.067 101.633C212.985 101.852 212.903 101.77 212.903 101.469C212.875 101.167 212.957 101.003 213.04 101.113C213.122 101.195 213.149 101.441 213.067 101.633ZM213.861 101.77C213.67 102.51 213.012 103.222 212.546 103.222C212.437 103.222 212.355 103.058 212.409 102.866C212.437 102.674 212.108 102.51 211.588 102.455C211.094 102.4 210.684 102.236 210.684 102.071C210.684 101.88 211.149 101.852 212.026 101.962C213.231 102.126 213.396 102.071 213.56 101.578C213.834 100.756 214.053 100.921 213.861 101.77Z" fill=""></path>
    <path d="M18.1997 97.8792C17.9257 98.0984 17.2134 98.2902 16.6655 98.2902C16.0902 98.2902 15.6245 98.3997 15.6245 98.5641C15.6245 98.7011 15.3779 98.8381 15.0492 98.8381C14.2273 98.8381 14.5012 99.7147 15.4601 100.153C16.145 100.509 16.3094 100.482 17.0217 99.9613C17.4326 99.6326 17.9257 99.386 18.0627 99.386C18.2271 99.386 18.2819 99.2216 18.1997 99.0025C18.1175 98.7559 18.2819 98.4545 18.6106 98.2354C19.1859 97.8792 19.3777 97.4683 18.9668 97.4683C18.8298 97.4683 18.501 97.66 18.1997 97.8792Z" fill=""></path>
    <path d="M198.712 138.343C198.465 138.727 198.52 142.672 198.767 143.603C198.931 144.124 198.904 144.151 198.548 143.685C197.671 142.617 197.561 143.494 198.274 145.713C198.739 147.137 199.452 148.151 200 148.151C200.164 148.151 200.274 147.932 200.274 147.685C200.274 147.439 200.356 147.329 200.465 147.411C200.548 147.521 200.493 147.904 200.274 148.261C199.89 148.973 200.082 149.932 200.548 149.658C200.685 149.576 200.822 149.63 200.822 149.767C200.822 150.233 200 150.124 199.835 149.658C199.726 149.439 199.479 149.247 199.26 149.247C198.986 149.247 199.096 149.548 199.671 150.26C200.109 150.836 200.685 151.685 200.931 152.178C201.506 153.329 201.917 153.548 202.356 152.945C202.821 152.343 202.575 151.192 201.917 150.589C201.424 150.151 201.424 150.124 202.054 149.795C202.739 149.411 203.643 149.685 202.986 150.069C202.712 150.26 202.712 150.397 203.013 150.754C203.369 151.192 203.424 151.192 203.726 150.754C204.027 150.343 204.082 150.343 204.328 150.808C204.493 151.082 204.712 151.192 204.821 151.082C204.958 150.973 204.876 150.617 204.684 150.315C204.054 149.274 204.547 149.521 205.808 150.863C206.958 152.096 207.15 152.534 206.52 152.534C206.41 152.534 206.328 152.452 206.356 152.315C206.438 152.041 205.671 150.891 205.424 150.891C205.041 150.891 205.205 151.74 205.616 151.877C205.89 151.986 206.027 152.425 206.027 153.192C206.027 153.932 206.109 154.178 206.273 153.932C206.465 153.63 206.629 153.63 207.15 154.014C208.109 154.671 208.273 154.562 207.78 153.603C207.534 153.082 207.451 152.671 207.616 152.562C207.753 152.48 207.917 152.069 207.999 151.658C208.109 151.055 207.999 150.863 207.369 150.589C206.52 150.26 206.301 149.795 206.986 149.795C207.205 149.795 207.397 149.904 207.397 150.069C207.397 150.397 207.671 150.425 208.191 150.096C208.465 149.904 208.492 149.74 208.246 149.274C207.862 148.617 207.397 148.507 207.397 149.11C207.397 149.493 207.314 149.493 206.575 149.11C206.109 148.863 205.643 148.754 205.506 148.836C205.369 148.891 205.177 148.781 205.095 148.535C204.958 148.178 204.684 148.124 203.726 148.261C202.794 148.398 202.493 148.37 202.383 148.014C202.219 147.63 202.52 147.493 203.506 147.521C203.671 147.548 203.835 147.466 203.835 147.384C203.835 147.11 202.876 146.535 202.411 146.507C201.863 146.507 201.726 146.124 201.863 145.083C201.945 144.59 202.137 144.316 202.465 144.316C203.15 144.316 203.452 142.014 202.849 141.11C202.63 140.754 202.411 139.96 202.411 139.357C202.411 138.288 202.383 138.288 201.506 138.453C200.986 138.535 200.548 138.48 200.438 138.316C200.164 137.905 198.986 137.932 198.712 138.343Z" fill=""></path>
    <path d="M208.218 152.835C208.218 153.109 208.575 153.602 209.013 153.931C209.479 154.26 209.753 154.671 209.67 154.917C209.561 155.219 209.451 155.191 209.177 154.808C208.657 154.123 208.438 154.506 208.629 155.657C208.739 156.232 208.986 156.643 209.205 156.643C209.451 156.643 209.588 156.945 209.588 157.438C209.588 158.041 209.78 158.287 210.355 158.534C210.794 158.725 211.15 158.999 211.15 159.191C211.15 159.383 211.232 159.794 211.342 160.095C211.479 160.588 211.424 160.671 210.821 160.671C210.438 160.671 210.136 160.588 210.136 160.451C210.136 160.314 210.027 160.205 209.862 160.205C209.725 160.205 209.67 160.561 209.78 161.081C209.917 161.712 209.862 161.876 209.616 161.739C209.396 161.602 209.232 161.739 209.123 162.095C208.931 162.807 208.821 162.807 208.218 162.068C207.807 161.52 207.643 161.492 207.013 161.794C206.629 161.958 206.301 162.287 206.301 162.533C206.301 162.78 206.054 162.944 205.616 162.944C205.232 162.944 204.876 163.109 204.821 163.273C204.767 163.465 204.63 164.013 204.465 164.451C204.328 164.917 204.246 165.437 204.328 165.629C204.493 166.122 205.205 166.013 205.205 165.465C205.205 165.218 205.397 164.753 205.616 164.479C206.027 163.958 206.027 163.958 206.027 164.533C206.027 165.163 206.41 165.355 206.712 164.862C206.794 164.725 207.04 164.67 207.26 164.78C207.534 164.862 207.671 164.725 207.671 164.342C207.671 163.848 207.753 163.794 208.191 164.04C208.629 164.259 208.739 164.588 208.712 165.739C208.684 166.972 208.766 167.218 209.451 167.766C209.89 168.122 210.492 168.424 210.821 168.478C211.15 168.533 211.396 168.807 211.451 169.191C211.561 169.848 212.163 169.876 212.218 169.218C212.218 168.999 212.328 168.615 212.437 168.341C212.574 168.04 212.52 167.547 212.3 167.109C211.807 166.122 211.835 165.876 212.41 165.794C212.684 165.766 212.876 165.903 212.876 166.205C212.876 166.451 213.068 166.917 213.287 167.218C213.643 167.711 213.67 167.684 213.698 166.725C213.698 166.177 213.835 165.629 213.972 165.547C214.136 165.465 214.246 165.136 214.246 164.807C214.246 163.794 213.068 159.931 212.821 160.095C212.657 160.205 212.657 159.821 212.766 159.219C212.931 158.314 212.903 158.232 212.465 158.369C212.136 158.506 211.972 158.397 211.862 158.013C211.698 157.383 211.232 157.273 211.232 157.876C211.232 158.095 211.04 158.287 210.794 158.287C210.465 158.287 210.41 158.178 210.629 157.931C210.766 157.739 210.794 157.356 210.657 157.054C210.301 156.15 210.383 156.041 211.232 156.15L212.026 156.26L211.506 155.411C211.205 154.917 210.958 154.232 210.958 153.876C210.958 152.835 210.52 152.424 209.342 152.37C208.41 152.315 208.218 152.397 208.218 152.835Z" fill=""></path>
    <path d="M203.287 154.151C203.287 154.315 203.424 154.507 203.561 154.589C203.753 154.699 203.808 155.411 203.753 156.26C203.643 157.795 203.753 157.986 204.356 157.384C204.63 157.137 204.766 157.137 204.849 157.384C204.903 157.575 205.15 157.63 205.369 157.548C205.945 157.329 205.835 158.096 205.205 158.644C204.739 159.027 204.712 159.192 204.986 159.658C205.177 159.959 205.479 160.205 205.643 160.205C205.835 160.205 206.027 160.397 206.136 160.616C206.383 161.301 206.794 161.082 207.123 160.068C207.287 159.548 207.561 159.11 207.698 159.11C207.862 159.11 207.89 159.219 207.807 159.384C207.616 159.685 208.465 159.74 209.15 159.493C209.807 159.247 209.67 158.425 208.903 158.014C208.355 157.712 208.218 157.438 208.218 156.589C208.218 155.74 208.136 155.548 207.67 155.548C207.369 155.548 207.123 155.658 207.123 155.822C207.123 155.959 206.903 156.096 206.602 156.096C206.218 156.096 206.136 155.932 206.246 155.411C206.355 154.836 206.246 154.726 205.725 154.726C205.369 154.699 204.766 154.534 204.383 154.315C203.561 153.85 203.287 153.822 203.287 154.151ZM207.588 156.699C207.506 156.918 207.424 156.836 207.424 156.534C207.397 156.233 207.479 156.069 207.561 156.178C207.643 156.26 207.67 156.507 207.588 156.699ZM207.397 158.699C207.397 158.836 207.26 158.781 207.123 158.562C206.986 158.343 206.849 158.014 206.849 157.877C206.849 157.712 206.986 157.795 207.123 158.014C207.26 158.233 207.397 158.534 207.397 158.699ZM207.862 158.616C207.78 158.836 207.698 158.753 207.698 158.452C207.67 158.151 207.753 157.986 207.835 158.096C207.917 158.178 207.944 158.425 207.862 158.616ZM206.766 159.164C206.684 159.384 206.602 159.301 206.602 159C206.575 158.699 206.657 158.534 206.739 158.644C206.821 158.726 206.849 158.973 206.766 159.164Z" fill=""></path>
    <path d="M198.191 156.096C198.082 156.617 197.78 157.384 197.479 157.795C197.178 158.233 197.041 158.699 197.123 158.836C197.232 159 197.205 159.083 197.068 159.055C196.739 158.946 194.602 161.137 194.383 161.822C194.274 162.178 194.328 162.589 194.493 162.754C194.712 162.973 194.794 162.973 194.794 162.754C194.794 162.617 195.424 161.85 196.164 161.082C196.931 160.315 197.534 159.576 197.534 159.411C197.534 158.973 198.712 157.822 199.287 157.713C200.027 157.576 200.136 157.028 199.451 156.836C199.068 156.754 198.904 156.48 198.904 155.959C198.904 155.548 199.013 155.302 199.177 155.411C199.342 155.494 199.451 155.466 199.451 155.302C199.451 155.165 199.205 155.055 198.904 155.083C198.52 155.11 198.301 155.384 198.191 156.096Z" fill=""></path>
    <path d="M116.277 159.164C116.168 159.328 116.222 159.548 116.387 159.602C116.578 159.657 116.715 159.931 116.715 160.233C116.715 160.561 116.578 160.671 116.304 160.589C116.085 160.479 115.894 160.561 115.894 160.726C115.894 160.89 116.031 161.027 116.168 161.027C116.524 161.027 116.524 162.205 116.195 162.534C115.976 162.78 116.469 166.534 116.852 167.547C117.099 168.177 118.167 168.397 119.044 167.958C120.469 167.246 120.825 166.78 120.825 165.602C120.825 164.479 119.729 161.876 119.017 161.274C118.798 161.109 118.633 160.808 118.633 160.643C118.633 160.233 117.209 158.835 116.798 158.835C116.606 158.835 116.387 158.972 116.277 159.164Z" fill=""></path>
    <path d="M194.055 164.808C193.918 164.917 193.616 165.465 193.397 166.013C193.205 166.588 192.932 167.054 192.795 167.054C192.685 167.054 192.438 167.41 192.301 167.849C192.137 168.287 191.699 168.862 191.343 169.109C190.795 169.465 190.712 169.629 190.986 169.958C191.233 170.287 191.178 170.342 190.575 170.342C190.165 170.342 189.644 170.533 189.425 170.753C189.178 170.972 188.767 171.163 188.466 171.163C188.11 171.163 187.945 171.355 187.945 171.739C187.945 172.068 187.452 172.917 186.85 173.629C185.946 174.725 185.562 174.972 184.521 175.109C183.863 175.218 183.233 175.41 183.151 175.574C183.042 175.711 182.85 175.766 182.713 175.684C182.494 175.547 182.329 176.561 182.439 177.273C182.466 177.382 182.357 177.739 182.192 178.04C181.946 178.478 181.809 178.533 181.288 178.232C180.959 178.04 180.466 177.93 180.192 177.985C179.946 178.012 179.644 177.848 179.562 177.629C179.316 177.026 178.549 177.519 178.028 178.588C177.562 179.492 177.59 180.506 178.028 182.862C178.412 184.807 178.768 185.382 179.453 185.218C179.918 185.081 180.001 185.19 179.973 185.985C179.973 186.505 180.055 187.492 180.138 188.204C180.357 189.574 180.329 189.546 182.411 189.519C183.37 189.519 183.562 189.601 183.562 190.039C183.562 190.669 184 191.026 184.247 190.615C184.357 190.45 184.631 190.395 184.904 190.478C185.178 190.56 185.644 190.368 185.973 190.067C186.302 189.738 186.576 189.628 186.576 189.793C186.576 189.93 186.767 190.067 186.987 190.067C187.206 190.067 187.398 190.204 187.398 190.368C187.398 190.56 187.644 190.615 187.973 190.532C188.877 190.286 189.315 190.615 189.315 191.464C189.315 192.423 189.48 192.45 190.986 191.574L192.192 190.916L192.521 191.519C192.822 192.121 192.849 192.121 193.151 191.327C193.315 190.889 193.37 190.313 193.288 190.039C193.178 189.765 193.342 189.08 193.589 188.505C193.918 187.848 193.973 187.464 193.781 187.409C193.26 187.218 193.726 186.122 194.712 185.19C195.233 184.725 195.753 184.314 195.918 184.314C196.055 184.314 196.109 183.711 196 182.862C195.808 181.026 196.246 180.341 197.616 180.423C199.096 180.533 199.178 179.985 197.835 178.807C196.904 178.012 196.685 177.684 196.849 177.218C196.959 176.834 196.822 176.369 196.466 175.848C195.972 175.163 195.918 174.944 196.219 174.314C196.438 173.794 196.438 173.52 196.219 173.3C195.835 172.917 196.356 172.369 197.37 172.095C198.356 171.848 198.52 171.492 197.671 171.273C196.849 171.081 196.767 170.616 197.561 170.616C198.246 170.616 199.178 170.15 199.178 169.766C199.178 169.629 198.904 169.383 198.575 169.246C197.781 168.89 196.904 168.342 196.685 168.068C196.603 167.958 196.356 167.876 196.137 167.931C195.89 167.986 195.781 167.821 195.835 167.465C195.863 167.136 195.616 166.643 195.205 166.287C194.849 165.958 194.603 165.52 194.685 165.301C194.849 164.835 194.493 164.534 194.055 164.808Z" fill=""></path>
    <path d="M148.906 168.972C148.358 169.849 149.207 171.054 152.413 174.068C153.344 174.945 153.974 175.794 153.974 176.177C153.974 176.369 154.522 176.917 155.207 177.41C155.892 177.876 156.413 178.369 156.385 178.479C156.248 179.054 157.317 181.821 157.755 181.985C158.522 182.232 160.549 185.876 160.714 187.245C160.769 187.903 161.59 189.108 162.823 190.341C163.234 190.752 163.563 191.19 163.563 191.327C163.563 191.437 164.659 192.615 166.001 193.93C168.412 196.313 168.467 196.341 169.316 196.039C170.001 195.82 170.275 195.82 170.576 196.149C170.905 196.478 170.932 196.697 170.658 197.272C170.302 198.039 169.864 198.259 169.864 197.683C169.864 197.272 169.508 197.656 169.426 198.149C169.371 198.45 169.645 198.56 170.412 198.56C171.343 198.56 172.33 199.163 172.11 199.628C172.083 199.711 172.494 199.875 173.069 200.012C173.645 200.121 174.357 200.313 174.658 200.45C175.617 200.889 176.11 200.998 176.275 200.806C176.603 200.478 178.74 200.806 179.754 201.3C180.795 201.847 184.904 202.478 185.617 202.231C185.836 202.121 186.028 202.204 186.028 202.395C186.028 202.56 186.192 202.669 186.384 202.587C186.548 202.532 187.096 202.642 187.589 202.861C188.795 203.354 189.096 203.327 188.904 202.697C188.767 202.258 188.849 202.204 189.315 202.313C189.644 202.395 189.863 202.697 189.863 203.053C189.89 203.628 189.89 203.628 190.274 203.108C190.493 202.806 190.685 202.697 190.685 202.888C190.685 203.053 191.151 203.272 191.726 203.354C192.274 203.464 193.014 203.628 193.315 203.765C193.699 203.902 194.411 203.875 195.233 203.628C195.972 203.436 196.411 203.245 196.192 203.245C195.972 203.217 195.89 203.135 195.972 203.053C196.082 202.943 196.301 202.971 196.493 203.135C197.041 203.546 198 203.491 198.383 203.053C198.63 202.752 198.794 202.752 199.068 202.971C199.698 203.491 203.534 203.519 205.205 203.025C206.027 202.779 206.876 202.615 207.068 202.642C207.287 202.669 207.588 202.587 207.78 202.423C207.944 202.286 208.273 202.258 208.465 202.368C208.821 202.587 210.574 202.341 210.876 202.012C211.314 201.573 210.602 201.491 208.081 201.656C207.342 201.71 206.629 201.601 206.492 201.464C206.355 201.272 206.082 201.436 205.725 201.93C205.424 202.341 205.04 202.587 204.876 202.505C204.52 202.286 202.931 202.067 201.287 202.012C200.383 202.012 199.89 202.121 199.726 202.395C199.534 202.697 199.452 202.724 199.452 202.45C199.452 202.204 199.26 202.149 198.931 202.258C198.63 202.341 198.328 202.286 198.219 202.121C198.137 201.984 198.191 201.847 198.356 201.847C198.52 201.847 198.575 201.71 198.465 201.546C198.328 201.327 198.246 201.327 198.109 201.546C197.89 201.875 196.876 201.82 196.548 201.491C196.192 201.135 195.041 201.3 194.877 201.738C194.794 201.957 194.575 202.094 194.356 202.012C194.164 201.93 193.972 202.012 193.89 202.204C193.835 202.423 193.644 202.368 193.315 202.039C192.712 201.436 192.274 201.546 191.918 202.341C191.781 202.669 191.507 202.943 191.315 202.943C190.877 202.943 190.849 202.505 191.26 202.258C191.671 201.984 190.493 201.217 190 201.409C189.425 201.628 188.767 201.327 188.767 200.861C188.767 200.45 188.712 200.423 186.85 200.368C185.945 200.341 185.617 200.231 185.535 199.875C185.48 199.519 185.589 199.437 186 199.519C186.767 199.656 188.274 199.135 188.137 198.752C188.082 198.587 187.288 198.505 186.11 198.533C184.795 198.587 183.891 198.45 183.343 198.176C182.904 197.957 182.466 197.848 182.357 197.93C182.274 198.039 182.028 197.875 181.809 197.601C181.452 197.108 181.425 197.135 180.987 197.82C180.631 198.341 180.329 198.505 179.781 198.423C179.37 198.396 178.549 198.341 177.946 198.313C177.097 198.286 176.768 198.149 176.576 197.683C176.412 197.354 176.028 197.053 175.672 196.998C175.316 196.944 174.658 196.724 174.165 196.478C173.645 196.176 173.288 196.122 173.206 196.313C173.152 196.505 172.823 196.505 172.275 196.341C171.809 196.231 171.316 196.176 171.179 196.259C171.042 196.368 170.987 196.039 171.097 195.492C171.179 194.998 171.289 193.656 171.371 192.533C171.508 189.738 171.7 189.19 172.357 189.547C172.96 189.848 173.973 189.437 173.973 188.889C173.973 188.67 173.891 188.67 173.727 188.944C173.562 189.19 173.425 189.218 173.316 188.999C173.206 188.834 173.179 188.588 173.261 188.451C173.343 188.314 173.179 188.149 172.878 188.067C172.33 187.93 172.22 187.766 171.946 186.423C171.727 185.519 171.206 185.492 170.302 186.314C169.563 186.999 169.617 187.328 170.467 187.328C170.741 187.328 170.96 187.465 170.96 187.629C170.96 187.821 170.713 187.875 170.357 187.766C170.001 187.684 169.645 187.602 169.535 187.602C169.398 187.602 169.316 187.465 169.316 187.3C169.316 187.136 169.124 186.834 168.905 186.615C168.686 186.369 168.494 185.821 168.494 185.382C168.494 184.725 168.385 184.588 167.864 184.588C167.508 184.588 166.987 184.424 166.713 184.204C166.248 183.876 166.22 183.766 166.576 183.355C167.124 182.698 167.207 181.711 166.741 181.328C166.522 181.136 166.412 180.78 166.494 180.561C166.631 180.232 166.549 180.15 166.22 180.287C165.919 180.396 165.755 180.314 165.755 180.068C165.755 179.848 165.453 179.602 165.07 179.492C164.686 179.41 164.385 179.164 164.385 178.944C164.385 178.588 164.248 178.506 163.289 178.451C163.07 178.424 162.878 178.177 162.878 177.876C162.878 177.547 162.659 177.301 162.33 177.246C162.029 177.191 161.645 177.027 161.481 176.89C161.344 176.78 160.96 176.725 160.632 176.807C160.221 176.917 160.001 176.807 159.864 176.397C159.782 176.068 159.563 175.821 159.426 175.821C159.289 175.821 159.18 175.684 159.18 175.52C159.18 175.164 158.769 174.753 157.536 173.903C157.015 173.547 156.413 173.082 156.221 172.89C156.029 172.698 155.728 172.534 155.591 172.534C155.454 172.534 155.344 172.342 155.344 172.123C155.344 171.876 155.207 171.547 155.07 171.356C154.906 171.164 154.55 170.726 154.248 170.369C153.81 169.849 153.454 169.739 152.358 169.739C151.399 169.739 150.796 169.575 150.385 169.219C149.728 168.643 149.153 168.561 148.906 168.972ZM196.164 202.56C196.164 202.615 195.972 202.669 195.753 202.669C195.534 202.669 195.342 202.56 195.342 202.395C195.342 202.258 195.534 202.204 195.753 202.286C195.972 202.395 196.164 202.505 196.164 202.56Z" fill=""></path>
    <path d="M101.648 173.054C101.648 173.519 101.758 173.93 101.922 174.04C102.059 174.122 102.114 174.369 102.031 174.56C101.949 174.78 102.004 175.026 102.168 175.136C102.333 175.218 102.47 175.465 102.47 175.629C102.47 175.821 102.36 175.793 102.168 175.547C101.922 175.218 101.895 175.218 102.031 175.629C102.114 175.903 102.196 176.369 102.196 176.67C102.196 177.3 102.826 177.355 103.292 176.752C103.593 176.396 103.566 176.314 103.073 176.177C102.744 176.095 102.552 175.903 102.634 175.766C102.908 175.328 102.47 173.602 102.141 173.793C101.949 173.93 101.895 173.684 101.977 173.108C102.031 172.643 102.004 172.259 101.867 172.259C101.758 172.259 101.648 172.615 101.648 173.054ZM103.018 176.643C103.018 176.78 102.908 176.917 102.744 176.917C102.607 176.917 102.47 176.78 102.47 176.643C102.47 176.478 102.607 176.369 102.744 176.369C102.908 176.369 103.018 176.478 103.018 176.643Z" fill=""></path>
    <path d="M216.985 177.629C216.766 178.012 216.601 178.807 216.574 179.41C216.574 179.985 216.464 180.478 216.3 180.478C216.163 180.478 216.218 180.615 216.437 180.779C216.711 180.971 216.738 181.108 216.547 181.19C216.355 181.272 216.3 181.601 216.382 181.903C216.519 182.478 216.547 182.478 216.738 181.957C216.903 181.519 216.958 181.574 216.958 182.231C216.985 182.889 216.903 182.971 216.437 182.861C215.779 182.697 215.506 183.026 215.752 183.738C215.944 184.423 217.533 184.697 217.533 184.067C217.56 183.711 217.588 183.711 217.834 184.122C218.382 185.053 218.546 184.313 218.053 183.272C217.341 181.848 217.56 181.245 218.656 181.629C219.752 182.012 219.889 181.793 219.067 180.999C218.41 180.368 218.41 180.341 218.93 179.985C219.423 179.629 219.67 178.286 219.231 178.286C219.122 178.286 218.738 178.478 218.41 178.725C217.807 179.136 217.807 179.108 217.807 178.04C217.807 176.752 217.505 176.615 216.985 177.629Z" fill=""></path>
    <path d="M210.301 179.109C209.67 179.766 209.068 180.177 208.794 180.095C208.547 180.013 207.397 179.876 206.246 179.766C205.068 179.684 204.109 179.492 204.109 179.383C204.109 179.109 203.123 178.862 202.821 179.081C202.684 179.164 202.493 179.465 202.383 179.739C202.273 180.013 202.054 180.15 201.917 180.068C201.534 179.821 200.548 180.944 200.548 181.629C200.548 181.903 200.438 182.122 200.328 182.122C200.191 182.122 200.137 182.478 200.219 182.917C200.274 183.383 200.137 183.985 199.89 184.369C199.643 184.698 199.452 185.382 199.452 185.848C199.452 186.78 198.739 188.423 198.328 188.423C198.191 188.423 198.109 188.752 198.191 189.163C198.246 189.601 198.328 190.122 198.328 190.369C198.356 190.67 198.548 190.779 198.986 190.697C199.534 190.588 199.616 190.697 199.671 191.601C199.726 192.177 199.616 193.245 199.424 193.985C199.041 195.574 199.26 195.875 200.575 195.656C201.452 195.492 201.534 195.409 201.561 194.505C201.616 190.204 201.78 188.971 202.273 188.807C203.013 188.56 203.178 188.889 202.794 189.848C202.493 190.642 202.547 190.779 203.26 191.41C203.835 191.958 203.972 192.259 203.835 192.67C203.616 193.245 203.972 193.903 204.493 193.903C204.657 193.903 205.013 193.656 205.287 193.355C205.534 193.053 205.89 192.807 206.054 192.807C206.273 192.807 206.246 192.971 205.972 193.273C205.287 194.067 205.205 194.916 205.78 195.437C206.273 195.875 206.328 195.875 206.849 195.409C207.177 195.108 207.342 194.725 207.26 194.423C207.177 194.177 207.205 193.875 207.314 193.82C207.424 193.738 207.534 193.218 207.534 192.615C207.506 191.766 207.424 191.601 207.013 191.656C206.41 191.766 205.78 190.971 205.945 190.314C206.027 190.04 205.698 189.191 205.232 188.396C204.547 187.3 204.438 186.917 204.684 186.615C204.849 186.396 205.177 186.232 205.369 186.232C205.561 186.232 206.027 185.848 206.355 185.382C206.821 184.752 207.123 184.588 207.588 184.725C208.081 184.835 208.218 184.752 208.218 184.314C208.218 183.574 207.534 183.328 206.684 183.766C206.328 183.958 205.588 184.15 205.04 184.15C204.356 184.177 203.89 184.396 203.534 184.835C203.041 185.437 202.191 185.465 202.191 184.862C202.191 184.725 201.945 184.341 201.616 184.013C201.178 183.574 201.068 183.246 201.205 182.588C201.479 181.191 201.726 181.109 205.205 181.355C209.862 181.657 210.684 181.629 210.684 180.999C210.684 180.835 210.985 180.314 211.369 179.821C211.78 179.273 211.999 178.725 211.889 178.451C211.643 177.821 211.506 177.876 210.301 179.109Z" fill=""></path>
    <path d="M218.766 188.916C218.327 188.971 217.861 189.163 217.752 189.327C217.587 189.574 217.533 189.574 217.533 189.327C217.533 189.081 217.341 189.136 216.985 189.437C216.327 189.985 216.272 190.478 216.848 190.231C217.149 190.122 217.259 190.259 217.259 190.725C217.259 191.355 217.314 191.382 218.218 191.081C218.738 190.916 219.176 190.615 219.176 190.423C219.176 190.122 219.286 190.122 219.724 190.341C220.053 190.505 220.519 190.56 220.793 190.478C221.094 190.396 221.724 190.56 222.245 190.889C223.395 191.601 223.56 191.574 223.56 190.807C223.56 189.409 221.505 188.615 218.766 188.916Z" fill=""></path>
    <path d="M214.492 201.957C214.437 202.012 213.643 202.149 212.739 202.258C211.588 202.368 210.958 202.587 210.684 202.943C210.465 203.244 209.698 203.71 208.986 204.039C208.191 204.395 207.643 204.833 207.506 205.217C207.424 205.546 207.15 206.011 206.931 206.285C206.63 206.614 206.63 206.778 206.849 206.915C207.424 207.272 209.232 206.45 210.218 205.436C210.766 204.861 211.698 204.258 212.383 204.039C213.917 203.546 215.67 202.45 215.478 202.121C215.314 201.847 214.711 201.765 214.492 201.957Z" fill=""></path>
</svg>