<svg class="h-[50px]" viewBox="0 0 185 220" xmlns="http://www.w3.org/2000/svg">
    <path d="M70.8745 1.19002C69.6804 1.85733 67.9244 1.92757 67.0463 1.36563C66.8356 1.22514 66.5195 1.33051 66.379 1.54124C66.2034 1.85733 65.8873 1.85733 65.1498 1.50611C64.3771 1.1549 64.1313 1.1549 63.9908 1.50611C63.9205 1.71684 63.6045 1.92757 63.2532 1.92757C62.9372 1.92757 62.4455 2.1383 62.2347 2.34902C61.8835 2.70023 61.6377 2.70023 61.1109 2.34902C60.1626 1.78708 59.1792 1.8222 54.4378 2.59487C50.4691 3.26217 48.116 4.06996 48.116 4.8075C48.116 4.98311 47.8702 5.08847 47.5892 4.98311C47.3082 4.84263 46.9921 4.91287 46.8868 5.08847C46.7463 5.2992 46.4302 5.43969 46.1492 5.43969C45.8683 5.43969 45.2361 5.82602 44.7444 6.31772C44.2527 6.80941 43.6907 7.19575 43.4449 7.23087C42.5669 7.30111 41.2674 7.1255 40.9864 6.87965C40.8459 6.73917 39.8274 6.73917 38.7035 6.87965C36.4909 7.19575 35.1914 6.66893 34.8753 5.40456C34.6646 4.70214 34.1729 4.56166 33.5056 5.01823C33.2949 5.15872 32.7329 6.14211 32.2764 7.19575C31.0822 10.0406 30.2745 10.9888 28.0969 12.0073C25.9897 13.0259 23.8824 14.8873 23.8824 15.7653C23.8824 16.0814 23.5312 16.8541 23.1097 17.416C22.4776 18.2589 22.3019 18.9613 22.3019 20.7174C22.3019 22.052 22.1263 23.1408 21.8805 23.3866C21.6346 23.6325 21.4239 24.0188 21.4239 24.2295C21.4239 24.4051 20.862 25.0724 20.1596 25.6344C19.4571 26.2314 18.5791 26.969 18.1928 27.3202C17.385 28.0577 15.3831 28.9709 14.5753 28.9709C13.8026 28.9709 13.3109 29.5328 12.3978 31.4996C11.9412 32.4479 11.4495 33.1854 11.309 33.1854C10.3607 33.1854 8.42908 36.0654 8.42908 37.5053C8.42908 38.3482 7.51593 39.7531 6.11109 41.0877C5.68963 41.474 4.98721 42.7384 4.53063 43.8974C4.10918 45.0564 3.477 46.2154 3.12579 46.4261C2.80969 46.672 2.42336 47.4446 2.28288 48.1822C2.17751 48.9197 1.96679 49.9031 1.86142 50.3597C1.72094 50.9567 1.79118 51.1323 2.14239 51.027C2.38824 50.9567 2.9853 51.2728 3.40675 51.7294C4.21454 52.6074 4.46039 53.5557 3.89845 53.5557C3.30139 53.5557 3.12579 55.3118 3.68772 56.1195C4.42527 57.1732 4.35503 60.1936 3.51212 62.336C3.12579 63.3194 2.80969 64.5135 2.80969 65.0403C2.80969 66.094 1.08876 69.009 0.456575 69.009C0.210727 69.009 0 69.1495 0 69.3602C0 69.5358 0.245848 69.7114 0.526818 69.7114C0.842908 69.7114 1.22924 70.1329 1.43997 70.6597C1.6507 71.2217 1.96679 71.9241 2.14239 72.2402C2.318 72.5914 2.318 72.9075 2.10727 73.048C1.89654 73.1533 1.75606 73.9962 1.75606 74.9094C1.79118 76.2791 1.96679 76.7357 2.80969 77.5786C3.96869 78.7025 4.17942 79.2995 3.30139 78.9483C2.84482 78.7727 2.77457 78.8781 2.9853 79.5805C3.37163 80.8097 3.61748 80.9502 4.39015 80.3532C4.88184 79.9668 4.95209 79.7561 4.67112 79.6507C4.1443 79.4751 4.03894 78.4917 4.53063 78.4917C4.70624 78.4917 5.02233 78.9483 5.23306 79.5454C5.40866 80.1073 5.75987 80.599 5.93548 80.599C6.14621 80.599 6.32181 80.8449 6.32181 81.1258C6.32181 81.4068 6.56766 81.6526 6.84863 81.6526C7.1296 81.6526 7.37545 81.758 7.37545 81.9336C7.37545 82.0741 8.18323 83.0224 9.13151 84.076C10.2554 85.3052 10.8876 86.2886 10.9227 86.8857C10.9578 88.3608 11.1685 89.1335 11.6251 89.3793C11.8358 89.5198 11.9061 89.8359 11.8007 90.0466C11.6602 90.2573 11.6954 90.4329 11.9061 90.4329C12.1168 90.4329 12.187 90.6437 12.1168 90.8544C12.0114 91.1354 12.5383 91.5568 13.4163 91.9432C14.8914 92.5402 16.1206 93.5236 20.3352 97.3167C24.5848 101.145 25.6385 101.461 28.8345 99.9157C32.2061 98.3001 37.5094 98.1596 40.4596 99.5996C40.8459 99.7752 41.443 99.7049 42.0401 99.3888C45.2712 97.7733 47.6946 96.7548 48.397 96.7548C48.8184 96.7548 49.275 96.5089 49.3804 96.2631C49.6262 95.5958 52.471 94.9987 55.7373 94.9285C57.8095 94.8582 58.3714 94.9636 59.0036 95.5255C59.8816 96.3333 61.1109 98.5811 61.1109 99.3537C61.1109 99.6347 61.4621 100.232 61.9186 100.618C62.5157 101.215 62.9723 101.321 63.9205 101.145C64.5879 101.04 65.782 100.864 66.5546 100.794C67.3273 100.688 68.4512 100.583 69.0834 100.513C69.9965 100.372 70.2424 100.513 70.3828 101.18C70.4882 101.601 70.9097 102.093 71.296 102.199C71.6823 102.304 71.9984 102.62 71.9984 102.866C71.9984 103.147 72.2091 103.533 72.4901 103.744C73.1574 104.306 72.8413 107.713 71.9633 109.469C71.5067 110.347 71.4365 110.803 71.7174 110.873C71.9633 110.979 72.0335 111.26 71.8228 111.716C71.6823 112.068 71.4716 113.086 71.4014 113.964C71.2258 115.474 70.7692 116.212 70.1721 115.861C69.7155 115.58 69.856 116.563 70.3828 117.687C70.6638 118.249 71.1555 119.338 71.5067 120.11C71.8579 120.883 72.736 122.077 73.4033 122.744C75.8969 125.168 79.0227 129.804 79.0227 131.103C79.0227 131.525 79.1983 131.946 79.3739 132.052C79.5846 132.192 79.6548 132.403 79.5495 132.578C79.4441 132.754 79.7251 133.737 80.2168 134.756C80.6734 135.774 81.3407 137.46 81.727 138.479C82.3592 140.305 82.3592 140.375 81.6919 140.832C81.0597 141.324 81.0597 141.429 82.1836 144.239C82.9562 146.205 83.3074 147.68 83.2723 148.734C83.2021 150.56 82.6401 152.246 82.0431 152.246C81.3758 152.281 79.7602 155.196 79.5144 156.847C79.2334 158.954 78.3202 162.08 78.0393 162.08C77.5827 162.08 77.7934 168.542 78.2851 169.701C78.531 170.334 78.8822 170.86 78.9875 170.86C79.3387 170.86 80.849 173.986 82.3592 177.709C82.6753 178.482 83.3426 179.816 83.8694 180.694C84.6069 181.959 84.8176 182.767 84.8528 184.733C84.8879 186.068 85.0635 187.964 85.2742 188.948C85.485 189.896 85.9064 192.109 86.2225 193.83C86.8898 197.447 87.3815 198.571 89.2078 200.573C90.0507 201.486 90.7883 202.856 91.3151 204.436C92.158 207.035 93.317 209.564 93.8087 209.88C93.9843 209.985 94.2301 210.793 94.3355 211.706C94.5462 213.076 94.476 213.357 94.0194 213.357C93.7384 213.357 93.4223 213.568 93.317 213.779C93.1765 214.27 93.7384 215.464 94.2652 215.851C94.4409 215.991 94.5111 216.483 94.4057 216.975C94.1599 218.169 94.6867 219.012 95.1784 218.274C95.3891 217.923 95.5296 217.888 95.5296 218.169C95.5296 218.415 95.7403 218.625 95.9862 218.625C96.2672 218.625 96.7589 218.941 97.1101 219.328C97.8827 220.206 98.5852 220.206 99.4632 219.433C99.8846 219.047 100.657 218.836 101.57 218.871C102.378 218.906 103.362 218.695 103.853 218.379C104.872 217.712 107.401 217.536 109.332 217.993C110.245 218.204 110.842 218.204 111.159 217.923C111.44 217.712 112.001 217.572 112.458 217.642C112.915 217.712 113.231 217.572 113.196 217.361C113.16 217.115 113.793 216.869 114.636 216.799C116.497 216.588 120.044 214.27 122.046 212.022C122.432 211.566 123.346 210.618 124.118 209.915C125.418 208.651 127.841 205.209 127.841 204.612C127.841 204.155 130.194 201.767 130.651 201.767C131.037 201.767 131.669 200.468 132.547 197.728C133.18 195.761 133.32 193.162 132.758 193.514C132.126 193.9 132.407 193.057 133.215 192.109C133.636 191.617 135.111 190.774 136.446 190.212C138.237 189.51 139.115 188.913 139.712 188.07C140.204 187.332 140.379 186.77 140.169 186.56C139.958 186.349 139.958 185.892 140.204 185.295C140.66 184.171 140.59 181.362 140.134 180.905C139.923 180.694 139.782 180.378 139.782 180.203C139.782 179.992 139.958 180.062 140.134 180.343C140.414 180.765 140.485 180.73 140.485 180.062C140.485 179.641 140.309 179.325 140.063 179.36C139.817 179.43 139.642 178.973 139.607 178.236C139.572 177.569 139.361 176.972 139.115 176.901C138.904 176.831 138.729 176.41 138.729 175.988C138.729 175.075 141.89 171.563 142.732 171.563C143.049 171.563 143.294 171.422 143.294 171.282C143.294 171.141 143.575 170.615 143.927 170.158C145.191 168.437 146.49 167.419 148.457 166.611C149.581 166.189 150.564 165.698 150.67 165.592C150.775 165.452 151.091 165.206 151.407 165.03C152.321 164.539 154.674 161.343 155.165 159.903C155.517 158.884 155.517 158.252 155.236 157.093C154.99 156.25 154.849 153.616 154.884 151.017C154.99 145.152 155.025 145.398 154.077 144.976C153.409 144.66 153.093 144.063 152.672 142.166C151.899 139.111 151.934 138.654 152.777 138.444C153.163 138.338 153.48 138.057 153.48 137.847C153.48 137.601 153.234 137.495 152.953 137.636C152.25 137.882 151.829 136.898 152.321 136.126C152.602 135.669 152.461 135.248 151.688 134.299C151.126 133.667 150.67 132.859 150.67 132.578C150.67 131.841 151.829 128.575 152.18 128.329C152.531 128.083 154.147 124.36 154.428 123.166C154.533 122.744 154.955 122.218 155.341 122.007C156.43 121.41 158.256 119.443 158.958 118.144C160.469 115.158 165.21 110.066 168.09 108.239C169.987 107.045 175.571 100.934 175.606 100.021C175.606 99.8805 176.168 98.862 176.835 97.8084C177.502 96.7548 178.064 95.6309 178.064 95.2797C178.064 94.5772 180.207 89.9764 180.628 89.8008C180.769 89.7305 180.874 89.5198 180.874 89.3091C180.874 89.1335 181.26 88.1852 181.752 87.2018C182.244 86.2535 182.63 84.9189 182.63 84.2165C182.63 83.3033 182.806 82.9521 183.333 82.8116C184.07 82.6009 184.281 82.1443 183.684 81.9336C183.368 81.8283 183.192 79.9668 183.403 78.7025C183.578 77.7191 182.103 77.2976 181.331 78.1054C180.558 78.8781 177.538 79.9317 176.8 79.6507C176.519 79.5454 175.887 79.6507 175.43 79.8966C174.974 80.1424 174.236 80.2478 173.815 80.1424C173.358 80.002 172.691 80.2127 172.094 80.6693C171.391 81.161 170.759 81.3366 169.951 81.2312C169.179 81.1258 168.406 81.2663 167.704 81.6878C165.877 82.8116 164.543 82.3551 163.138 80.1424C162.787 79.6156 162.154 79.0888 161.663 78.9834L160.82 78.7727L161.628 78.3513C162.962 77.684 162.822 76.6654 161.136 74.9094C160.293 74.0314 159.38 72.9777 159.099 72.5563C158.818 72.1699 158.432 71.8187 158.221 71.8187C158.045 71.8187 157.589 71.327 157.273 70.7651C156.921 70.168 156.395 69.6061 156.043 69.4656C155.692 69.3251 155.2 69.009 154.955 68.7632C154.709 68.5524 154.287 68.412 154.041 68.5173C153.725 68.6227 153.515 68.3768 153.409 67.8149C153.269 67.1827 153.374 66.9018 153.725 66.9018C154.147 66.9018 154.147 66.8315 153.69 66.3749C153.023 65.6725 152.882 65.7076 152.637 66.6208C152.426 67.4286 152.391 67.4286 151.899 66.7261C151.583 66.3398 151.197 65.3915 151.021 64.6189C150.038 60.5799 149.546 59.5614 147.825 58.2268C145.858 56.6815 145.367 55.5576 145.261 52.1509C145.191 50.8163 144.945 49.4816 144.734 49.2007C144.489 48.8846 144.243 48.2524 144.208 47.7607C144.208 47.269 144.102 46.8827 143.997 46.8827C143.891 46.8827 143.154 46.2856 142.311 45.5481C140.66 44.073 139.677 41.6145 140.766 41.6145C141.152 41.6145 141.047 41.3687 140.379 40.7716C139.888 40.315 139.045 39.0155 138.448 37.8917C137.886 36.7327 137.078 35.2224 136.657 34.4849C136.27 33.7474 135.919 32.9747 135.919 32.7288C135.919 32.483 135.638 31.8859 135.322 31.4294C134.971 30.9377 134.655 30.2704 134.619 29.9191C134.549 29.5328 133.952 28.6197 133.285 27.8119C132.618 27.0392 132.056 26.0207 132.056 25.5992C132.056 25.1427 131.915 24.7212 131.74 24.5807C131.529 24.4754 131.283 23.2812 131.142 21.9466C131.037 20.612 130.721 19.2423 130.475 18.8911C129.562 17.6619 125.383 18.0833 123.837 19.5584C123.416 19.9447 122.819 20.1555 122.397 20.0501C122.011 19.9799 120.992 19.6989 120.114 19.5233C119.236 19.3126 118.218 18.9965 117.832 18.8209C116.567 18.2589 114.214 17.8023 113.336 17.9779C112.669 18.1184 112.388 17.9779 112.212 17.416C112.037 16.8541 111.685 16.6785 110.878 16.6785C108.981 16.6785 107.225 16.0112 107.014 15.2736C106.909 14.8522 106.523 14.5712 106.136 14.5712C105.715 14.5712 105.293 14.3956 105.188 14.22C104.661 13.3771 101.325 14.1497 99.7442 15.4843C98.6554 16.4326 98.3393 18.0131 99.0066 19.1018C99.5685 20.015 98.1637 21.9115 96.8993 21.9466C96.6184 21.9466 95.7403 21.4901 94.9677 20.9632C93.5277 19.9096 91.3151 19.1369 89.8751 19.1369C88.6459 19.1369 87.5571 18.2589 87.2761 16.9946C87.1005 16.2921 86.7142 15.8004 86.1171 15.5546C85.5903 15.3439 84.7123 14.9575 84.1503 14.6414C83.5182 14.3253 82.324 14.1146 81.2704 14.1497C80.1114 14.1849 78.9524 13.939 78.0041 13.5176C76.5993 12.8151 75.651 11.7264 76.1076 11.2698C76.213 11.1644 76.0725 11.0591 75.7564 11.0591C75.4403 11.0591 75.1593 11.1996 75.1593 11.4103C75.1593 12.0073 74.1408 11.7966 73.7545 11.0942C73.4735 10.5323 73.614 10.2513 74.4569 9.51374C75.054 9.02205 75.7564 8.70596 76.0374 8.81132C76.3183 8.9518 76.5642 8.84644 76.5642 8.60059C76.5642 8.38987 76.3886 8.31962 76.213 8.42499C75.9671 8.56547 75.932 8.17914 76.0725 7.26599C76.2481 6.07187 76.1778 5.7909 75.5457 5.47481C74.6676 4.98311 74.5974 4.21044 75.3701 3.43778C75.651 3.12169 75.8266 2.66511 75.7213 2.38414C75.6159 2.10317 75.6861 1.99781 75.8617 2.10317C76.0725 2.20854 76.213 2.17342 76.213 1.99781C76.213 1.33051 75.7213 1.26027 75.0891 1.8222C74.4569 2.38414 74.4218 2.38414 74.2462 1.68172C74.0706 1.08466 73.2277 0.557842 72.3496 0.522721C72.2443 0.522721 71.577 0.838811 70.8745 1.19002ZM137.886 114.596C138.167 114.983 138.202 115.334 137.956 115.615C137.78 115.861 137.71 116.177 137.816 116.352C138.026 116.739 137.289 118.53 136.902 118.53C136.727 118.53 136.621 118.705 136.621 118.916C136.621 119.162 136.34 119.548 136.024 119.794C135.427 120.251 135.427 120.321 136.024 120.778C136.902 121.48 136.376 121.691 134.514 121.34C133.566 121.164 132.758 121.199 132.512 121.375C131.845 121.937 131.669 121.164 131.88 118.635C132.231 114.877 132.266 114.772 133.706 114.315C134.444 114.069 135.181 113.753 135.357 113.613C135.743 113.227 137.324 113.824 137.886 114.596ZM125.734 128.083C125.734 128.61 125.909 129.136 126.12 129.242C126.331 129.382 126.401 129.734 126.296 130.015C126.19 130.295 126.261 130.857 126.471 131.279C126.787 131.841 126.787 132.052 126.471 132.157C125.769 132.403 126.05 133.632 126.928 133.948C127.771 134.299 128.192 135.002 128.192 136.126C128.192 136.512 128.579 137.601 129.07 138.549C130.159 140.691 130.159 140.726 129.07 140.235C128.508 139.989 128.227 139.638 128.368 139.322C128.473 139.076 128.298 138.514 128.017 138.092C127.736 137.671 127.49 137.109 127.49 136.863C127.49 136.582 127.033 135.81 126.436 135.142C125.874 134.51 125.347 133.702 125.312 133.351C125.312 133.035 125.242 132.262 125.172 131.7C125.102 131.103 124.996 129.382 124.926 127.837C124.821 125.308 124.856 125.133 125.242 126.081C125.488 126.643 125.699 127.556 125.734 128.083ZM138.377 144.168C138.588 144.555 138.799 145.608 138.869 146.451C138.904 147.329 139.15 148.242 139.361 148.453C139.888 148.98 139.923 150.385 139.431 150.666C138.939 150.982 139.22 155.864 139.747 156.039C139.958 156.11 140.134 156.32 140.134 156.496C140.134 156.707 139.993 156.742 139.782 156.636C139.607 156.531 139.431 156.601 139.431 156.777C139.431 156.988 139.255 157.163 139.045 157.163C138.834 157.163 138.764 156.847 138.904 156.461C139.045 156.039 138.975 155.548 138.799 155.302C138.448 154.845 137.921 152.141 137.991 151.017C138.237 146.838 138.167 145.643 137.78 144.871C137.535 144.379 137.324 143.887 137.324 143.712C137.324 143.185 138.026 143.501 138.377 144.168Z"></path>
    <path d="M177.362 151.263C177.081 151.719 176.835 152.597 176.765 153.264C176.659 154.74 176.449 154.95 175.606 154.423C175.044 154.072 174.903 154.072 174.903 154.494C174.903 154.775 175.114 155.091 175.36 155.196C175.571 155.301 175.43 155.301 175.009 155.196C174.201 155.021 174.06 155.231 174.166 156.531C174.201 156.847 174.06 157.198 173.85 157.339C173.674 157.444 173.498 157.865 173.498 158.217C173.498 158.673 173.323 158.814 172.972 158.708C172.655 158.568 172.445 158.708 172.445 159.024C172.445 159.727 169.951 161.483 168.055 162.115C167.282 162.361 166.509 162.712 166.334 162.853C166.123 162.993 165.631 163.133 165.175 163.133C164.542 163.133 164.367 163.309 164.367 164.082C164.367 164.644 164.051 165.522 163.7 166.084C162.997 167.137 162.997 167.98 163.7 172.019C164.121 174.372 164.121 174.443 163.102 176.409C162.541 177.498 161.943 178.517 161.803 178.622C160.574 179.5 160.117 182.696 160.995 184.347C161.276 184.909 161.417 185.892 161.311 186.805C161.206 187.718 161.276 188.421 161.522 188.561C161.733 188.702 161.908 189.088 161.908 189.439C161.908 190.212 162.962 191.23 163.77 191.23C164.086 191.23 164.367 191.371 164.367 191.582C164.367 192.108 166.193 191.968 166.966 191.406C167.352 191.125 168.09 190.879 168.617 190.879C169.67 190.879 171.04 189.474 171.04 188.456C171.04 188.14 171.251 187.578 171.532 187.192C171.777 186.805 172.199 185.611 172.445 184.557C172.726 183.504 173.217 182.064 173.533 181.361C173.885 180.659 174.376 179.324 174.587 178.376C174.833 177.428 175.606 175.145 176.343 173.248C177.081 171.387 177.783 169.245 177.889 168.507C178.31 165.978 178.415 165.592 178.872 165.697C179.293 165.768 179.328 165.451 178.907 162.782L178.661 161.202L179.364 162.045L180.066 162.923L180.663 161.799C181.085 160.956 181.155 160.499 180.874 160.008C180.698 159.621 180.523 158.603 180.523 157.76C180.523 156.917 180.347 155.688 180.136 155.021C179.645 153.475 178.275 150.525 178.064 150.49C177.959 150.49 177.643 150.841 177.362 151.263Z"></path>
</svg>