 <svg class="h-[50px]" viewBox="0 0 137 225" xmlns="http://www.w3.org/2000/svg">
    <path d="M29.0086 0.220349C28.3559 0.450743 27.9335 0.873132 27.9335 1.29552C27.9335 1.67951 27.7031 1.9867 27.3959 1.9867C27.1271 1.9867 26.4359 2.33229 25.8983 2.75468C25.3223 3.21547 24.3624 3.52266 23.556 3.52266C22.6728 3.52266 22.0584 3.71466 21.9432 4.09865C21.7896 4.48264 21.4056 4.59783 20.8681 4.44424C19.2937 4.06025 17.1818 7.20896 17.5273 9.35931C17.5273 9.5513 17.3737 9.6665 17.1434 9.6665C16.6442 9.6665 15.6458 10.6265 15.6458 11.0873C15.6458 11.2793 15.1466 11.74 14.4938 12.0856C13.6874 12.5848 13.4571 12.9688 13.6106 13.4296C13.7642 13.7752 13.1115 13.276 12.1515 12.2776C10.6923 10.7417 8.27319 9.28251 7.15962 9.28251C6.96762 9.28251 6.81403 9.7817 6.81403 10.3577C6.81403 11.1257 7.08282 11.6248 7.774 11.9704C8.27319 12.2392 8.81077 12.8152 8.96437 13.1992C9.07957 13.6216 9.34836 13.7752 9.61715 13.6216C9.92435 13.468 9.88595 13.5832 9.57875 13.9672C9.00277 14.6968 9.30996 16.3095 10.1547 17.0391C10.4619 17.3079 10.9227 17.9607 11.1531 18.4983C11.6907 19.7654 11.8827 26.4469 11.4219 26.754C11.1531 26.9076 11.1915 27.2532 11.4603 27.7524C11.8827 28.5972 11.2683 31.1699 10.6155 31.1699C10.4235 31.1699 10.2699 31.4003 10.2699 31.6691C10.2699 31.9379 9.65555 32.3987 8.92597 32.7059C7.966 33.0899 7.58201 33.4739 7.58201 34.0883C7.58201 34.549 7.31321 35.0098 7.00602 35.1634C6.58363 35.317 6.46844 35.6626 6.62203 36.277C6.85243 37.0834 6.66043 37.2754 5.12447 37.8514C3.43492 38.5041 3.35812 38.6193 3.35812 40.0017C3.35812 40.9233 3.16612 41.5377 2.78213 41.6913C2.47494 41.8064 2.20615 42.344 2.20615 42.8432C2.20615 43.4192 1.89896 43.9952 1.43817 44.2256C1.01578 44.456 0.746988 44.8016 0.862185 45.032C1.36137 45.7999 1.39977 48.4495 0.938983 48.4495C0.67019 48.4495 1.05418 48.9487 1.74536 49.563C2.39814 50.1774 2.97413 50.8686 2.97413 51.099C2.97413 51.3294 3.16612 51.5214 3.35812 51.5214C3.58851 51.5214 3.74211 51.3294 3.74211 51.0606C3.74211 50.8302 3.81891 50.715 3.9341 50.8302C4.2413 51.1374 3.70371 52.2894 3.24292 52.2894C3.01253 52.2894 2.16775 53.019 1.32297 53.9021C-0.0209918 55.3997 -0.136189 55.7069 0.0942051 57.0892C0.209402 57.934 0.554993 58.894 0.862185 59.2396C1.51497 59.9308 1.63016 60.7371 1.05418 60.7371C0.0558061 60.7371 0.862185 61.9275 2.35975 62.6955C3.62691 63.3099 4.31809 64.0395 5.12447 65.4986C5.70046 66.5738 6.54523 67.9562 7.00602 68.6089C7.46681 69.2233 8.38839 71.0665 9.11797 72.6408C9.80915 74.2152 10.6923 75.9815 11.1147 76.5575C11.4987 77.0951 11.8059 77.8247 11.8059 78.0935C11.8059 78.4007 12.1515 78.9767 12.5739 79.3607C12.9963 79.7446 13.3419 80.359 13.3419 80.743C13.3419 81.127 13.4955 81.511 13.6874 81.6262C14.4938 82.1254 16.8362 86.1573 16.6442 86.6949C16.2986 87.6164 17.105 89.114 18.9865 90.9955C20.7913 92.8387 26.0135 96.141 28.2407 96.8706C28.8934 97.101 29.4694 97.4082 29.4694 97.5618C29.4694 97.7154 30.0838 98.1762 30.8134 98.5985C31.543 98.9825 32.1574 99.4433 32.1574 99.6353C32.1574 100.019 33.1557 101.056 33.5013 101.056C34.1925 101.056 35.4597 102.822 35.8821 104.435C36.9956 108.582 37.8404 117.568 37.0724 117.568C36.9188 117.568 36.7652 117.99 36.7652 118.528C36.7652 119.065 36.8804 119.488 37.0724 119.488C37.61 119.488 38.0708 135.193 37.5332 136.537C37.3028 137.151 37.3796 137.766 37.802 138.533C38.186 139.34 38.3012 140.223 38.1092 141.605C37.9172 143.103 38.0708 143.948 38.6852 145.369C39.1076 146.367 39.4532 147.519 39.4532 147.941C39.4532 148.325 39.6452 148.671 39.8372 148.671C40.0676 148.671 40.2595 149.4 40.2211 150.284C40.2211 151.205 40.2211 152.28 40.2595 152.703C40.2979 153.509 39.9908 157.963 39.6452 161.15C39.5684 162.187 39.4532 163.493 39.4532 163.992C39.4532 164.645 39.2996 164.837 38.8388 164.645C38.3396 164.453 38.2628 164.606 38.4932 165.451C38.6084 166.066 38.9924 166.795 39.2996 167.141C39.6068 167.448 39.8372 167.986 39.8372 168.254C39.8372 168.523 40.2979 169.521 40.8355 170.481C41.5267 171.672 41.7571 172.478 41.6035 173.246C41.2579 175.013 41.7955 178.123 42.6019 179.006C42.9859 179.428 43.1395 179.774 42.8707 179.774C42.6019 179.774 42.5251 180.158 42.6787 180.926C42.7939 181.54 43.0243 182.654 43.1395 183.307C43.5619 185.572 44.7906 186.263 45.597 184.727C45.9426 184.151 45.9042 183.806 45.5586 183.384C45.3282 183.076 45.2514 182.846 45.405 182.846C45.5586 182.846 45.4818 182.577 45.213 182.27C44.9442 181.963 44.8674 181.694 45.0594 181.694C45.213 181.694 45.1746 181.502 44.9058 181.233C44.253 180.58 44.3298 180.043 45.0594 180.312C45.5202 180.504 45.6354 180.388 45.4434 179.966C45.3282 179.62 45.3666 179.467 45.597 179.582C45.8274 179.697 45.981 180.081 45.981 180.388C45.981 180.696 46.173 180.926 46.4034 180.926C46.5954 180.926 46.7106 181.08 46.5954 181.233C46.4802 181.425 46.557 182.155 46.749 182.884C46.941 183.614 47.1714 185.035 47.325 186.071C47.4402 187.147 47.7473 188.107 47.9777 188.26C48.3233 188.491 48.2465 188.644 47.7089 188.836C47.2866 188.99 46.8258 189.182 46.7106 189.22C46.5954 189.297 46.5186 188.875 46.5954 188.299C46.7106 187.262 46.2498 186.686 45.2898 186.686C44.9826 186.686 44.9058 186.878 45.0978 187.147C45.597 187.991 45.5586 188.606 44.9826 188.606C44.7138 188.606 44.2914 188.951 44.061 189.335C43.6003 190.257 43.5619 190.948 44.0226 190.18C44.5218 189.374 45.981 190.334 45.981 191.486C45.981 192.023 45.789 192.446 45.5586 192.446C45.2898 192.446 45.213 192.868 45.3282 193.598C45.4818 194.327 45.3666 194.903 45.021 195.287C44.7138 195.594 44.5602 196.132 44.6754 196.439C44.9442 197.169 45.8658 197.246 46.0578 196.631C46.173 196.286 46.4418 196.286 47.0562 196.631C47.517 196.9 48.0929 196.977 48.2849 196.862C48.5153 196.746 48.5537 196.9 48.4385 197.207C48.3233 197.553 48.3617 197.822 48.5921 197.822C49.2833 197.822 48.4769 199.895 47.5938 200.356C47.133 200.586 46.8642 200.893 47.0562 201.047C47.2098 201.201 47.325 201.469 47.325 201.585C47.4018 202.353 48.0161 203.581 48.3233 203.581C48.5153 203.581 48.6305 203.697 48.5921 203.85C48.5153 204.388 49.3217 206.077 49.9361 206.615C50.2817 206.884 50.6657 207.613 50.7809 208.228C50.9345 208.842 51.2033 209.38 51.3953 209.38C51.5872 209.418 51.9712 209.456 52.24 209.495C52.4704 209.495 52.816 210.224 52.9312 211.069C53.0464 211.914 53.2 212.413 53.2384 212.221C53.2768 211.991 53.6608 212.413 54.1216 213.104C54.736 214.103 55.12 214.333 55.7727 214.179C56.3103 214.026 56.9247 214.256 57.5391 214.832C58.0383 215.293 58.5759 215.639 58.7295 215.562C58.9215 215.523 59.0366 215.677 59.0366 215.907C59.0366 216.33 58.5375 216.253 56.9247 215.677C56.4255 215.485 56.5791 215.792 57.4623 216.599C58.3839 217.482 58.8447 217.712 59.0366 217.367C59.459 216.752 60.227 217.29 59.9198 218.019C59.8046 218.327 59.843 218.557 60.035 218.519C60.6878 218.365 61.7246 219.018 61.7246 219.555C61.7246 219.901 62.147 220.093 62.8765 220.093C63.7597 220.093 63.9517 219.939 63.7597 219.479C63.6445 219.133 63.2605 218.941 62.8381 219.056C62.4158 219.171 62.1086 219.095 62.1086 218.903C62.1086 218.173 63.6445 218.595 64.0669 219.402C64.3357 219.901 64.4893 220.362 64.4509 220.477C64.4125 220.592 64.6429 220.823 65.0269 221.053C65.4109 221.245 65.9485 221.667 66.2557 221.936C66.9084 222.55 67.4844 222.55 67.4844 221.898C67.4844 221.59 67.5996 221.629 67.8684 222.013C68.0604 222.32 68.3676 222.589 68.5212 222.627C68.6748 222.627 69.3276 222.858 69.9036 223.088C70.5179 223.357 71.1323 223.472 71.3243 223.357C71.5163 223.242 71.7467 223.318 71.9003 223.549C72.0539 223.779 72.3227 223.856 72.5147 223.741C72.7067 223.587 72.8603 223.664 72.8603 223.894C72.8603 224.125 73.6283 224.278 74.5882 224.24C75.5482 224.24 76.585 224.432 76.8922 224.701C77.2378 224.97 77.6218 225.085 77.7754 224.931C77.9289 224.778 77.6986 224.394 77.3146 224.125C76.7002 223.626 76.8538 223.587 78.8121 223.741C80.6169 223.856 80.9625 223.818 80.7705 223.357C80.6553 223.011 80.8089 222.781 81.1545 222.781C81.4617 222.781 81.8072 222.512 81.9224 222.205C82.076 221.898 82.3448 221.629 82.5368 221.629C82.7672 221.629 82.7288 221.859 82.46 222.205C82.076 222.666 82.076 222.781 82.6136 222.781C82.9592 222.781 83.228 222.474 83.228 222.013C83.228 221.398 82.9592 221.245 81.884 221.245C79.8873 221.245 75.7402 219.056 73.4747 216.829C72.3611 215.715 71.5547 214.64 71.6315 214.41C71.7083 214.179 71.2859 213.719 70.7483 213.335C69.4812 212.49 67.4844 209.648 67.4844 208.612C67.4844 208.074 67.7916 207.728 68.4444 207.575C69.5964 207.306 69.942 206.346 69.4044 204.925C68.9436 203.735 69.1356 203.389 71.2091 201.546C71.9387 200.893 72.3611 200.241 72.2075 199.972C72.0539 199.741 71.8619 199.204 71.8235 198.82C71.6315 197.63 70.9403 197.054 69.75 197.054C68.5212 197.054 66.1021 195.748 65.6029 194.788C64.7197 193.214 66.2173 190.91 68.1372 190.91C69.0972 190.91 69.6348 190.334 68.982 189.911C68.6748 189.719 68.7132 189.566 69.0588 189.374C69.4428 189.105 69.4044 188.721 68.9052 187.454L68.2908 185.803L69.4428 184.727C70.0956 184.113 70.8635 183.614 71.1707 183.614C71.7851 183.614 71.8619 182.731 71.3243 181.694C70.9787 181.08 70.6331 180.964 69.2508 181.156L67.5612 181.387L66.6396 179.352C66.1021 178.2 65.8333 177.201 66.0253 177.163C66.2173 177.086 67.062 177.278 67.9068 177.624C69.7116 178.353 70.9403 178.392 72.2843 177.777C73.2827 177.355 73.5899 176.203 72.8219 175.704C72.5531 175.55 72.5147 174.936 72.6683 174.129C72.8603 173.131 72.7451 172.593 72.2459 172.056C71.5931 171.326 71.5931 171.288 72.2843 171.557C72.7835 171.749 72.8987 171.71 72.7067 171.403C72.5147 171.057 72.9371 170.942 74.2042 170.942C78.3129 170.942 83.612 169.022 83.612 167.563C83.612 167.179 83.7656 166.718 83.9576 166.526C85.3016 165.029 85.1096 161.726 83.6504 161.726C82.8824 161.726 82.46 161.035 82.46 159.653C82.46 158.655 81.5385 157.733 79.6953 156.811C79.0041 156.427 78.3513 155.813 78.2745 155.391C78.1593 154.661 78.1593 154.661 78.8889 155.275C79.3113 155.659 80.1945 155.967 80.8473 155.967C81.5385 155.967 82.076 156.12 82.076 156.312C82.076 156.811 83.8808 157.234 86.4919 157.311C89.679 157.464 91.0998 156.619 91.5222 154.469C91.6758 153.816 91.8678 153.279 92.0214 153.279C92.4822 153.279 93.4805 151.205 93.7493 149.784C93.9029 148.901 94.4789 148.018 95.3237 147.25C96.2837 146.405 96.5909 145.868 96.3989 145.369C96.1685 144.793 96.1301 144.793 95.8613 145.561C95.5541 146.328 94.5173 147.02 94.1717 146.674C94.0565 146.597 94.4021 145.906 94.9397 145.215C95.4773 144.485 95.8997 143.525 95.8997 143.103C95.8997 142.604 96.1301 142.258 96.5141 142.258C96.9364 142.258 97.0516 142.527 96.9364 143.141C96.8596 143.641 97.0132 144.101 97.282 144.217C97.6276 144.332 97.9348 143.871 98.242 142.796C99.2404 139.186 99.4708 138.649 100.546 137.497C102.044 135.922 102.543 133.388 101.852 131.353C101.352 129.971 101.199 125.631 101.621 125.747C101.928 125.823 105.115 122.56 105.115 122.176C105.115 121.984 105.653 121.753 106.267 121.6C106.92 121.446 107.419 121.177 107.419 120.947C107.419 120.716 107.919 120.64 108.763 120.793C109.608 120.947 110.107 120.908 110.107 120.64C110.107 120.448 109.915 120.256 109.685 120.256C109.493 120.256 109.378 120.102 109.493 119.91C109.915 119.257 114.715 117.913 116.75 117.913C118.709 117.875 118.862 117.798 119.054 116.838C119.208 116.262 119.784 115.571 120.513 115.149C121.473 114.611 121.665 114.304 121.473 113.613C121.281 112.845 121.973 111.04 124.161 106.778C124.507 106.125 124.584 105.126 124.469 103.859C124.277 102.362 124.353 101.824 124.929 101.286C125.582 100.634 126.043 97.485 125.928 94.3363C125.928 93.6835 125.851 91.4563 125.774 89.3444C125.62 85.6965 125.889 84.5445 126.849 84.5445C127.272 84.5445 128.116 83.3542 128.961 81.4726C130.305 78.4391 130.612 77.9399 131.534 77.0951C132.724 75.9815 135.758 71.7577 136.219 70.5673C137.102 68.2634 137.063 65.4986 136.103 62.1195C135.566 60.2764 135.028 58.6636 134.913 58.5484C134.759 58.3948 133.646 58.1644 132.417 58.0108C129.96 57.742 129.921 57.7036 126.811 54.7085C125.659 53.6333 123.777 52.1742 122.587 51.5214C120.667 50.4078 120.321 50.331 118.785 50.6766C117.557 50.9454 116.866 50.8686 116.098 50.4846C115.522 50.1774 114.907 50.0622 114.677 50.1774C114.485 50.331 113.87 50.1774 113.371 49.8318C112.219 49.0639 109.954 48.6415 110.299 49.2559C110.491 49.563 110.299 49.6014 109.685 49.4094C108.571 49.0255 107.88 48.3727 108.072 47.8351C108.149 47.5663 107.957 47.1055 107.611 46.7983C107.304 46.4527 107.035 46.0303 107.035 45.7999C107.035 45.5695 106.882 45.3776 106.651 45.3776C106.459 45.3776 106.267 45.5312 106.267 45.7615C106.267 46.1839 103.541 45.032 103.119 44.4176C102.965 44.1872 102.811 44.1872 102.811 44.3792C102.811 44.5712 102.581 44.4944 102.274 44.264C101.736 43.8416 100.776 43.5344 99.0868 43.2656C98.05 43.112 96.7061 44.0336 96.2453 45.2624C95.6309 46.8751 95.5157 46.0687 96.0917 44.4176C96.8596 42.1904 96.8212 42.0368 95.2469 41.8064C94.3637 41.6529 93.5957 41.2305 93.2885 40.7697C93.0198 40.3473 92.5974 40.0017 92.2902 40.0017C91.7526 40.0017 91.7526 39.4641 92.2902 37.237C92.4438 36.469 92.2902 35.893 91.6374 35.0482C91.1382 34.4338 90.5238 33.8963 90.3318 33.8963C89.871 33.8579 88.9879 30.9011 88.9879 29.3268C88.9879 28.4436 87.4903 25.8325 87.4519 26.6389C87.4519 26.7924 86.4919 25.9861 85.2632 24.8341C84.0728 23.6821 82.9208 22.7222 82.652 22.7222C82.3832 22.7222 81.6537 22.4534 80.9625 22.1078C79.5801 21.4166 75.1258 21.0326 74.7802 21.5702C74.3578 22.2614 71.5163 21.1478 69.8652 19.6118C68.9436 18.8055 68.022 18.1143 67.83 18.1143C67.638 18.1143 67.4844 17.7303 67.4844 17.2311C67.446 16.7703 67.1388 16.0023 66.7548 15.5415C65.6797 14.236 62.531 12.4312 61.763 12.6232C60.9182 12.8536 60.3422 12.124 60.8414 11.4713C61.4174 10.7033 61.187 9.89689 60.3038 9.4745C59.8046 9.28251 59.4206 8.97532 59.4206 8.82172C59.4206 8.62973 59.1134 8.51453 58.7295 8.51453C58.3455 8.51453 57.8079 8.28414 57.5775 8.05374C57.1935 7.66975 57.0015 7.66975 56.7327 8.13054C56.5023 8.47613 56.3487 8.51453 56.3487 8.24574C56.3487 8.01534 56.2335 7.55456 56.1183 7.20896C55.9647 6.82497 56.0799 6.59458 56.4255 6.59458C56.7327 6.59458 57.3087 6.32579 57.7311 6.0186C58.3839 5.44261 58.1535 5.44261 54.8128 5.59621C52.816 5.7114 51.0497 5.8266 50.8961 5.8266C50.7041 5.8266 50.5889 6.05699 50.5889 6.32579C50.5889 6.63298 50.1665 7.05537 49.6673 7.32416C48.5153 7.93854 45.981 7.24736 45.981 6.32579C45.981 5.8266 45.5202 5.7882 42.7171 6.0186L39.4532 6.28739V5.28901C39.4532 4.17544 37.61 2.75468 36.1125 2.75468C35.4597 2.75468 35.2293 2.52429 35.2293 1.87151C35.2293 0.757935 34.9605 0.450743 34.2309 0.719536C33.9237 0.834733 33.6933 1.44912 33.6933 2.2171C33.6933 3.29227 33.5397 3.56106 32.6565 3.75306C32.0422 3.90665 31.0822 4.36744 30.4678 4.78983C29.5078 5.48101 29.3542 5.48101 29.5846 4.94342C29.6998 4.59783 29.6614 4.29064 29.4694 4.29064C29.239 4.29064 29.0854 3.94505 29.0854 3.52266C29.0854 3.06187 29.3542 2.75468 29.6998 2.75468C30.391 2.75468 31.351 1.71791 31.3894 0.94993C31.3894 0.18195 30.1222 -0.240439 29.0086 0.220349ZM30.6214 9.28251C30.6214 10.2041 30.007 11.2025 29.4694 11.2025C29.3158 11.2025 28.9702 10.5497 28.7014 9.7049C28.2791 8.39933 28.3175 8.13054 28.9318 7.40096L29.623 6.59458L30.1222 7.47776C30.391 7.93854 30.583 8.74492 30.6214 9.28251ZM37.802 93.4915C38.3396 94.1059 38.5316 94.5667 38.3012 94.9122C38.0324 95.373 37.9172 95.3346 37.6868 94.797C37.5716 94.4515 37.226 94.1443 36.9572 94.1443C36.6884 94.1443 36.3812 93.7987 36.266 93.3763C35.9973 92.3395 36.7652 92.4163 37.802 93.4915ZM112.027 118.336C112.027 118.528 111.95 118.72 111.874 118.72C111.758 118.72 111.566 118.528 111.451 118.336C111.336 118.105 111.413 117.952 111.605 117.952C111.835 117.952 112.027 118.105 112.027 118.336ZM97.7044 143.372C97.5892 143.679 97.474 143.564 97.474 143.141C97.4356 142.719 97.5508 142.489 97.666 142.642C97.7812 142.757 97.8196 143.103 97.7044 143.372ZM69.9804 183.23C70.0956 183.422 69.8652 183.614 69.4428 183.614C68.982 183.614 68.6364 183.422 68.6364 183.23C68.6364 183 68.8668 182.846 69.174 182.846C69.4812 182.846 69.8652 183 69.9804 183.23ZM49.2065 189.566C49.0529 189.873 48.8225 190.027 48.6305 189.911C48.2081 189.681 48.5537 188.99 49.0529 188.99C49.2449 188.99 49.3217 189.259 49.2065 189.566ZM48.4769 190.948C48.8609 192.1 48.4769 192.215 47.9777 191.102C47.7473 190.564 47.7089 190.142 47.9009 190.142C48.0929 190.142 48.3617 190.487 48.4769 190.948ZM50.2049 192.215C50.2049 192.292 49.9361 192.446 49.6289 192.599C49.3217 192.714 49.0529 192.638 49.0529 192.446C49.0529 192.215 49.3217 192.062 49.6289 192.062C49.9361 192.062 50.2049 192.138 50.2049 192.215ZM67.4844 216.637C67.4844 217.559 68.1372 217.943 69.5964 217.866C70.7099 217.789 70.7099 217.827 69.8652 218.288C69.4044 218.557 69.1356 218.941 69.2892 219.171C69.4812 219.363 69.2508 219.171 68.8668 218.749C68.3292 218.173 68.0988 218.096 67.9452 218.48C67.8684 218.826 67.5996 218.634 67.254 217.981C66.6396 216.752 66.5245 215.331 67.1004 215.677C67.3308 215.792 67.4844 216.253 67.4844 216.637ZM64.9885 216.599C64.8733 216.829 64.4509 217.021 64.1053 217.021C63.6061 217.021 63.6061 216.944 64.2589 216.483C65.0653 215.907 65.4109 215.946 64.9885 216.599Z"></path>
    <path d="M91.0993 210.839C90.6769 211.031 90.0625 211.07 89.7553 210.954C89.2945 210.801 89.2561 210.878 89.6785 211.3C90.3313 211.991 90.2545 212.836 89.5633 212.567C88.4882 212.145 88.9874 213.143 90.1009 213.758C91.2145 214.333 91.2529 214.295 92.4817 212.874C93.1344 212.068 93.5568 211.799 93.4032 212.222C92.7121 214.065 92.7121 214.333 93.4416 214.333C93.864 214.333 95.016 213.834 96.0144 213.22C97.6655 212.26 97.7807 212.106 97.2047 211.607C96.8591 211.3 95.7456 211.031 94.7856 210.993C93.8256 210.993 92.7505 210.839 92.4433 210.762C92.1361 210.647 91.5217 210.686 91.0993 210.839Z"></path>
</svg>