<svg class="h-[50px]" viewBox="0 0 242 164" xmlns="http://www.w3.org/2000/svg">
    <path d="M188.107 1.15884C187.928 1.38272 186.987 1.69615 185.913 1.87526C184.032 2.18869 180.226 3.80064 179.734 4.51705C179.554 4.74094 179.196 4.74094 178.928 4.60661C178.659 4.4275 178.435 4.51705 178.435 4.74094C178.435 5.00959 178.704 5.27825 179.017 5.27825C179.286 5.32303 180.047 5.41258 180.584 5.45735C181.211 5.50213 182.062 5.14392 182.554 4.60661C183.092 4.11407 183.36 3.89019 183.226 4.15884C183.047 4.47228 183.36 4.78571 183.943 4.96482C185.331 5.32303 185.689 5.27825 185.375 4.78571C185.241 4.51705 185.42 4.47228 185.778 4.60661C186.181 4.74094 186.36 5.09914 186.181 5.3678C186.002 5.68123 187.077 5.72601 189.674 5.54691C191.913 5.41258 193.077 5.45735 192.54 5.68123C191.823 5.99467 192.047 6.08422 193.48 6.08422C194.778 6.129 195.45 5.90512 195.629 5.45735C195.763 5.09914 196.256 4.78571 196.749 4.78571C197.913 4.78571 199.032 4.33795 199.032 3.84541C199.032 3.62153 198.629 3.44243 198.181 3.44243C197.689 3.44243 197.241 3.26332 197.152 2.99466C197.017 2.63645 194.107 2.18869 191.241 2.09914C190.569 2.09914 190.525 1.96481 190.972 1.4275C191.465 0.845407 191.286 0.755855 189.943 0.755855C189.047 0.755855 188.241 0.934959 188.107 1.15884ZM193.435 3.44243C192.987 3.93496 192.092 4.33795 191.465 4.29317L190.301 4.2484L191.42 3.89019C192.047 3.71108 192.226 3.4872 191.868 3.44243C191.51 3.39765 191.689 3.17377 192.316 2.99466C194.107 2.41257 194.286 2.50213 193.435 3.44243ZM182.017 4.06929C182.017 4.20362 181.838 4.4275 181.569 4.56183C181.346 4.69616 181.122 4.60661 181.122 4.38273C181.122 4.11407 181.346 3.89019 181.569 3.89019C181.838 3.89019 182.017 3.97974 182.017 4.06929Z"></path>
    <path d="M172.703 3.1727C171.897 3.44136 171.36 3.84434 171.539 4.02345C171.718 4.20255 171.629 4.33688 171.36 4.33688C171.046 4.33688 170.823 4.113 170.823 3.88912C170.823 3.35181 167.599 3.35181 164.33 3.88912C162.091 4.20255 162.718 4.47121 165.763 4.47121C166.569 4.47121 167.106 4.65032 166.972 4.8742C166.837 5.0533 166.793 5.23241 166.882 5.27718C169.255 5.68017 172.211 5.68017 171.987 5.27718C171.763 4.96375 172.076 4.78464 172.703 4.78464C173.42 4.78464 173.554 4.91897 173.151 5.18763C172.435 5.59062 174.494 6.12793 176.823 6.12793C177.897 6.12793 178.076 5.9936 177.539 5.68017C177.181 5.41151 176.285 5.36673 175.524 5.50106C174.315 5.76972 174.27 5.72494 174.808 5.0533C175.121 4.65032 175.793 4.33688 176.285 4.33688C176.733 4.33688 177.002 4.113 176.867 3.88912C176.733 3.62046 176.196 3.44136 175.703 3.44136C175.255 3.44136 174.852 3.21748 174.852 2.9936C174.852 2.45628 174.584 2.45628 172.703 3.1727Z"></path>
    <path d="M105.898 5.14364C105.495 5.5914 104.778 5.68095 103.569 5.50185C102.226 5.27797 101.778 5.36752 101.554 5.94961C101.42 6.3526 101.554 6.84513 101.912 7.06901C102.271 7.2929 102.315 7.472 102.047 7.472C101.778 7.472 101.286 7.15857 100.927 6.75558C100.614 6.3526 99.9423 6.12872 99.3154 6.26304C98.7333 6.3526 98.196 6.30782 98.0617 6.12872C97.9722 5.94961 96.7184 5.90483 95.2856 5.94961C93.8527 6.03916 92.1512 6.08394 91.4796 6.12872C90.4945 6.12872 90.3154 6.30782 90.5393 6.88991C90.7184 7.33767 91.3453 8.18842 91.9721 8.77051L93.1363 9.84514L91.9274 9.12872C91.2109 8.68096 90.6289 8.54663 90.4498 8.81529C90.3154 9.03917 91.0318 9.62126 92.1065 10.1586C94.3453 11.2332 94.5244 11.278 93.808 10.3825C92.7333 9.08394 96.0916 11.1884 97.3005 12.4869C97.8826 13.2034 98.6886 13.7407 99.0916 13.7407C99.5393 13.7854 100.659 14.1437 101.644 14.6362C104.286 15.9347 105.315 15.8004 105.674 14.1884C105.853 13.4272 106.256 12.8451 106.569 12.8451C107.241 12.8451 109.838 10.6063 109.211 10.6063C108.987 10.6063 109.166 10.3825 109.614 10.1138C110.509 9.57648 111.942 9.93469 113.42 11.0989C114.36 11.8153 114.405 11.9048 113.644 12.3526C112.748 12.8899 113.062 12.9795 115.121 12.8451C115.927 12.8004 116.689 12.9795 116.868 13.2481C117.181 13.7854 119.241 13.472 120.002 12.8004C120.226 12.5765 120.763 12.3974 121.256 12.3974C121.704 12.3974 121.927 12.1735 121.793 11.9496C121.659 11.681 120.942 11.5019 120.226 11.5019C119.509 11.5019 118.883 11.1884 118.704 10.7854C118.524 10.2929 118.077 10.1138 117.315 10.2481C116.689 10.3825 116.196 10.2929 116.196 10.1138C116.196 9.48693 112.121 7.83021 111.36 8.14364C110.778 8.36752 110.733 8.27797 111.136 7.87499C111.495 7.51678 112.524 7.472 114.495 7.65111C119.286 8.18842 123.405 7.91976 123.718 7.02424C123.808 6.75558 124.256 6.57648 124.704 6.57648C125.868 6.57648 126.226 5.81528 125.286 5.32274C123.987 4.6511 118.524 4.38244 118.211 4.96453C118.077 5.32274 117.898 5.27797 117.718 4.87498C117.315 4.06901 115.301 4.20334 115.301 5.05409C115.301 5.63618 115.166 5.68095 114.629 5.23319C113.689 4.42722 106.659 4.38244 105.898 5.14364ZM109.838 7.38245C109.972 7.78543 109.748 7.96454 109.211 7.83021C108.808 7.78543 108.36 7.42722 108.226 7.11379C108.092 6.71081 108.315 6.5317 108.853 6.66603C109.256 6.71081 109.704 7.06901 109.838 7.38245ZM100.972 10.3825C100.972 10.5168 100.614 10.6063 100.166 10.6063C99.7184 10.6063 99.3154 10.2929 99.3154 9.97947C99.3154 9.48693 99.5393 9.39738 100.166 9.75559C100.614 9.97947 100.972 10.2929 100.972 10.3825ZM97.8378 11.5019C97.8378 11.7257 97.6587 11.9496 97.3901 11.9496C97.1662 11.9496 96.9423 11.7257 96.9423 11.5019C96.9423 11.2332 97.1662 11.0541 97.3901 11.0541C97.6587 11.0541 97.8378 11.2332 97.8378 11.5019Z"></path>
    <path d="M216.539 14.0542C215.913 14.1886 214.972 14.5915 214.39 14.9497C213.674 15.4423 211.48 15.7557 207.718 16.0244C202.345 16.3826 200.42 16.696 199.927 17.2781C199.435 17.905 196.077 19.2483 195.315 19.1587C194.733 19.0692 194.51 19.293 194.599 19.8751C194.823 21.308 194.107 22.5169 192.629 23.2333L191.196 23.9498L192.315 24.3975C192.987 24.711 193.166 24.8901 192.718 24.8901C192.315 24.9348 191.42 25.4274 190.704 26.0542C189.674 26.905 189.584 27.1736 190.211 27.1736C191.33 27.1736 191.151 28.0244 189.853 28.5169C189.226 28.7408 188.733 29.2333 188.733 29.5916C188.733 30.5319 189.942 31.3378 190.972 31.0692C191.465 30.9348 191.778 31.0244 191.599 31.2483C191.465 31.4722 191.913 31.8751 192.584 32.099C193.524 32.4572 193.883 32.4572 194.196 32.0095C194.465 31.5617 194.554 31.6065 194.554 32.1438C194.554 33.1289 195.495 33.4423 199.032 33.7557C204.405 34.1587 204.987 34.1587 205.211 33.4871C205.345 33.0393 205.211 32.9498 204.674 33.1289C204.271 33.308 204.002 33.2632 204.136 33.0393C204.271 32.8602 203.554 32.4125 202.614 32.099C201.629 31.7856 200.823 31.3826 200.823 31.2483C200.823 31.0692 200.286 30.6214 199.569 30.2184C198.36 29.502 197.599 27.1736 198.584 27.1736C198.853 27.1736 199.032 26.9498 199.032 26.7259C199.032 26.099 203.733 21.3527 204.36 21.3527C204.629 21.3527 205.211 20.9945 205.659 20.5468C206.689 19.5169 208.614 18.9348 214.48 17.7706C222.271 16.2035 223.838 15.2184 220.166 14.1886C218.465 13.7408 218.33 13.7408 216.539 14.0542ZM193.524 23.8602C193.39 23.9945 192.987 24.0393 192.674 23.905C192.315 23.7707 192.45 23.6363 192.942 23.6363C193.435 23.5915 193.704 23.7259 193.524 23.8602Z"></path>
    <path d="M126.717 32.1433C126.538 32.412 126.091 32.5016 125.688 32.3225C125.329 32.1881 124.523 32.5016 123.897 33.0836C123.27 33.6657 122.911 33.8448 123.091 33.5314C123.314 33.1732 123.001 32.9941 121.926 32.9941C120.001 32.9941 118.389 33.4419 118.658 33.8896C118.926 34.3374 116.732 34.9642 115.344 34.8299C114.583 34.7404 114.404 34.8747 114.628 35.3225C114.897 35.7702 114.852 35.815 114.359 35.3225C113.285 34.3374 110.374 34.7851 110.374 35.9493C110.374 36.621 110.329 36.621 108.717 36.8001C106.882 36.9792 106.255 37.4269 106.479 38.3672C106.613 38.8598 106.479 39.3971 106.255 39.5762C105.941 39.7553 105.897 39.621 106.12 39.2628C106.389 38.815 106.21 38.7702 105.225 38.9941C104.105 39.2628 104.016 39.218 104.508 38.6359C105.359 37.6508 104.508 37.6956 102.135 38.8598C100.658 39.5314 100.21 39.9792 100.389 40.4717C100.568 40.9643 100.479 41.0986 100.165 40.8747C99.5383 40.5165 96.4935 41.7255 96.4935 42.3523C96.4935 42.9792 96.6726 42.9792 98.5084 42.218C99.3592 41.8598 100.076 41.6359 100.076 41.7255C100.076 41.815 100.702 41.7255 101.419 41.5016C102.225 41.2777 102.762 41.2777 102.762 41.5463C102.762 41.7702 102.449 41.9493 102.091 41.9493C101.732 41.9493 101.419 42.3523 101.419 42.8001C101.419 43.2926 100.523 44.3225 99.1801 45.2628C97.9711 46.1583 96.9413 47.0538 96.9413 47.2777C96.9413 47.5016 96.5383 47.7702 96.0457 47.9046C95.4189 48.0389 95.1502 48.5314 95.1502 49.2926C95.1502 50.815 93.6726 52.2479 92.1502 52.2479C91.1204 52.2479 91.0308 52.3374 91.5681 52.7404C92.1054 53.1434 92.1502 53.2329 91.6129 53.4568C91.2995 53.5911 90.2248 54.4867 89.2845 55.427C87.7174 56.9941 87.4487 57.1285 86.598 56.6359C85.8368 56.1434 85.6129 56.1882 85.1651 56.7702C84.8517 57.1732 84.3592 57.3971 84.001 57.2628C83.5532 57.1285 83.4636 57.2628 83.6427 57.7553C83.8218 58.2479 83.5532 58.5165 82.5681 58.7404C81.8517 58.9195 81.2696 59.2329 81.2696 59.4568C81.2696 59.6807 80.7771 59.9494 80.1502 60.1285C79.5233 60.2628 79.0308 60.5762 79.0308 60.8449C79.0308 61.0688 78.8517 61.1583 78.6726 61.024C78.4487 60.8897 77.6875 61.1583 76.9263 61.6509C75.583 62.4568 75.5383 62.5912 75.4935 65.8598C75.4487 68.6807 75.583 69.1732 76.1203 68.9941C76.8368 68.7255 77.0606 69.4867 76.4338 69.8897C75.8965 70.2031 75.8517 72.8449 76.389 72.8449C76.6129 72.8449 76.792 73.2479 76.792 73.7404C76.792 74.2777 77.4636 75.0389 78.583 75.7553C80.9114 77.233 83.3293 77.233 85.3442 75.7553C86.195 75.1733 87.7174 74.233 88.792 73.6956C89.8219 73.1583 90.6726 72.3971 90.7174 71.9941C90.7174 71.4121 90.8069 71.3673 90.986 71.9494C91.1204 72.3076 91.5233 72.8001 91.8368 72.9792C92.195 73.1583 92.4636 73.8747 92.4636 74.5464C92.4636 75.218 92.8666 76.2479 93.3592 76.8748C93.8517 77.5016 94.2547 78.1733 94.2547 78.3524C94.2547 78.5762 94.9711 79.4718 95.8219 80.3673C96.6726 81.2628 97.1651 82.0688 96.9413 82.1583C96.6726 82.2479 96.4935 82.6061 96.4935 82.9643C96.4935 83.3225 96.3592 83.5464 96.1801 83.5464C95.4637 83.4121 92.9114 84.1733 92.9114 84.4867C92.9114 84.9345 90.2696 85.5613 89.9114 85.2479C89.8219 85.1136 89.9114 84.621 90.1801 84.1733C90.6278 83.4121 90.6278 83.4121 90.6726 84.1733C90.6726 84.621 90.8965 84.8449 91.1204 84.7106C91.389 84.5315 91.4786 84.2628 91.3442 84.0389C91.2099 83.8151 91.2995 83.5464 91.5681 83.3673C92.3741 82.8748 92.0607 81.8001 91.1204 81.8001C90.2248 81.8001 89.8666 80.7255 90.6278 80.233C91.1651 79.9195 91.1204 77.3225 90.583 77.3225C90.4039 77.3225 90.2248 77.5016 90.2248 77.7703C90.2248 77.9942 89.9562 78.218 89.598 78.218C89.2845 78.218 88.7472 78.5315 88.4338 78.8897C88.1204 79.2479 87.3144 79.5613 86.598 79.5613C84.1801 79.5613 82.5233 84.3524 84.3144 86.1882C84.9413 86.9046 84.986 87.4867 84.4039 87.8449C84.1801 87.9792 84.0905 88.3822 84.2696 88.7852C84.4487 89.2778 84.6726 89.3225 85.1204 88.9195C85.6129 88.5166 85.7472 88.5613 85.7472 89.1434C85.7472 89.5464 85.5233 89.8598 85.2547 89.8598C84.8965 89.8598 84.8965 90.0837 85.2995 90.5315C86.2845 91.6957 85.0756 92.5912 83.0159 92.2778C81.8517 92.0539 80.9562 92.1882 80.2845 92.636C79.6577 93.039 78.6726 93.2181 77.8666 93.1285C75.7621 92.8151 73.8368 93.9793 73.4785 95.8151C73.0308 98.1882 70.0756 100.875 66.7173 101.994C64.7472 102.621 64.4338 102.89 64.1203 104.323C63.7621 105.755 63.4935 106.024 61.9711 106.427C60.986 106.696 59.9561 107.323 59.6427 107.77C59.0158 108.8 57.4487 108.934 56.5532 108.084C56.2397 107.726 55.389 107.323 54.6726 107.143C53.5084 106.875 53.4188 106.92 53.7323 107.86C54.6726 110.905 54.583 111.129 52.7472 111.129C51.8069 111.129 50.8218 110.949 50.5084 110.77C49.9263 110.412 46.5233 110.815 45.4487 111.397C44.5979 111.8 44.5084 114.039 45.3143 114.039C45.6278 114.039 45.8964 114.218 45.8964 114.487C45.8964 114.711 46.1651 114.8 46.4785 114.666C47.5084 114.263 49.4785 115.293 49.2099 116.054C49.0755 116.412 49.1651 116.726 49.4785 116.726C49.7472 116.726 49.8367 116.502 49.7024 116.278C49.2099 115.472 50.8218 115.83 51.8069 116.726C52.389 117.218 52.5233 117.621 52.2099 117.621C51.8069 117.621 51.8517 117.845 52.3442 118.337C52.7472 118.696 53.0606 119.233 53.0606 119.457C53.0606 119.681 53.374 119.86 53.777 119.86C54.1352 119.86 54.3143 120.039 54.18 120.308C54.0457 120.532 54.0905 120.755 54.3143 120.755C54.5382 120.755 54.7173 121.024 54.7173 121.293C54.7173 121.606 54.8069 122.054 54.8964 122.323C55.0755 122.949 54.4487 127.427 53.9114 129.173C53.374 130.785 52.1203 131.681 50.8218 131.278C50.0606 131.054 44.0606 130.606 38.4188 130.427C37.1203 130.382 35.9561 130.203 35.777 130.024C35.1501 129.397 33.4934 129.711 32.6874 130.606C32.2397 131.099 31.5233 131.502 31.1203 131.502C29.8665 131.502 29.2397 132.576 29.7322 133.875C29.9561 134.457 30.2248 136.338 30.2695 138.039C30.4039 141.308 29.374 145.069 28.0307 146.144C27.6725 146.457 27.4934 146.726 27.6277 146.726C27.8068 146.726 27.7621 147.308 27.5382 148.069C27.3143 148.875 27.3143 149.412 27.583 149.412C27.8068 149.412 27.9859 149.726 27.9859 150.084C27.9859 150.442 28.2546 150.711 28.568 150.621C29.1501 150.532 29.2397 152.815 28.7024 154.785C28.3889 155.86 28.4785 155.905 30.3143 155.86C31.3889 155.86 32.6874 155.681 33.2695 155.502C34.8815 154.964 36.0457 155.636 36.8069 157.517C37.568 159.487 39.2695 160.293 40.2098 159.129C41.1949 157.92 43.8367 157.069 46.5681 157.024C48.0457 157.024 49.6128 157.024 50.0606 156.979C50.4636 156.979 51.1352 156.352 51.4934 155.636C51.986 154.741 52.6576 154.203 53.5531 154.024C54.583 153.845 55.0755 153.352 55.6129 152.054C55.9711 151.069 56.5532 150.308 56.8666 150.308C57.18 150.308 57.6726 149.994 57.986 149.636C58.4785 149.054 58.4338 148.83 57.8964 148.382C56.8218 147.532 56.6875 146.502 57.4487 145.293C59.0606 142.92 61.792 140.009 62.4188 140.009C62.777 140.009 64.1203 139.472 65.4188 138.8C67.8367 137.591 69.18 135.8 68.2845 134.905C68.0606 134.681 67.8367 134.009 67.8367 133.472C67.8367 131.278 72.583 130.472 75.3144 132.218C76.792 133.158 77.8218 132.979 79.4338 131.546C80.2845 130.785 81.4935 130.069 82.2099 129.935C82.9263 129.755 83.7323 129.263 83.9562 128.815C84.1801 128.367 84.6726 127.92 85.0308 127.785C85.9711 127.427 89.7771 129.173 89.7771 129.979C89.7771 130.338 90.0457 131.009 90.3592 131.546C90.8069 132.308 90.7622 132.532 90.0905 133.069C89.5084 133.472 89.4189 133.741 89.8219 133.964C90.0905 134.143 90.4935 134.054 90.6726 133.696C90.986 133.248 91.1651 133.248 91.7472 133.696C92.1502 134.054 92.4636 134.591 92.4636 134.905C92.4636 135.263 92.8666 135.532 93.3592 135.532C93.8517 135.532 94.2547 135.666 94.2547 135.89C94.2547 136.561 98.7323 139.741 99.7622 139.785C100.344 139.785 101.329 140.323 101.956 140.994C102.583 141.711 103.434 142.248 103.837 142.248C104.24 142.248 104.553 142.561 104.553 142.964C104.553 143.367 105.135 143.905 105.897 144.173C106.882 144.532 107.374 145.158 107.911 146.726C108.359 147.979 108.449 148.785 108.135 148.875C107.911 148.964 107.688 149.412 107.688 149.815C107.688 150.845 103.568 151.785 100.344 151.472C97.7025 151.248 96.9413 151.472 96.9413 152.547C96.9413 153.308 100.971 155.681 102.225 155.681C102.494 155.681 102.896 155.949 103.076 156.263C103.255 156.621 103.882 156.979 104.464 157.158C105.583 157.427 106.523 156.218 106.076 155.054C105.941 154.651 105.941 153.8 106.076 153.173C106.299 152.278 106.568 152.099 107.285 152.323C108.404 152.681 110.374 151.024 110.374 149.726C110.374 149.278 110.777 148.785 111.27 148.651C112.523 148.338 112.434 146.636 111.046 145.83C110.061 145.203 110.016 145.024 110.508 144.039C110.956 143.144 111.359 142.964 112.389 143.054C113.15 143.144 113.822 143.412 113.867 143.636C113.956 143.86 114.359 144.397 114.762 144.755C115.434 145.427 115.523 145.427 115.926 144.532C116.508 143.188 115.165 141.845 111.27 139.964C108.628 138.711 108.27 138.352 108.628 137.681C108.852 137.233 108.897 136.875 108.717 136.83C108.538 136.83 107.508 136.785 106.479 136.696C104.956 136.606 104.24 136.248 102.986 134.949C102.135 134.054 101.419 132.979 101.419 132.532C101.374 131.412 100.613 130.517 98.6428 129.352C96.8069 128.233 96.1353 126.89 96.9413 125.905C97.2547 125.502 97.2995 125.233 96.9413 125.009C96.0457 124.472 96.4935 123.621 97.9711 123.084C99.7622 122.457 101.061 122.367 100.165 122.905C99.7622 123.173 99.7174 123.621 100.031 124.427C100.568 125.905 101.419 126.442 101.911 125.636C102.18 125.143 102.314 125.278 102.314 125.994C102.314 126.532 102.538 127.114 102.762 127.248C103.031 127.382 103.21 127.114 103.21 126.621C103.21 126.129 103.434 125.591 103.747 125.412C104.105 125.188 104.15 125.323 103.971 125.86C103.792 126.308 103.926 126.935 104.374 127.338C104.867 127.875 104.911 128.143 104.553 128.367C103.971 128.726 106.076 130.606 107.061 130.606C107.419 130.606 108.046 131.009 108.449 131.502C108.897 131.994 109.747 132.397 110.374 132.442L111.494 132.487L110.374 132.845C109.299 133.203 109.299 133.203 110.688 133.248C111.449 133.293 112.255 133.472 112.389 133.741C112.523 133.964 113.016 134.188 113.464 134.188C113.867 134.188 115.255 134.949 116.508 135.845L118.837 137.546L118.568 140.323C118.344 142.92 118.389 143.099 119.553 143.86C120.27 144.308 120.538 144.755 120.225 144.935C119.598 145.338 120.135 146.726 120.897 146.726C121.255 146.726 121.837 147.039 122.195 147.442C122.911 148.114 122.911 148.92 122.24 150.487C122.061 150.935 122.061 151.427 122.329 151.606C122.553 151.741 122.867 152.233 123.046 152.636C123.359 153.532 124.255 153.711 124.255 152.905C124.255 151.785 125.956 154.024 126.27 155.547C126.538 156.935 126.673 157.069 127.658 156.845C128.419 156.621 128.732 156.755 128.732 157.248C128.732 157.606 128.956 157.92 129.18 157.92C129.449 157.92 129.628 157.696 129.628 157.472C129.628 157.203 129.852 157.024 130.076 157.024C130.344 157.024 130.523 157.517 130.523 158.144C130.523 158.77 130.747 159.263 130.971 159.263C131.822 159.263 131.643 156.979 130.658 155.009C130.165 154.069 130.165 153.845 130.568 154.203C130.882 154.517 131.508 154.785 132.001 154.785C132.628 154.785 132.762 154.561 132.538 153.845C132.27 153.084 132.404 152.949 133.3 153.084C134.105 153.173 134.285 153.039 134.195 152.367C134.061 151.606 134.105 151.561 134.732 152.054C135.135 152.412 135.449 152.502 135.449 152.323C135.449 152.144 135.762 152.233 136.12 152.547C136.479 152.86 136.792 153.487 136.792 153.979C136.792 154.785 136.837 154.785 137.508 154.158C138.135 153.532 138.091 153.352 137.285 152.457C136.747 151.92 136.344 151.651 136.344 151.83C136.344 152.502 134.911 151.024 134.508 149.994C134.285 149.367 133.747 148.964 133.21 148.964C132.583 148.964 132.135 148.517 131.822 147.621C131.553 146.86 131.15 146.278 130.926 146.278C130.434 146.278 129.091 143.681 129.27 143.054C129.359 142.785 130.076 143.099 130.837 143.77C132.225 144.935 133.031 145.293 132.538 144.487C132.359 144.218 132.583 144.173 133.031 144.352C133.658 144.576 133.747 144.487 133.479 143.77C133.21 143.099 133.255 143.009 133.703 143.457C134.777 144.532 135.18 144.039 134.15 142.964C133.12 141.89 133.12 141.89 134.016 141.397C134.688 141.039 135.046 141.039 135.27 141.442C135.449 141.755 135.404 141.8 135.091 141.621C134.777 141.442 134.553 141.532 134.553 141.755C134.553 142.606 135.762 142.293 136.031 141.397C136.21 140.591 136.389 140.591 137.732 141.084C138.583 141.352 139.703 141.845 140.285 142.158C141.673 142.92 143.106 142.696 144.046 141.532C144.628 140.815 145.3 140.591 146.464 140.636C147.314 140.681 148.255 140.457 148.523 140.099C149.061 139.472 149.061 139.472 147.494 138.8C146.106 138.218 144.18 134.681 144.852 134.009C145.12 133.741 145.3 133.114 145.3 132.576C145.3 131.994 145.658 131.502 146.15 131.367C146.867 131.188 147.046 130.696 147.18 128.994C147.314 127.114 147.494 126.711 148.568 126.218C149.419 125.815 149.777 125.278 149.777 124.517C149.777 123.89 150.359 122.77 151.12 121.964C151.837 121.158 152.464 120.263 152.464 119.949C152.464 119.681 152.956 119.412 153.583 119.412C154.255 119.412 154.703 119.681 154.703 120.084C154.703 120.755 157.031 121.382 159.494 121.338C160.3 121.293 160.837 121.472 160.703 121.696C160.568 121.92 160.255 122.099 160.031 122.099C159.449 122.099 157.568 123.89 158.106 123.935C158.688 124.024 159.27 124.158 160.434 124.561C161.24 124.83 161.419 125.188 161.329 126.084C161.195 127.069 161.374 127.248 162.494 127.382C163.344 127.472 163.926 127.293 164.195 126.845C164.419 126.442 165.091 126.129 165.673 126.129C166.255 126.129 166.882 125.905 167.016 125.681C167.15 125.412 168.001 125.233 168.852 125.233C169.926 125.233 170.374 125.009 170.374 124.561C170.374 123.8 170.598 123.935 172.658 125.77C173.106 126.218 173.777 126.576 174.091 126.576C174.404 126.576 175.076 126.89 175.568 127.248C176.016 127.606 176.688 127.92 177.046 127.92C177.404 127.92 178.031 128.233 178.479 128.636C179.15 129.218 179.553 129.263 180.673 128.905C181.792 128.502 182.285 128.546 183.494 129.218C184.255 129.711 185.643 130.203 186.494 130.382C187.344 130.561 189.001 131.278 190.121 131.994C191.956 133.158 192.449 133.293 194.598 133.024L197.016 132.755L199.926 135.308C204.852 139.561 216.718 144.979 215.912 142.561C215.822 142.293 215.419 142.024 215.016 142.024C214.568 142.024 212.329 139.92 210.001 137.367C206.329 133.427 205.747 132.532 205.747 131.233C205.747 129.755 204.449 127.92 202.926 127.293C202.568 127.158 202.524 126.979 202.837 126.711C203.106 126.532 203.509 125.77 203.732 125.054C204.18 123.666 206.464 122.099 207.449 122.457C207.718 122.546 207.986 122.367 207.986 122.009C207.986 121.114 209.106 120.173 212.016 118.696C213.359 117.979 214.568 117.352 214.703 117.263C214.837 117.173 214.344 116.636 213.583 116.054C212.509 115.158 212.285 114.666 212.374 113.412C212.464 112.158 212.15 111.487 210.986 110.143C209.061 107.994 208.613 107.143 208.255 104.77C207.986 102.89 207.986 102.89 209.643 102.442C210.583 102.173 212.374 101.949 213.628 101.949C214.837 101.949 216.091 101.726 216.359 101.457C217.255 100.561 222.762 100.83 225.673 101.86C227.688 102.621 228.852 102.8 230.464 102.576C231.941 102.352 232.613 102.442 232.613 102.8C232.613 103.069 233.016 103.293 233.464 103.293C233.956 103.293 234.628 103.606 235.031 103.964C235.837 104.815 236.912 104.815 237.225 104.009C237.404 103.561 237.986 103.427 239.195 103.606C242.374 104.009 243.091 101.412 240.091 100.382C237.807 99.6211 236.867 98.8151 237.628 98.2778C238.21 97.8748 237.897 97.5613 235.3 95.6807C234.404 95.0539 234.359 94.8748 234.852 92.9046C235.3 91.0688 235.3 90.6658 234.583 89.4569C233.464 87.5763 232.076 87.621 230.33 89.636C228.449 91.7404 226.971 91.7404 225.449 89.5912C224.822 88.7404 223.837 87.3972 223.255 86.6807C222.225 85.3822 222.225 85.2927 222.986 84.4867C223.434 83.9942 224.374 83.5912 225.091 83.5912C228.091 83.5912 229.165 80.0091 226.837 77.8598C225.18 76.3374 224.553 74.7255 224.553 72.0389C224.509 66.9792 223.344 61.9643 220.792 56.3225C219.046 52.427 218.419 50.5911 218.732 50.2329C219.001 49.9195 220.165 49.3374 221.329 48.8896C225.897 47.1881 230.732 43.7404 230.822 42.1732C230.822 41.9046 229.971 40.8747 228.941 39.8449C226.747 37.7404 224.016 36.8001 218.732 36.3523C213.986 35.9045 213.762 35.8598 211.165 34.7404C209.419 34.0239 208.703 33.8896 208.344 34.2478C207.941 34.6508 208.076 35.009 208.792 35.6807C209.329 36.218 209.956 36.5314 210.18 36.3971C210.628 36.1284 214.121 37.7404 215.016 38.5911C215.867 39.4419 215.732 39.7105 214.479 39.7105C213.673 39.7105 213.449 39.8896 213.628 40.3822C213.852 40.8747 213.718 40.9643 213.18 40.7852C212.822 40.6508 212.509 40.3822 212.509 40.2478C212.643 39.3523 211.837 37.9643 211.076 37.7851C210.135 37.5165 209.867 38.1881 210.807 38.5016C211.076 38.5911 210.538 38.8598 209.553 39.0389C208.568 39.218 207.583 39.5314 207.315 39.7105C207.091 39.8896 205.926 40.024 204.718 40.024C203.553 40.0687 202.3 40.2926 201.941 40.606C201.628 40.8747 200.867 41.0538 200.285 40.9643C199.031 40.7852 198.673 39.4419 199.792 39.1284C200.24 38.9941 199.792 38.9046 198.807 38.8598C197.822 38.8598 196.568 39.1284 196.031 39.4866C195.538 39.8449 194.419 40.2031 193.613 40.2478C192.762 40.2926 191.285 40.8299 190.3 41.3672C189.315 41.9493 188.106 42.3971 187.613 42.3971C186.225 42.4419 184.882 43.4269 184.926 44.412C184.926 44.9046 184.613 45.4419 184.255 45.621C183.046 46.1583 180.807 45.9792 180.225 45.3075C179.912 44.9493 179.374 44.6359 179.016 44.6359C177.762 44.6359 178.747 43.5613 180.449 43.1135L182.15 42.621L180.628 41.4568C179.419 40.5165 178.434 40.2478 175.837 40.0687C172.523 39.8449 171.091 40.2926 173.509 40.8299C174.762 41.0986 174.852 41.2777 174.852 43.024C174.852 44.6359 175.031 45.0389 175.971 45.4419C177.135 45.9792 177.359 46.6508 176.688 47.7255C176.419 48.1732 176.106 48.218 175.389 47.815C174.897 47.5464 174.046 47.3225 173.553 47.3225C173.016 47.3225 172.613 47.009 172.613 46.6061C172.613 46.1583 172.165 46.3374 171.18 47.2777C170.374 48.0389 169.389 48.6658 169.031 48.6658C168.673 48.6658 167.777 49.1583 167.061 49.6956L165.762 50.7255L166.792 51.7105C168.449 53.2329 167.464 53.7702 164.419 52.9643C163.076 52.6061 161.509 52.0688 160.926 51.8001C160.21 51.3971 159.717 51.3971 158.956 51.8001C157.882 52.3822 157.926 53.5911 159.001 53.5911C159.359 53.5911 159.628 53.7702 159.628 54.0389C159.628 54.2628 160.21 54.4867 160.926 54.4867C161.643 54.4867 162.314 54.7553 162.494 55.1583C162.897 56.3225 160.21 56.1434 157.882 54.8896C156.986 54.4419 155.912 54.0389 155.509 54.0389C155.061 54.0389 154.703 53.7702 154.703 53.4568C154.703 53.0986 154.3 52.4717 153.807 52.024C153.135 51.3971 153.046 51.0389 153.404 50.3673C153.941 49.3374 153.046 48.4419 151.031 47.9941C150.404 47.8598 149.777 47.4568 149.643 47.1434C149.464 46.7404 150.27 46.7852 153.091 47.3225C162.404 49.2479 165.001 49.2479 167.777 47.2777C169.21 46.2478 169.344 45.2628 168.225 43.8747C167.464 42.9344 164.15 41.3225 163.747 41.6807C163.658 41.815 162.897 41.5911 162.135 41.1881C161.374 40.7852 160.658 40.4717 160.523 40.4717C160.165 40.5165 159.135 40.1135 156.941 39.1732C155.822 38.6807 153.046 38.0986 150.807 37.8299C148.076 37.5165 146.643 37.1583 146.643 36.8001C146.643 36.1732 143.553 35.5463 142.882 36.0389C142.613 36.218 141.494 36.2628 140.374 36.1284L138.359 35.9045L139.837 35.3672C140.688 35.0538 141.225 34.6508 141.091 34.4269C140.732 33.8448 135.538 32.4568 135.001 32.7702C134.732 32.9045 134.553 32.815 134.553 32.5911C134.553 32.3225 133.882 32.0986 133.031 32.0986C132.001 32.0986 131.329 32.412 130.837 33.0836C130.344 33.8001 130.12 33.8896 130.076 33.4419C130.076 33.0836 129.538 32.5016 128.867 32.1881C127.389 31.5165 127.076 31.5165 126.717 32.1433ZM128.732 32.9941C128.732 33.218 128.508 33.4419 128.24 33.4419C128.016 33.4419 127.926 33.218 128.061 32.9941C128.195 32.7254 128.419 32.5463 128.553 32.5463C128.643 32.5463 128.732 32.7254 128.732 32.9941ZM133.658 32.7254C133.658 33.1284 132.314 33.3523 132.091 32.9941C131.911 32.7254 132.225 32.5463 132.717 32.5463C133.255 32.5463 133.658 32.6359 133.658 32.7254ZM113.061 37.024C113.061 37.2478 112.747 37.3374 112.389 37.2031C112.031 37.024 111.717 36.8448 111.717 36.7553C111.717 36.6657 112.031 36.5762 112.389 36.5762C112.747 36.5762 113.061 36.7553 113.061 37.024ZM108.583 37.9195C108.583 38.1434 108.225 38.3672 107.822 38.3672C107.15 38.3672 107.105 38.2777 107.688 37.9195C108.538 37.3822 108.583 37.3822 108.583 37.9195ZM103.837 40.8747C103.971 41.2329 103.926 41.412 103.658 41.2777C103.389 41.1434 103.21 40.8299 103.21 40.5613C103.21 39.9344 103.523 40.0687 103.837 40.8747ZM107.374 40.4717C107.061 40.5613 106.523 40.5613 106.255 40.4717C105.941 40.3374 106.165 40.2478 106.792 40.2478C107.419 40.2478 107.643 40.3374 107.374 40.4717ZM127.344 50.2777C128.285 50.4568 128.732 50.815 128.732 51.3523C128.732 51.9792 128.508 52.1135 127.792 51.9344C127.076 51.7553 126.897 51.8449 127.031 52.2926C127.3 53.0091 124.523 55.8299 123.538 55.8299C123.18 55.8299 122.911 56.0091 122.911 56.1882C122.911 56.815 120.314 58.0688 119.643 57.8001C119.285 57.6658 118.837 57.7553 118.658 58.024C118.523 58.2926 118.702 58.6508 119.061 58.7852C119.688 59.0091 119.688 59.1434 119.105 59.6807C118.613 60.1732 118.568 60.5762 118.882 61.2031C119.15 61.6956 119.508 62.4568 119.688 62.8598C119.911 63.3076 120.001 64.6956 119.956 65.9494C119.867 67.8747 119.956 68.2329 120.583 68.1882C120.986 68.1882 121.3 68.3673 121.255 68.6359C121.21 68.9494 121.837 69.3076 122.688 69.4419C123.494 69.621 124.255 69.9344 124.344 70.2031C124.434 70.5165 125.688 70.3374 127.792 69.8001C129.628 69.3076 131.419 68.9941 131.732 69.1285C132.091 69.2628 132.538 69.1732 132.717 68.9046C132.852 68.6359 134.419 68.3225 136.12 68.1882C138.717 68.0091 139.434 68.0986 140.374 68.815C141.628 69.7553 141.494 70.1135 139.792 70.2479C139.12 70.2927 138.583 70.6061 138.583 70.9643C138.583 71.5464 136.344 71.5016 131.867 70.9195C129.762 70.6509 124.523 73.024 125.956 73.6061C126.717 73.9195 126.628 74.6807 125.822 74.3673C125.464 74.1882 125.15 73.83 125.15 73.4718C125.15 73.1136 124.882 72.8449 124.613 72.8897C123.762 72.9344 122.15 73.6509 122.822 73.6956C123.628 73.7404 123.494 74.6359 122.643 74.6359C122.061 74.6359 121.971 74.9046 122.24 75.8449C122.598 77.3225 122.956 77.7255 123.225 76.9643C123.359 76.6956 123.807 76.427 124.3 76.427C124.747 76.427 125.15 76.2479 125.15 76.024C125.15 75.4867 126.897 75.0837 127.21 75.5762C127.344 75.8001 127.792 75.9792 128.195 75.9792C129.717 75.9792 129.27 80.4121 127.792 80.4568C127.658 80.4568 126.807 79.7852 125.867 78.9345C124.344 77.5912 124.031 77.5016 122.911 77.9046C121.165 78.5762 120.046 81.2628 120.359 84.0389C120.628 86.3225 119.867 87.621 118.3 87.621C117.897 87.621 117.538 87.9345 117.538 88.2927C117.538 88.6957 117.046 89.1882 116.464 89.5016C115.255 90.0389 113.732 89.6807 114.18 88.9643C114.986 87.6658 108.628 88.2479 107.464 89.636C107.24 89.9046 105.762 90.3972 104.24 90.7554C101.329 91.3375 100.076 91.024 100.076 89.636C100.076 88.3822 98.8219 88.5613 94.5234 90.4867C93.5831 90.8897 92.6875 91.1136 92.5084 90.9792C92.1502 90.5763 94.2547 88.9195 94.7025 89.1882C94.8816 89.3225 95.1502 89.0986 95.3293 88.7404C95.4637 88.3822 95.9114 88.0688 96.2696 88.0688C96.6726 88.0688 96.8517 87.8449 96.7174 87.621C96.5383 87.3524 96.1801 87.3076 95.9114 87.4867C95.5532 87.7106 95.5532 87.5763 95.9114 87.0837C96.2248 86.7255 96.3592 86.2777 96.1801 86.1434C96.0457 85.9643 96.1353 85.83 96.404 85.83C96.7174 85.83 96.9413 85.4718 96.986 85.024C97.0308 84.5315 97.1651 84.6658 97.3443 85.3822C97.6129 86.3673 97.9263 86.5016 99.6278 86.5016C101.285 86.5016 101.643 86.3225 101.822 85.6061C102.046 84.3076 103.21 83.636 105.135 83.5912C106.389 83.5912 106.792 83.4121 106.792 82.7852C106.792 82.1583 106.882 82.1136 107.24 82.6957C107.464 83.0539 107.732 83.233 107.822 83.1434C108.359 82.5613 109.434 79.3822 109.21 79.1583C109.031 79.024 108.807 79.1583 108.717 79.427C108.359 80.4568 107.643 80.0539 107.911 78.9792C108.135 78.1733 108.404 76.5613 108.538 75.0389C108.583 74.8598 109.031 74.5912 109.613 74.4121C110.15 74.233 110.688 74.0539 110.822 74.0091C110.956 73.9643 111.494 73.7852 112.076 73.5613C112.613 73.3822 113.061 72.9344 113.061 72.5315C113.061 72.1285 113.374 71.5912 113.732 71.3225C114.27 70.9195 114.27 70.6509 113.822 69.7553C113.285 68.6359 112.926 68.4121 110.598 67.3822C109.21 66.7553 108.717 65.7255 109.299 64.427C109.479 64.024 109.613 63.1285 109.613 62.5016C109.613 61.7404 110.016 61.0688 110.867 60.4867C111.583 60.0389 112.165 59.412 112.165 59.1882C112.165 58.7404 115.3 57.1732 116.24 57.1732C116.464 57.1732 117.404 56.4568 118.344 55.5613C119.553 54.3971 119.822 53.9046 119.374 53.6359C118.882 53.3225 118.971 52.9643 119.777 51.8896C120.359 51.1285 120.986 50.5911 121.21 50.7255C121.389 50.8598 121.568 50.7255 121.568 50.5016C121.568 49.9643 125.105 49.8299 127.344 50.2777ZM92.4636 54.5762C92.4636 55.2031 90.3144 57.1732 89.6427 57.1732C89.4189 57.1732 89.4636 56.8598 89.7771 56.5016C90.0905 56.1434 90.1801 55.8299 90.001 55.8299C89.7771 55.8299 90.0905 55.427 90.6726 54.9344C91.8368 53.9046 92.4636 53.815 92.4636 54.5762ZM84.2696 59.6807C84.1353 59.815 83.7323 59.8598 83.4189 59.7255C83.0607 59.5911 83.195 59.4568 83.6875 59.4568C84.1801 59.412 84.4487 59.5464 84.2696 59.6807ZM93.8069 87.621C93.8069 87.8001 93.4935 88.1136 93.0905 88.2479C92.7323 88.3822 92.5532 88.3375 92.6875 88.0688C92.8219 87.8001 92.7323 87.621 92.5084 87.621C92.2398 87.621 92.0159 87.4419 92.0159 87.218C92.0159 86.9942 92.4189 86.9046 92.9114 87.0389C93.4039 87.1733 93.8069 87.4419 93.8069 87.621ZM120.762 87.7106C120.449 88.024 120.225 88.0688 120.225 87.8001C120.225 87.1733 120.762 86.636 121.076 86.9494C121.165 87.0837 121.031 87.4419 120.762 87.7106ZM91.5681 88.4718C91.5681 88.2479 91.8368 88.2927 92.195 88.6061C93.1353 89.4569 91.792 90.1285 90.4039 89.4569C88.9263 88.7852 88.9711 87.9792 90.4487 88.5166C91.1651 88.7852 91.5681 88.7852 91.5681 88.4718ZM76.1203 96.5315C75.986 96.8002 75.6278 97.024 75.4039 97.024C75.18 97.024 75.2248 96.7554 75.5383 96.3972C76.1651 95.6807 76.6129 95.8151 76.1203 96.5315ZM175.747 118.024C174.897 118.472 174.046 118.785 173.867 118.651C173.643 118.561 173.509 118.74 173.509 119.099C173.509 119.457 173.956 119.905 174.538 120.039C175.389 120.308 175.434 120.397 174.807 120.755C174.404 120.979 173.912 121.696 173.777 122.367C173.464 123.487 173.374 123.532 170.822 123.308C169.389 123.218 168.001 123.308 167.777 123.532C167.509 123.8 166.971 123.487 166.434 122.77L165.494 121.561L166.703 120.263C167.374 119.546 168.538 118.92 169.255 118.785C170.016 118.696 170.956 118.472 171.449 118.293C172.613 117.8 174.897 117.263 176.195 117.218C177.18 117.173 177.135 117.263 175.747 118.024ZM125.15 150.89C125.374 150.8 125.464 151.069 125.329 151.427C125.15 151.785 124.882 152.099 124.658 152.099C124.434 152.099 124.12 152.144 123.941 152.188C123.762 152.278 123.583 151.606 123.494 150.755C123.359 149.233 123.359 149.233 124.076 150.084C124.434 150.576 124.926 150.935 125.15 150.89ZM133.658 149.86C134.24 150.218 134.24 150.308 133.568 150.308C133.165 150.308 132.673 150.084 132.538 149.86C132.18 149.278 132.762 149.278 133.658 149.86ZM130.837 151.472C130.703 151.606 130.3 151.651 129.986 151.517C129.628 151.382 129.762 151.248 130.255 151.248C130.747 151.203 131.016 151.338 130.837 151.472ZM131.732 153.084C131.598 153.442 131.464 153.308 131.464 152.815C131.419 152.323 131.553 152.054 131.688 152.233C131.822 152.367 131.867 152.77 131.732 153.084Z"></path>
    <path d="M4.5241 47.5908C4.12112 47.949 3.4047 48.3073 2.91216 48.352C2.41962 48.3968 2.01664 48.6655 2.01664 48.9789C2.01664 49.2923 1.83753 49.561 1.65843 49.561C1.43455 49.561 0.897234 49.8744 0.404696 50.2326C-0.356499 50.9043 -0.22217 50.9043 2.37485 50.7699C5.91217 50.5461 6.27038 51.5759 2.77783 52.0685C0.673353 52.3819 0.136039 52.6505 0.449473 53.1431C0.583801 53.367 0.942011 53.5908 1.16589 53.5908C1.43455 53.5908 1.5241 53.4117 1.38977 53.2326C1.07634 52.6953 4.43455 53.1879 4.79276 53.7699C5.4644 54.755 5.15097 55.3819 4.03157 55.3819C3.35992 55.3819 2.91216 55.6505 2.91216 56.0088C2.91216 56.4565 3.44948 56.5908 5.06142 56.5013C6.27038 56.4117 7.79277 56.6356 8.59874 57.0386C10.345 57.8446 14.2853 57.9789 16.1211 57.3073C18.6286 56.367 20.5988 55.7401 22.6585 55.158C25.4794 54.352 28.4346 52.4267 28.4346 51.3968C28.4346 50.9043 27.8973 50.367 27.0913 50.0087C26.3749 49.6953 25.8823 49.2923 26.0167 49.0684C26.151 48.8446 25.9719 48.6655 25.6585 48.6655C25.3003 48.6207 25.4346 48.352 25.9719 47.949C26.8226 47.2774 26.7779 47.2326 25.2107 47.5013C24.2704 47.6804 23.4644 47.5908 23.2853 47.3222C22.8376 46.6058 21.2704 46.7849 21.2704 47.5461C21.2704 47.949 20.8674 48.2177 20.2853 48.2177C19.7032 48.2177 18.0017 48.2177 16.4793 48.2177C14.3301 48.2177 13.6137 48.3968 13.2555 49.0237C12.8525 49.7401 12.8077 49.7401 12.539 48.9789C12.0913 47.9043 10.9719 48.0386 10.9719 49.158C10.9719 49.7849 10.748 50.0087 10.3002 49.8744C9.94202 49.6953 9.53904 49.7849 9.40471 50.0087C8.91217 50.7699 8.37486 50.5013 8.59874 49.6058C8.73307 49.0237 8.33008 48.5311 7.1659 47.8147C5.24052 46.6953 5.37485 46.6953 4.5241 47.5908Z"></path>
    <path d="M43.0764 61.5167C42.5839 61.9645 42.7182 63.0839 43.166 62.7705C43.3899 62.6361 43.7481 62.7705 43.9272 63.0391C44.0615 63.3078 43.972 63.7108 43.7033 63.8899C43.3003 64.1138 43.3899 64.3824 43.9272 64.8302C44.6436 65.3675 44.6884 65.3675 44.4197 64.6958C44.2854 64.2481 44.3302 63.8003 44.5988 63.666C44.8227 63.4869 44.9123 63.2182 44.7779 62.9944C44.6436 62.7705 44.7332 62.5018 45.0018 62.3227C45.2257 62.1884 45.4496 61.7854 45.4496 61.5167C45.4496 61.1585 45.3153 61.1585 45.0466 61.6063C44.7779 62.0093 44.5541 62.0541 44.375 61.6958C44.0167 61.1585 43.5242 61.069 43.0764 61.5167Z"></path>
    <path d="M52.6583 72.5324C52.3896 72.8011 52.1657 73.2936 52.1657 73.6071C52.1657 74.2787 50.2851 74.816 48.8075 74.5474C48.0015 74.3683 47.509 74.5921 47.0165 75.3981C45.8523 77.1444 44.5538 78.2638 44.0612 77.9951C43.8373 77.816 43.3448 77.9504 42.9418 78.219C42.4493 78.6668 42.4045 78.9354 42.8523 79.4727C43.1657 79.831 43.3896 80.2339 43.3448 80.3235C43.2553 80.3683 43.2105 80.5922 43.2105 80.7713C43.2105 80.9951 43.3896 80.8608 43.6135 80.5026C43.8373 80.1444 44.106 80.0996 44.2851 80.3683C44.4194 80.6369 43.8821 81.0847 42.9866 81.3533C42.1359 81.622 41.4194 82.0698 41.4194 82.2936C41.4194 82.5623 41.7776 82.5175 42.315 82.2489C43.0314 81.8907 43.2105 81.8907 43.2105 82.428C43.2105 82.7862 43.5687 83.1444 44.0165 83.2787C44.5985 83.4131 44.509 83.5474 43.5687 83.9504C42.8523 84.219 42.315 84.6668 42.315 84.8907C42.315 85.6071 43.2105 85.9205 43.8373 85.428C44.4642 84.9354 45.0015 85.2041 45.0015 86.0101C45.0015 86.2787 44.7776 86.1892 44.5538 85.831C44.1956 85.2489 44.106 85.2937 44.106 85.9653C44.106 86.6369 44.3299 86.7265 45.4493 86.5026C46.5687 86.2787 46.7478 86.3235 46.5239 86.9056C46.3896 87.3086 46.0762 87.622 45.8523 87.622C45.5836 87.622 45.6284 88.0698 45.9418 88.5623C46.2105 89.0996 46.5687 89.3683 46.7478 89.1444C47.1956 88.5175 50.3747 88.5175 50.106 89.1444C50.0165 89.4131 50.2851 90.0847 50.7329 90.5325C51.5389 91.4728 51.5389 92.9952 50.6433 93.5325C50.3747 93.7116 49.3896 93.7564 48.4941 93.622C47.4642 93.5325 46.7926 93.622 46.7926 93.8907C46.7926 94.1593 47.0165 94.2489 47.2403 94.1146C48.0463 93.622 47.7329 94.2937 46.703 95.234L45.6732 96.219L46.7926 96.0399C48.7627 95.7713 48.4493 97.2489 46.3448 98.0996C43.8373 99.0847 44.0165 100.294 46.7478 100.428C48.8971 100.518 50.509 101.503 48.5388 101.503C47.4642 101.503 45.4493 102.935 45.4493 103.697C45.4493 103.876 44.7329 104.413 43.8821 104.861C43.0314 105.353 42.4493 105.801 42.5836 105.935C43.0762 106.428 44.2851 106.338 45.315 105.667C45.9418 105.264 46.8374 105.085 47.5985 105.219C48.5388 105.398 49.0762 105.219 49.6135 104.637C50.1956 103.921 50.8224 103.831 53.4642 103.965C55.2105 104.055 56.6433 103.965 56.6433 103.741C56.6433 103.562 57.4941 103.428 58.5687 103.473C60.5389 103.607 64.2553 102.309 64.2553 101.547C64.2553 101.279 63.9419 101.055 63.5836 101.055C62.7329 101.055 62.6881 99.8907 63.5389 99.5773C64.7926 99.0847 65.6881 97.1593 65.1956 96.1743C64.5687 95.0549 62.2404 94.5175 61.2105 95.3235C60.5389 95.8161 60.4941 95.8161 61.0314 95.1892C61.4792 94.6071 61.4792 94.2041 61.0314 93.1743C60.7627 92.4578 60.4941 91.6519 60.4941 91.428C60.4493 90.8459 59.1956 89.6369 58.0314 88.9653C57.5389 88.6966 56.9568 87.9354 56.8224 87.2638C56.3747 85.5623 55.2105 84.0847 54.315 84.0399C53.2403 84.0399 53.2851 82.6071 54.4045 81.8011C54.8971 81.4429 55.3001 80.9056 55.3001 80.6369C55.3001 80.3235 55.6135 79.7414 56.0165 79.3832C57.0911 78.2638 56.3299 77.7713 53.509 77.7713C52.0762 77.7713 50.7329 77.5474 50.5986 77.3235C50.4642 77.0548 50.5538 76.8757 50.8224 76.8757C51.1359 76.8757 51.8523 76.4727 52.4792 75.9802C53.106 75.4877 53.4642 75.0847 53.2851 75.0847C53.0612 75.0847 53.3299 74.6369 53.8224 74.0548C54.315 73.5175 54.8523 72.8459 54.9866 72.5772C55.3896 71.9056 53.2851 71.9056 52.6583 72.5324ZM44.106 78.6668C44.106 78.8907 43.8821 79.1145 43.6135 79.1145C43.3896 79.1145 43.3 78.8907 43.4344 78.6668C43.5687 78.3981 43.7926 78.219 43.9269 78.219C44.0165 78.219 44.106 78.3981 44.106 78.6668Z"></path>
    <path d="M37.9725 86.6362C36.8979 86.9944 34.7934 89.4123 35.5994 89.4123C35.8681 89.4123 35.9576 89.6362 35.8233 89.86C35.6889 90.1287 34.6591 90.2182 33.5397 90.1287C31.9725 89.9496 31.48 90.0839 31.1218 90.7556C30.8083 91.3377 30.8531 91.6511 31.2561 91.7854C31.6591 91.9645 31.6591 92.0988 31.2561 92.5914C30.4054 93.4421 30.5397 93.7556 31.7934 94.069C33.3606 94.472 33.1815 95.2332 31.1218 96.7556C29.4651 98.0093 28.7039 99.7108 29.8233 99.7108C30.0471 99.7108 30.1367 99.9347 29.9576 100.248C29.7337 100.606 29.868 100.651 30.3606 100.472C30.8083 100.338 31.1218 100.382 31.1218 100.651C31.1218 101.412 34.5695 100.651 36.8531 99.4421C37.9725 98.86 39.4949 98.3675 40.3009 98.3675C41.5546 98.3675 41.7785 98.1884 42.2263 96.6212C42.5397 95.6809 42.7636 94.1138 42.7636 93.1287C42.7636 91.6511 42.9427 91.2481 43.883 90.8451C45.1815 90.263 45.3158 89.1436 44.1964 87.8003C43.3009 86.7705 39.7636 86.0988 37.9725 86.6362Z"></path>
    <path d="M87.3604 132.935C87.1813 133.337 86.5545 133.785 85.9724 133.92C85.3903 134.054 84.853 134.546 84.7634 134.994C84.4948 136.158 85.1664 138.263 86.0171 138.89C86.7336 139.382 86.6888 139.517 85.5694 140.233C84.6291 140.86 84.2709 140.949 84.0022 140.502C83.7336 140.099 83.5545 140.188 83.4201 140.77C83.2858 141.263 83.4649 142.024 83.7783 142.472C84.1365 142.92 84.3156 143.726 84.1813 144.218C83.5097 147.755 83.5097 148.024 84.4948 148.561C85.3007 148.964 85.5694 148.92 86.0171 148.293C86.3306 147.845 86.9127 147.621 87.2709 147.755C88.1216 148.114 88.3903 147.263 88.5246 143.457C88.6589 140.905 88.5246 140.278 87.853 139.785C87.1365 139.248 87.0918 138.979 87.5395 137.457C88.1216 135.576 87.9873 131.636 87.3604 132.935Z"></path>
    <path d="M133.076 160.92C132.897 161.054 132.763 161.547 132.763 161.95C132.763 162.532 133.3 162.801 134.643 163.024C135.673 163.204 136.658 163.517 136.793 163.786C136.972 164.054 138.002 164.054 139.479 163.875C141.763 163.517 142.613 162.935 141.315 162.487C140.912 162.353 140.822 162.487 141.046 162.89C141.315 163.338 141.136 163.293 140.554 162.801C140.106 162.398 138.718 162.039 137.464 161.995C136.255 161.905 135.136 161.681 135.091 161.457C135.002 161.233 134.733 161.189 134.464 161.323C134.196 161.502 133.882 161.368 133.703 161.099C133.524 160.83 133.255 160.741 133.076 160.92Z"></path>
</svg>