<svg class="h-[50px]" viewBox="0 0 198 235" xmlns="http://www.w3.org/2000/svg">
    <path d="M108.465 1.36197C107.273 2.05192 105.956 2.86732 105.517 3.18093C105.015 3.62 104.639 3.62 104.388 3.24366C103.949 2.5537 101.565 2.36553 101.565 2.99276C101.565 4.05906 104.325 7.00704 105.329 7.00704C107.085 7.00704 108.465 7.69699 108.465 8.57511C108.465 10.3941 110.598 11.2722 114.298 11.0213C116.933 10.8331 117.873 10.8959 117.56 11.3977C117.309 11.8367 116.494 11.9622 115.678 11.774C114.8 11.5231 113.922 11.774 113.483 12.3385C113.044 12.903 112.166 13.1539 111.601 12.9657C110.347 12.5894 108.465 13.1539 108.465 13.9693C108.465 14.2829 109.155 14.8474 110.033 15.161C110.911 15.4746 111.601 16.1646 111.601 16.7291C111.601 17.2309 111.915 17.67 112.291 17.67C112.605 17.67 112.73 17.9836 112.542 18.2972C111.977 19.238 112.856 21.4961 113.546 21.057C113.922 20.8688 114.612 21.057 115.114 21.4961C115.615 21.8724 116.243 22.0606 116.431 21.8097C116.682 21.5588 116.556 21.1824 116.18 20.9316C115.741 20.6179 115.615 20.1162 115.992 19.6144C116.431 18.8617 116.87 18.9244 118.814 19.8025C120.069 20.4298 121.637 21.3706 122.264 21.8724C122.891 22.4369 124.271 23.0014 125.275 23.0641C127.721 23.3777 137.004 27.8311 136.941 28.6465C136.878 28.9601 137.255 29.8382 137.694 30.5282C138.196 31.2181 138.572 32.2217 138.572 32.8489C138.572 33.4762 138.76 33.9779 139.074 33.9779C139.325 33.9779 139.513 34.9815 139.576 36.1732C139.576 37.8668 139.387 38.3685 138.509 38.3685C137.318 38.3685 134.181 42.3828 134.181 43.8882C134.181 44.7663 139.826 44.7663 140.516 43.8255C140.705 43.5746 141.834 43.1982 143.025 43.0728C145.032 42.8219 145.409 43.0101 147.541 45.8326C149.862 48.8433 149.925 48.906 153.312 48.906C155.256 48.8433 156.95 49.0315 157.201 49.2196C157.389 49.4705 158.079 49.3451 158.706 49.0315C159.647 48.5297 159.772 48.5924 159.584 49.6587C159.459 50.3486 159.145 51.2268 158.957 51.5404C158.769 51.9167 158.832 52.1676 159.145 52.1676C159.898 52.1676 160.525 50.6623 160.525 48.9687C160.525 48.3415 160.839 47.777 161.152 47.777C161.529 47.777 161.78 47.3379 161.78 46.7734C161.78 46.2717 162.03 45.958 162.344 46.1462C162.658 46.3344 162.909 45.8326 162.909 45.0172C162.909 42.5083 167.487 39.2467 168.93 40.752C169.181 41.0029 170.435 41.5047 171.69 41.8183C173.07 42.1947 174.261 43.0101 174.638 43.8882C174.951 44.6409 175.453 45.2681 175.704 45.2681C176.018 45.2681 176.206 45.7699 176.206 46.4598C176.206 47.0871 176.645 47.9652 177.147 48.4042C177.648 48.8433 177.899 49.4078 177.711 49.7214C177.523 50.035 177.837 50.2859 178.338 50.2859C178.903 50.2859 179.467 50.9759 179.718 51.7913C179.969 52.9203 180.785 53.4848 182.98 54.112C184.611 54.5511 186.806 54.8647 187.81 54.802C188.876 54.802 190.319 55.1783 191.071 55.6801C192.702 56.6837 197.281 56.8718 197.845 55.931C198.096 55.5547 198.033 55.3038 197.72 55.3665C197.469 55.4292 196.779 55.4292 196.277 55.3665C195.525 55.3038 195.525 55.1783 196.152 54.802C196.716 54.4256 196.152 53.9866 194.396 53.4221C192.137 52.6694 190.946 51.5404 192.514 51.5404C193.956 51.5404 193.016 50.3486 191.448 50.1605C190.005 50.035 189.754 49.7214 189.879 48.467C190.068 47.0871 189.942 47.0243 188.249 47.3379C186.555 47.7143 186.367 47.5261 185.552 45.0799C185.05 43.6373 183.607 41.442 182.353 40.1875C181.036 38.9331 179.969 37.3023 179.969 36.6123C179.969 35.4833 180.346 35.2324 182.165 35.2324C183.858 35.2324 184.36 34.9815 184.36 34.1034C184.36 32.7862 182.29 30.6536 180.847 30.4654C180.283 30.4027 179.405 29.9009 178.84 29.3992C178.213 28.8974 177.021 28.3329 176.143 28.082C174.763 27.7684 174.575 27.4547 174.826 26.1376C174.951 25.2594 175.328 24.5695 175.641 24.5695C175.955 24.5695 176.206 24.1304 176.206 23.5659C176.206 22.6878 176.018 22.6878 175.265 23.315C174.45 24.005 174.073 23.8795 173.07 22.8132C172.38 22.0606 171.815 21.1824 171.815 20.8061C171.815 20.4298 171.564 20.2416 171.251 20.4925C170.937 20.6807 170.247 20.367 169.745 19.8653C169.181 19.3635 168.24 18.9244 167.55 18.9244C166.86 18.9244 165.982 18.4854 165.543 17.9836C165.167 17.4818 163.222 16.6664 161.278 16.1019C159.271 15.5374 156.574 14.4084 155.194 13.6557C153.814 12.8403 152.308 12.3385 151.932 12.4639C151.493 12.6521 151.117 12.4639 151.117 12.1503C151.117 11.8367 149.925 11.3977 148.545 11.1468C147.102 10.8959 144.029 9.70413 141.708 8.44967C137.757 6.37981 137.318 6.25436 135.561 7.06976C134.495 7.50882 133.491 8.38695 133.366 9.01418C133.178 9.70413 132.425 10.1432 131.422 10.1432C130.543 10.1432 129.791 10.3941 129.791 10.645C129.791 10.9586 129.289 11.774 128.724 12.5267C128.097 13.2166 127.156 14.4084 126.655 15.0983C126.153 15.851 125.149 16.4155 124.397 16.4155C123.33 16.4155 122.891 15.851 122.264 13.4048C121.825 11.774 121.323 10.8331 121.198 11.2722C120.759 12.4012 119.755 11.5231 119.755 9.95502C119.755 8.82601 119.881 8.70056 120.445 9.51596C121.01 10.2686 121.072 10.2059 120.696 9.20234C120.445 8.51239 120.194 6.88159 120.069 5.56441C119.755 2.67915 119.253 1.80103 118.187 2.24009C117.748 2.36553 116.368 1.9892 115.114 1.29924C112.354 -0.143386 111.287 -0.143386 108.465 1.36197Z"></path>
    <path d="M155.005 57.3111C154.691 57.7501 154.19 58.8164 153.939 59.6945C153.688 60.5726 152.935 62.2034 152.183 63.3325C151.493 64.5242 150.865 66.5941 150.74 67.974C150.614 69.3539 150.238 70.8592 149.862 71.2983C149.548 71.7373 149.109 73.8699 148.921 76.0652C148.545 80.8322 146.412 87.7317 144.781 89.5507C144.091 90.2406 143.589 91.1188 143.589 91.4951C143.589 92.7496 141.645 94.1922 140.077 94.1922C139.073 94.1922 137.631 93.2513 136.063 91.6833C134.683 90.3034 133.052 89.1743 132.425 89.1743C131.798 89.1743 130.857 88.4844 130.418 87.6063C129.979 86.7281 129.226 86.0382 128.787 86.0382C128.285 86.0382 127.783 85.3482 127.532 84.4701C127.093 82.7766 126.027 82.3375 126.027 83.8429C126.027 84.4701 124.898 83.7174 122.954 81.8985L119.88 78.9505L121.135 77.6333C121.825 76.8806 122.64 75.6889 122.954 74.8735C123.267 74.0581 123.832 73.619 124.208 73.8072C124.584 74.0581 124.71 74.6226 124.522 75.0617C124.208 75.8771 126.466 76.8179 127.407 76.2534C127.909 75.9398 127.658 72.9918 127.031 72.3646C126.842 72.1764 126.278 72.4273 125.713 72.8664C124.898 73.5563 124.773 73.4309 124.773 71.9882C124.773 71.1101 125.086 70.4202 125.463 70.4829C125.839 70.6083 126.842 69.4166 127.721 67.8485C128.975 65.5278 129.038 64.9633 128.348 64.3988C127.846 64.0851 127.595 63.3952 127.721 62.9561C127.909 62.5798 127.721 62.2034 127.344 62.2034C126.968 62.2034 126.654 62.4543 126.654 62.768C126.654 63.0816 126.09 63.4579 125.337 63.6461C124.396 63.897 124.145 63.7715 124.396 63.0816C124.835 61.8898 124.396 61.9526 122.264 63.5834C120.821 64.6496 120.194 64.7751 119.629 64.2106C119.19 63.7715 118.249 63.4579 117.497 63.4579C116.681 63.4579 115.678 63.0816 115.239 62.6425C114.8 62.1407 114.047 61.8898 113.608 62.078C113.232 62.2034 112.855 61.7644 112.855 61.1372C112.855 60.1963 112.73 60.1336 112.228 60.949C111.663 61.7644 111.475 61.7644 110.911 60.7608C110.534 60.1963 110.033 59.82 109.656 60.0081C109.343 60.259 109.092 59.82 109.092 59.13C109.092 58.001 108.904 57.9383 107.524 58.4401C106.646 58.7537 105.956 58.8164 105.956 58.6282C105.956 58.3773 105.642 58.5028 105.203 58.9418C104.325 59.82 105.642 61.6389 106.834 61.1999C108.026 60.7608 108.653 62.768 107.712 63.897C107.147 64.6496 106.081 64.7751 103.635 64.5242C101.753 64.336 100.311 64.4615 100.311 64.7751C100.311 65.0887 99.997 65.3396 99.5579 65.3396C98.4289 65.3396 95.3555 69.103 95.6691 70.0438C95.8573 70.5456 95.4182 71.1728 94.7282 71.6119C93.9756 71.9882 93.4111 72.6155 93.4111 72.9918C93.4111 73.4309 92.7838 74.3717 92.0311 75.1871C90.9021 76.3788 90.7767 76.8179 91.4666 77.1942C92.9093 78.1351 91.5921 79.0759 89.2713 78.7623C88.0169 78.6369 86.5742 78.825 86.1352 79.2014C85.3825 79.8286 85.3198 79.7659 85.6334 78.8878C85.8843 78.2605 85.6334 77.7588 85.0062 77.5079C84.4417 77.3197 84.0026 76.7552 84.0026 76.3161C84.0026 75.8143 83.1245 74.8108 82.0582 74.0581C80.2392 72.8036 79.9883 72.7409 79.2984 73.6818C78.8593 74.2463 78.4202 74.6226 78.2948 74.4344C77.6048 73.8072 73.9669 73.4936 73.9669 74.1208C73.9669 74.4344 74.2805 74.748 74.5941 74.748C74.9705 74.748 75.2214 75.3753 75.2214 76.128C75.1587 77.5079 75.1587 77.5706 74.2805 76.3788C73.4024 75.2498 73.3397 75.2498 73.3397 76.2534C73.3397 77.0688 73.0261 77.257 72.0852 76.9434C71.0189 76.6297 70.8308 76.8179 70.8308 78.2605C70.8308 79.2014 70.6426 79.8286 70.4544 79.6404C69.7645 78.9505 66.8165 82.4003 66.691 84.0311C66.6283 84.9719 66.5029 85.9755 66.5029 86.2891C66.4401 86.54 65.4366 86.6027 64.1821 86.3518C62.7395 86.1009 62.0495 86.1636 62.3004 86.6027C62.5513 86.9163 62.4259 87.3554 62.0495 87.6063C61.6105 87.8572 61.6105 88.3589 62.0495 89.2371C62.4886 89.927 62.4886 90.4288 62.1123 90.4288C61.7986 90.4288 61.4223 90.9306 61.2341 91.4951C61.1087 92.1223 60.7324 91.4324 60.4815 89.927C60.2306 88.4844 59.7915 87.2927 59.6033 87.2927C59.3524 87.2927 58.098 88.3589 56.8435 89.6761C55.0246 91.4951 54.5228 92.5614 54.5228 94.2549C54.5228 95.9484 53.9583 97.0774 52.5156 98.7082C51.3866 99.9627 49.944 101.656 49.3168 102.597C47.7487 104.855 44.738 106.298 41.2255 106.423C39.4692 106.486 37.7757 106.925 37.0858 107.552C36.4585 108.117 35.2041 108.618 34.326 108.618C33.4478 108.618 32.3815 109.058 31.9425 109.559C31.378 110.249 30.3744 110.437 28.7436 110.249C27.3637 110.124 26.172 110.249 25.9211 110.563C25.7329 110.877 25.1684 111.127 24.6666 111.127C24.1648 111.127 22.8476 111.943 21.7186 112.946C20.6523 114.013 18.7079 115.267 17.4535 115.832C16.199 116.459 14.8191 117.651 14.3173 118.591L13.5646 120.222L13.1883 118.341C12.8747 116.835 12.6865 116.647 12.1847 117.4C10.6167 119.783 9.98942 121.477 9.98942 123.17C9.98942 124.174 9.29947 126.055 8.42135 127.31C6.53966 130.07 6.53966 130.634 7.98229 135.401C9.42492 140.105 9.1113 142.489 7.4805 138.976L6.35149 136.53L5.72426 138.098L5.09703 139.666L4.40707 138.098C3.77984 136.718 3.71712 136.907 4.03074 139.29C4.21891 140.795 4.84614 142.865 5.34792 143.869C5.91243 144.935 6.41421 147.193 6.53966 149.012C6.6651 150.768 6.97872 153.026 7.16689 154.093C7.41778 155.096 7.60595 156.79 7.54323 157.856C7.54323 158.86 7.41778 163.125 7.35506 167.202C7.22961 172.533 6.916 174.791 6.41421 174.917C5.97515 175.105 5.59881 175.858 5.59881 176.61C5.59881 178.492 3.90529 180.75 2.39994 180.75C1.64726 180.75 0.957308 181.377 0.58097 182.381C-0.297153 184.639 -0.23443 185.141 1.14548 185.141C1.83543 185.141 2.52538 185.642 2.71355 186.27C3.21534 187.775 5.22247 188.716 8.86041 189.155C11.6829 189.468 15.0073 188.653 15.0073 187.649C15.0073 187.148 17.0144 186.332 18.8334 186.081C19.3979 186.019 20.4014 185.391 21.0914 184.701C22.6595 183.133 27.1755 182.506 34.5769 182.883L39.971 183.196L42.7308 180.374C44.1735 178.868 45.9297 177.614 46.4942 177.614C47.0587 177.614 47.686 177.363 47.8741 177.049C48.0623 176.736 49.0031 176.297 49.944 176.046C50.9476 175.858 52.202 175.23 52.7665 174.666C53.5192 173.976 54.4601 173.85 55.9027 174.101C57.9725 174.478 66.6283 172.533 68.0082 171.341C68.3846 171.028 71.2698 170.589 74.4687 170.338C79.9256 169.899 80.3647 169.962 81.8073 171.341C82.6227 172.094 83.689 172.596 84.128 172.471C84.5671 172.282 86.0097 172.847 87.2642 173.662C88.5814 174.415 89.9613 175.105 90.4003 175.105C90.9649 175.105 90.9649 175.293 90.4003 175.858C89.3341 176.924 89.4595 178.868 90.5258 178.868C91.9684 178.868 92.6584 184.576 91.3412 185.391C90.4631 185.956 90.5885 186.27 92.3448 187.838C94.3519 189.594 94.3519 189.594 94.5401 188.214C94.791 186.646 98.8052 182.632 100.122 182.632C100.624 182.632 102.318 181.377 103.886 179.809C105.454 178.241 106.897 177.112 107.147 177.363C107.336 177.614 107.147 177.927 106.771 178.053C106.332 178.241 105.956 178.868 105.956 179.495C105.956 180.123 105.203 181.064 104.325 181.691C103.447 182.255 102.318 183.698 101.816 184.89C101.314 186.081 100.248 187.336 99.4952 187.587C98.6798 187.9 97.6762 188.653 97.1744 189.28C96.2963 190.284 96.359 190.347 97.8017 189.97C98.6798 189.719 99.8715 189.531 100.499 189.531C101.126 189.531 102.192 188.528 102.882 187.336C103.635 186.144 104.45 185.141 104.764 185.141C106.018 185.141 105.203 188.277 103.447 190.033C101.377 192.103 101.565 192.793 104.074 192.291C105.517 191.977 105.893 192.228 106.583 193.985C107.336 195.803 107.336 196.243 106.207 198.25C105.14 200.194 105.015 200.821 105.642 202.64C106.081 203.832 107.022 205.024 107.775 205.275C108.465 205.588 109.092 206.027 109.092 206.341C109.092 206.655 110.221 206.905 111.663 206.905C113.106 206.905 114.423 207.219 114.674 207.533C114.862 207.909 115.678 208.474 116.43 208.913C117.622 209.54 118.312 209.414 120.821 208.097C122.452 207.219 123.957 206.717 124.145 206.968C124.334 207.219 125.525 207.972 126.842 208.599C128.097 209.289 129.163 210.23 129.163 210.732C129.163 211.484 129.414 211.484 130.48 210.481C134.118 207.219 140.767 203.957 144.029 203.957C148.043 203.957 151.681 201.95 151.743 199.755C151.743 199.316 152.433 198.25 153.312 197.309C154.19 196.368 154.88 195.302 154.88 194.863C154.88 194.486 156.134 192.981 157.702 191.538C159.27 190.096 161.905 187.273 163.473 185.266C167.299 180.499 170.372 177.551 173.257 176.046C174.512 175.356 175.578 174.478 175.578 174.101C175.578 173.725 176.331 172.596 177.334 171.53C180.157 168.456 181.223 166.951 181.223 166.198C181.223 165.759 181.851 164.442 182.666 163.25C186.241 157.793 188.248 154.093 188.499 152.274C188.687 151.207 189.252 149.263 189.754 147.883C190.757 145.311 190.444 143.806 189.44 146.315C189.126 147.13 188.813 147.507 188.813 147.193C188.75 146.503 189.879 142.05 190.444 140.607C190.632 140.105 190.757 139.415 190.694 139.165C190.632 138.851 191.196 137.722 191.886 136.53C192.576 135.401 193.141 133.959 193.078 133.331C193.078 132.453 192.953 132.391 192.702 133.08C191.761 135.652 189.377 136.091 189.377 133.645C189.377 133.018 189.126 132.453 188.813 132.453C188.499 132.453 188.123 131.575 187.935 130.572C187.684 129.505 187.119 128.69 186.617 128.69C186.116 128.69 185.614 128.063 185.488 127.247C185.363 126.495 184.924 125.93 184.485 126.055C183.795 126.181 183.732 125.428 184.109 122.668C184.485 119.281 184.485 119.093 183.23 119.407C182.415 119.658 181.788 119.407 181.6 118.842C181.286 118.027 181.035 118.027 180.22 118.717C179.404 119.407 179.279 119.156 179.404 116.961C179.53 115.393 179.153 113.762 178.526 112.758C177.209 110.814 177.209 110.5 178.401 110.5C179.028 110.5 179.279 109.998 179.091 109.058C178.965 108.305 178.526 107.74 178.087 107.866C177.021 108.117 173.132 105.42 172.693 104.102C172.505 103.475 172.003 103.162 171.438 103.412C170.999 103.601 170.56 103.412 170.56 102.973C170.56 102.597 170.309 102.409 169.996 102.597C169.055 103.224 167.863 101.154 168.177 99.5236C168.365 98.6455 168.24 97.7674 167.926 97.5792C167.675 97.3911 167.612 96.952 167.801 96.5757C168.553 95.3839 168.051 90.2406 167.111 89.1743C166.17 88.1708 166.044 81.4594 166.985 80.0168C167.236 79.5777 166.734 78.825 165.731 78.1978C164.225 77.1942 164.163 77.0061 165.103 76.3161C165.856 75.7516 165.982 75.438 165.417 74.8735C164.978 74.4344 164.225 74.1208 163.724 74.1835C163.034 74.1835 163.096 74.3717 163.974 74.748C165.229 75.3126 165.229 75.3126 163.974 75.3753C163.285 75.5007 162.532 75.5007 162.281 75.438C161.967 75.438 161.779 75.6262 161.779 76.0025C161.779 76.3161 161.34 76.6297 160.776 76.6297C160.023 76.6297 159.897 76.0025 160.023 73.4936C160.148 71.1728 160.462 70.4202 161.026 70.671C161.654 70.9219 161.842 70.3574 161.779 68.6012C161.716 67.3467 161.716 66.155 161.779 65.9668C162.218 64.6496 162.218 63.4579 161.716 63.4579C161.089 63.4579 160.901 64.7124 161.089 67.7858C161.215 69.0403 161.026 69.7302 160.65 69.4793C160.274 69.2911 160.086 68.6012 160.211 67.974C160.274 67.4095 160.086 66.5941 159.772 66.2177C159.145 65.3396 159.333 64.0224 160.211 63.2697C160.587 62.9561 160.399 62.8307 159.772 63.0816C158.706 63.3952 157.075 61.5135 157.765 60.7608C157.953 60.5726 157.953 59.5691 157.702 58.5028C157.263 56.4957 156.134 55.9939 155.005 57.3111ZM6.85327 141.548C6.85327 142.05 6.72783 142.489 6.60238 142.489C6.47693 142.489 6.22604 142.05 5.97515 141.548C5.78698 141.046 5.91243 140.607 6.22604 140.607C6.60238 140.607 6.85327 141.046 6.85327 141.548ZM126.027 205.526C125.588 206.09 125.086 206.341 124.961 206.215C124.522 205.776 125.4 204.585 126.152 204.585C126.529 204.585 126.529 204.961 126.027 205.526Z"></path>
    <path d="M116.995 219.513C116.117 220.83 115.239 223.088 115.113 224.531C114.925 225.911 114.486 227.667 114.11 228.357C113.733 229.11 113.482 230.803 113.608 232.12C113.733 234.316 113.921 234.629 115.552 234.943C117.497 235.319 121.636 233.751 121.636 232.685C121.636 232.246 121.95 232.246 122.452 232.685C123.079 233.187 123.706 232.936 124.961 231.556C125.902 230.615 126.654 229.361 126.654 228.796C126.654 228.232 127.156 227.792 127.846 227.792C128.599 227.792 129.289 227.228 129.539 226.35C129.79 225.597 130.606 223.966 131.421 222.712C133.366 219.639 132.55 218.949 128.348 220.14C122.828 221.646 122.64 221.646 121.323 220.454C120.633 219.764 119.817 219.137 119.441 218.949C119.127 218.823 118.877 218.321 119.002 217.882C119.316 216.565 118.751 217.067 116.995 219.513Z"></path>
</svg>