<svg width="49" height="48" viewBox="0 0 49 48" fill="none" xmlns="http://www.w3.org/2000/svg">
<path d="M7.32041 9.276V27.1176C7.32041 36.8304 15.0124 44.7024 24.4996 44.7024C33.9868 44.7024 41.6788 36.8304 41.6788 27.1176V9.2856L24.3964 3.4704L7.32041 9.276ZM24.3916 0L44.8996 6.8976V27.1176C44.8996 38.6496 35.7652 48 24.4996 48C13.234 48 4.09961 38.6496 4.09961 27.1176V6.8976L24.3916 0ZM34.9972 15.564C34.8406 15.4201 34.6565 15.3092 34.4561 15.238C34.2556 15.1667 34.0429 15.1366 33.8306 15.1494C33.6182 15.1622 33.4106 15.2176 33.2202 15.3123C33.0297 15.407 32.8603 15.5392 32.722 15.7008L22.3636 27.6264L15.6724 20.2224C15.5309 20.0639 15.359 19.9355 15.1669 19.8448C14.9748 19.7541 14.7664 19.703 14.5541 19.6945C14.3419 19.686 14.1301 19.7203 13.9313 19.7953C13.7325 19.8703 13.5509 19.9845 13.3972 20.1312C13.0836 20.4326 12.8991 20.8439 12.8826 21.2785C12.866 21.7131 13.0187 22.1372 13.3084 22.4616L21.2044 31.1976C21.3548 31.3667 21.5397 31.5016 21.7466 31.5932C21.9535 31.6848 22.1776 31.731 22.4039 31.7288C22.6301 31.7265 22.8533 31.6758 23.0583 31.58C23.2633 31.4842 23.4454 31.3457 23.5924 31.1736L35.1292 17.892C35.4128 17.5623 35.5575 17.1355 35.5329 16.7014C35.5082 16.2672 35.3162 15.8595 34.9972 15.564Z" fill="url(#paint0_linear_87_241)"/>
<defs>
<linearGradient id="paint0_linear_87_241" x1="4.09961" y1="24" x2="44.8996" y2="24" gradientUnits="userSpaceOnUse">
<stop stop-color="#00A8A5"/>
<stop offset="1" stop-color="#045A72"/>
</linearGradient>
</defs>
</svg>
