<svg width="48" height="48" viewBox="0 0 48 48" fill="none" xmlns="http://www.w3.org/2000/svg">
<path d="M22.307 7.6375C22.4102 7.6375 22.5391 7.68906 22.6508 7.84375C22.1523 7.13047 23.2094 7.43984 23.2695 6.76094C23.8711 6.31406 23.6562 6.02187 23.8281 6.00469L24.0172 5.85C23.6477 5.9875 23.5187 6.01328 23.4156 6.01328H23.2437C23.1148 6.01328 22.9 6.03906 22.393 6.19375C21.2328 6.27969 20.3992 7.53438 20.0039 7.56875C19.6 7.78359 19.6172 7.82656 19.7117 7.82656C19.7375 7.82656 19.7719 7.81797 19.8062 7.81797C19.8406 7.81797 19.8664 7.80937 19.8922 7.80937C19.9867 7.80937 19.9609 7.85234 19.4109 8.11016C19.5398 8.14453 18.4484 8.62578 18.4398 9.38203C18.4055 9.67422 18.5258 9.87187 18.7234 9.87187C18.8953 9.87187 19.1102 9.74297 19.3422 9.41641C20.1156 8.52266 21.7484 8.43672 22.4531 7.89531C22.0148 7.86094 22.1008 7.6375 22.307 7.6375ZM18.3797 7.93828C18.3023 7.93828 18.4055 7.84375 18.5172 7.74922C18.6375 7.65469 18.775 7.56016 18.775 7.56016L18.7664 7.56875C19.2305 7.38828 18.9469 7.34531 19.1961 7.225H19.1789C19.1273 7.225 19.2219 7.15625 19.3078 7.07891C19.3937 7.01016 19.4711 6.93281 19.3937 6.93281C19.3508 6.93281 19.2391 6.95859 19.05 7.03594C19.1102 6.95 19.3422 6.88984 19.6688 6.70937C19.1961 6.86406 18.8266 6.95859 18.7836 6.95859C18.7492 6.95859 18.9469 6.88984 19.5398 6.70937C19.5656 6.70937 19.5914 6.71797 19.6086 6.71797C19.6687 6.71797 19.6945 6.70078 19.6859 6.68359C19.6773 6.66641 19.643 6.65781 19.5828 6.65781C18.732 6.72656 18.0961 7.25937 18.2852 7.32812C18.3969 7.29375 18.4742 7.27656 18.5258 7.27656C18.6375 7.27656 18.5859 7.37109 18.3625 7.50859C18.4656 7.74922 16.6438 8.36797 16.4375 8.59141C16.5406 8.53125 16.6094 8.51406 16.6437 8.51406C16.7812 8.51406 16.6008 8.78047 16.4203 8.90938C16.532 9.0125 16.618 9.04688 16.6867 9.04688C16.8672 9.04688 16.9445 8.79766 17.0992 8.72031C17.1336 8.78906 17.168 8.82344 17.2109 8.82344C17.357 8.82344 17.5375 8.4625 17.6836 8.27344C17.7266 8.31641 17.7781 8.35078 17.8469 8.35078C17.9844 8.35078 18.1906 8.23906 18.5172 7.92109C18.4484 7.92969 18.3969 7.93828 18.3797 7.93828ZM16.4031 9.51953C16.0938 9.70859 15.9305 9.78594 15.8617 9.78594C15.7328 9.78594 15.9047 9.54531 16.0594 9.29609C16.2141 9.05547 16.3516 8.81484 16.1539 8.81484C16.0594 8.81484 15.8875 8.86641 15.6125 9.00391C14.8648 9.50234 13.6016 10.8773 13.043 10.8773H12.9914C13.8938 10.2156 13.6273 8.91797 14.8906 8.58281C16.1367 7.86953 16.9875 8.09297 18.0961 7.27656C17.7695 7.43984 17.2883 7.62031 17.1766 7.62031C17.1078 7.62031 17.2109 7.53438 17.6578 7.31953C17.6148 7.32813 17.5805 7.33672 17.5547 7.33672C17.2539 7.33672 19.5313 6.52031 19.643 6.50313C18.7063 6.63203 17.1937 7.41406 16.9875 7.41406C16.9617 7.41406 16.9617 7.40547 16.9617 7.38828C16.9961 7.3625 16.9961 7.34531 16.9617 7.34531C16.85 7.34531 16.3859 7.5 15.9133 7.65469C15.4492 7.80938 14.9766 7.97266 14.8734 7.97266C14.8391 7.97266 14.8391 7.95547 14.8906 7.92109C10.8344 10.2242 7.44844 14.1086 6.39141 18.7148C6.82969 19.7203 6.52891 21.6367 7.25078 22.1953C8.07578 22.8914 6.54609 24.9109 6.95 26.157C7.3625 28.4086 9.14141 29.9469 9.33047 32.25C9.65703 33.8312 10.8516 35.7648 11.35 36.7703C11.7281 37.1484 12.768 38.2398 12.9484 38.2398C13.0172 38.2398 12.9742 38.0766 12.6992 37.6383C12.5273 37.1484 11.5305 35.868 12.0117 35.868C12.0375 35.868 12.0633 35.868 12.0977 35.8766C11.5047 35.275 13.4125 35.4383 12.0805 34.6219C11.9258 34.4328 11.8914 34.3727 11.9258 34.3727C11.9688 34.3727 12.0891 34.4414 12.2266 34.5102C12.3727 34.5789 12.5445 34.6477 12.682 34.6477C12.8969 34.6477 13.043 34.5016 12.957 33.9688C12.9914 33.9859 13.0258 33.9859 13.0516 33.9859C13.275 33.9859 13.1977 33.5477 13.2148 33.1094C13.232 32.6711 13.3438 32.2328 13.9453 32.2328C14.0141 32.2328 14.0914 32.2414 14.1688 32.25C15.5609 31.4937 14.3492 29.4055 15.9477 28.6406C15.8875 26.9047 13.5586 26.8188 12.682 26.1141C12.5359 26.2 12.3984 26.2258 12.2609 26.2258C12.1063 26.2258 11.9687 26.1914 11.8484 26.1484C11.7281 26.1141 11.6164 26.0711 11.5391 26.0711C11.5219 26.0711 11.5047 26.0711 11.4875 26.0797C12.9828 25.6844 11.8914 23.6047 10.6539 23.6047H10.568C10.4734 22.7023 10.0094 23.0461 9.95781 22.2984C9.88047 22.3414 9.80313 22.3586 9.72578 22.3586C9.51953 22.3586 9.33047 22.2125 9.16719 22.075C9.00391 21.9289 8.86641 21.7914 8.74609 21.7914C8.65156 21.7914 8.56562 21.8859 8.48828 22.1609C8.57422 21.7398 8.54844 21.6023 8.4625 21.6023C8.37656 21.6023 8.22188 21.7484 8.05 21.8945C7.88672 22.0406 7.69766 22.1867 7.55156 22.1867H7.50859C6.50312 21.4734 7.51719 20.2102 6.98438 19.2391C7.32812 18.8695 7.46562 18.2422 7.31094 18.2422C7.23359 18.2422 7.07891 18.3969 6.83828 18.818C6.49453 17.9414 7.40547 15.9563 8.17891 15.8445C8.20469 15.8445 8.22187 15.8359 8.24766 15.8359C8.38516 15.8359 8.52266 15.9047 8.64297 16.0508C8.71172 16.4547 8.53984 17.3055 8.60859 17.3055C8.64297 17.3055 8.71172 17.1336 8.88359 16.6867C9.10703 15.6641 10.6711 14.925 10.8344 14.2977C10.843 14.3063 10.843 14.3062 10.8516 14.3062C11.032 14.3062 12.1922 13.2836 12.6992 13.1719C12.8969 12.9742 13.0344 12.9055 13.1375 12.9055C13.2492 12.9055 13.3094 12.9914 13.3523 13.0688C13.3953 13.1547 13.4297 13.232 13.4727 13.232C13.507 13.232 13.55 13.1805 13.6273 13.0344C13.3609 12.5102 14.0484 12.0117 13.8594 12.0117C13.7906 12.0117 13.5844 12.0805 13.1633 12.2523C13.0945 12.2867 13.0602 12.2953 13.043 12.2953C12.9914 12.2953 13.1977 12.1578 13.4984 12.0203C13.7992 11.8828 14.1773 11.7453 14.4953 11.7453C14.65 11.7453 14.7875 11.7797 14.8906 11.8656C16.2227 11.5477 15.4922 11.1094 15.5609 11.1094H15.5781C15.9563 10.8859 15.8445 10.0437 16.4031 9.51953ZM10.4477 13.0344C10.4305 13.0344 10.5078 12.9227 10.7656 12.6047C11.2984 12.2094 11.7281 11.943 11.2383 11.6852C11.4531 11.5906 11.6594 11.4789 11.857 11.3586C11.8484 11.7797 11.4961 12.8023 11.307 12.8023C11.2641 12.8023 11.2211 12.7422 11.2039 12.6133C11.3156 12.4156 11.3242 12.3383 11.2812 12.3383C11.2125 12.3383 11.0148 12.5102 10.8258 12.6906C10.6367 12.8539 10.4648 13.0344 10.4477 13.0344ZM10.9375 13.2664C10.7055 13.2664 10.7484 13.1203 11.4617 12.9742C11.7711 12.9312 11.5305 12.9484 11.9 12.8625C11.5391 13.1547 11.1352 13.2664 10.9375 13.2664ZM24.3008 12.3984C24.4039 12.3812 24.4812 12.3813 24.5414 12.3813C24.7906 12.3813 24.6789 12.4844 24.5328 12.5875C24.3867 12.6906 24.2063 12.7937 24.3094 12.7937C24.3695 12.7937 24.5328 12.7594 24.868 12.6648C26.5609 12.5445 24.2062 11.1094 24.5844 10.6281L24.4813 10.5938C23.7852 11.4789 24.9453 11.4961 24.3008 12.3984ZM23.5961 12.4328C23.7164 12.4328 23.8711 12.2953 24.0344 11.9086C24.2578 11.6422 24.1633 11.6078 23.9227 11.4789C23.2609 11.6508 23.3211 12.4328 23.5961 12.4328ZM29.5258 15.157C29.5 15.157 29.4828 15.1656 29.4656 15.1742C29.5344 15.1914 29.6031 15.2086 29.6719 15.2086C29.6031 15.1742 29.5602 15.157 29.5258 15.157ZM41.0672 17.2969C41.2133 17.6148 41.2906 17.7437 41.2992 17.7437C41.3594 17.7437 40.2164 14.9594 39.7438 14.4609C37.2773 10.4047 33.2211 7.30234 28.5977 6.14219H28.5891C28.4687 6.14219 28.6063 6.20234 28.7695 6.2625C28.9328 6.32266 29.1305 6.38281 29.1305 6.38281C29.1305 6.38281 29.0016 6.33984 28.6063 6.22813C28.168 6.09922 27.7211 6.00469 27.2656 5.97031C27.1883 5.99609 29.1477 6.76953 30.4625 7.17344C30.0242 7.03594 29.5687 6.91563 29.457 6.91563C29.3797 6.91563 29.457 6.96719 29.775 7.10469C29.3883 6.99297 29.225 6.94141 29.2078 6.94141C29.182 6.94141 29.7234 7.12188 30.2305 7.30234C30.7461 7.48281 31.2359 7.66328 31.0984 7.66328C31.0641 7.66328 30.9695 7.64609 30.8234 7.62031C31.2617 7.86094 31.4164 7.95547 31.3906 7.95547C31.3477 7.95547 30.8063 7.69766 30.2477 7.43984C29.6977 7.18203 29.1391 6.92422 29.0617 6.92422C29.0187 6.92422 29.1305 7.01016 29.5086 7.23359C30.0242 7.45703 30.5398 7.68047 30.3937 7.68047C30.325 7.68047 30.1273 7.6375 29.7406 7.52578C30.6 7.96406 29.1305 7.79219 29.6289 8.38516C29.3539 8.12734 29.2422 8.04141 29.2164 8.04141C29.1906 8.04141 29.2594 8.14453 29.3281 8.24766C29.3969 8.35078 29.4484 8.45391 29.3883 8.45391H29.3711C29.9727 9.10703 28.95 8.52266 29.6805 9.10703C29.1305 8.85781 28.1938 8.44531 28.6148 8.44531C28.718 8.44531 28.9156 8.47109 29.225 8.53984C28.6664 7.88672 27.0852 7.86094 27.0508 7.78359C26.6555 7.80938 26.6469 8.11016 26.7156 8.66016C26.707 9.52813 25.8562 9.54531 25.968 10.0437C25.968 10.0352 25.9766 10.0352 25.9766 10.0352C25.9938 10.0352 26.0023 10.207 26.0539 10.3875C26.1141 10.5594 26.2172 10.7398 26.4406 10.7398C26.5609 10.7398 26.7156 10.6883 26.9047 10.5594C27.1711 11.0406 27.4117 11.2125 27.6008 11.2125C27.8844 11.2125 28.0563 10.8258 28.0391 10.4734C27.7297 10.3016 27.3258 8.875 27.7727 8.875C27.8414 8.875 27.9273 8.90938 28.0391 8.98672C27.343 10.6969 30.7891 9.55391 28.8383 10.3359C29.2766 10.9117 28.5633 10.8859 28.7695 11.582C28.4344 11.6766 28.0648 11.7625 27.7383 11.7625C27.257 11.7625 26.8875 11.5563 26.9305 10.8344C26.3289 11.1523 27.532 12.2266 26.3375 12.2266H26.2687C25.693 13.2836 23.5359 12.9227 25.2289 14.0398C25.3234 14.5297 25.0141 14.6156 24.6188 14.6156C24.5156 14.6156 24.4039 14.607 24.2922 14.5984C24.1805 14.5898 24.0688 14.5898 23.9656 14.5898C23.5188 14.5898 23.2008 14.7016 23.4758 15.3977C23.2781 16.1195 23.7422 16.4375 24.3094 16.4375C24.9969 16.4375 25.8391 15.9906 25.8992 15.2516C26.2688 14.693 26.7414 14.4609 27.2313 14.4609C28.0047 14.4609 28.8211 15.0453 29.3539 15.7672C29.3969 15.8359 29.4312 15.8617 29.4484 15.8617C29.4914 15.8617 29.4484 15.6898 29.4313 15.518C29.4141 15.3805 29.4141 15.243 29.4656 15.2C28.7008 14.9852 28.1164 14.057 28.3742 14.057C28.4602 14.057 28.6406 14.1602 28.9328 14.4352H28.9758C29.457 14.4352 29.8352 14.8133 30.1273 15.1914C30.4281 15.5695 30.6516 15.9477 30.8492 15.9477C30.9266 15.9477 31.0039 15.8789 31.0727 15.7242C31.0383 15.6727 30.9523 15.5266 30.9094 15.3805C30.8578 15.2 30.8578 15.0195 31.0898 15.0195C31.1844 15.0195 31.3133 15.0539 31.4938 15.1227C32.0781 14.968 31.1242 13.4469 31.8977 13.4469C31.975 13.4469 32.0695 13.4641 32.1898 13.4984C32.1812 13.7648 32.3016 13.8594 32.4133 13.8594C32.6367 13.8594 32.8602 13.5414 32.3187 13.4469C32.525 13.2492 32.6453 13.1719 32.7313 13.1719C33.032 13.1719 32.7914 14.1688 33.8312 14.1688C34.1836 15.0023 30.7719 14.2289 31.8633 15.8273C32.1125 16.0078 32.4219 16.0422 32.7227 16.0422C32.8172 16.0422 32.9031 16.0422 32.9891 16.0336C33.075 16.0336 33.1609 16.025 33.2383 16.025C33.7711 16.025 34.1492 16.1539 33.9172 17.2539C33.6336 17.4602 33.3156 17.5289 32.9891 17.5289C32.6969 17.5289 32.4047 17.4773 32.1211 17.4258C31.8375 17.3742 31.5625 17.3227 31.3133 17.3227C30.9266 17.3227 30.6172 17.4516 30.4281 17.8984C29.4227 17.4859 28.0992 17.4688 28.2281 16.2227C26.475 16.4719 24.6445 16.343 23.3555 17.4172C23.2781 18.9898 20.5797 19.4969 21.2328 21.2844C20.4508 22.9344 22.1781 25.2461 23.9398 25.2461C24 25.2461 24.0688 25.2461 24.1289 25.2375C25.0914 25.2289 26.0625 24.7992 26.9133 24.7992C27.3516 24.7992 27.7469 24.9109 28.0906 25.2547C28.168 25.2461 28.2367 25.2375 28.2969 25.2375C29.6117 25.2375 27.8758 27.3258 29.4484 27.6781C30.875 29.1562 28.5719 30.6773 29.6977 32.0953C29.818 33.2039 30.368 34.132 30.368 35.2148C30.5141 35.232 30.6516 35.2406 30.7977 35.2406C32.6109 35.2406 33.7453 33.6594 34.8109 32.4648C34.4844 30.6773 37.3461 30.325 36.3664 28.3227C35.9109 26.1312 38.5234 24.8336 38.3773 22.6422C38.4031 22.3328 38.3172 22.2383 38.1883 22.2383C38.0594 22.2383 37.8703 22.3328 37.6898 22.4188C37.5008 22.5133 37.2945 22.5992 37.1312 22.5992C36.9164 22.5992 36.7531 22.4531 36.7359 21.9719C35.4727 20.7945 34.8969 19.1961 33.7195 17.8984C35.2492 18.6375 36.1172 20.3047 36.8219 21.8172C36.882 21.8344 36.9422 21.843 37.0109 21.843C38.257 21.843 39.993 18.8609 38.1023 18.1391C37.9992 18.4227 37.8617 18.5258 37.6984 18.5258C37.4148 18.5258 37.0883 18.182 36.8563 17.8469C36.6242 17.5031 36.5039 17.1594 36.6328 17.1594C36.7188 17.1594 36.9078 17.2969 37.2344 17.6578C37.6039 17.8898 37.9648 17.95 38.343 17.95C38.7125 17.95 39.0906 17.8898 39.4859 17.8555C39.9844 18.0531 40.1992 18.6891 40.3539 18.6891C40.3797 18.6891 40.4141 18.6633 40.4398 18.6031C40.8352 19.5484 41.2906 21.2328 41.7031 21.6883C41.4883 20.2445 41.4367 18.7148 41.0672 17.2969ZM36.2719 15.3117C35.3008 15.0625 34.9828 13.8594 34.218 13.1633C34.2094 12.9742 34.493 13.0086 34.4242 12.6906C35.4555 13.0086 35.1203 13.3266 35.0258 13.3867C35.4039 14.0141 36.4609 14.4437 36.2719 15.3117ZM22.9258 8.77188C21.9891 9.04688 21.8602 8.74609 22.0234 9.32187C22.0922 9.37344 22.2211 9.39062 22.35 9.39062C22.8055 9.39922 23.4242 9.13281 22.9258 8.77188ZM36.6844 32.4477C37.9133 31.4078 38.068 30.1703 38.1281 28.9156C37.5781 29.9898 35.9453 31.1758 36.6844 32.4477ZM31.0898 15.6898C31.0812 15.6984 31.0812 15.6984 31.0812 15.707C31.0898 15.7242 31.0984 15.7242 31.0984 15.7242C31.0984 15.7242 31.0984 15.7156 31.0898 15.6898ZM24 2C11.8484 2 2 11.8484 2 24C2 36.1516 11.8484 46 24 46C36.1516 46 46 36.1516 46 24C46 11.8484 36.1516 2 24 2ZM24 44.307C12.7852 44.307 3.69297 35.2148 3.69297 24C3.69297 12.7852 12.7852 3.69297 24 3.69297C35.2148 3.69297 44.307 12.7852 44.307 24C44.307 35.2148 35.2148 44.307 24 44.307Z" fill="url(#paint0_linear_87_223)"/>
<defs>
<linearGradient id="paint0_linear_87_223" x1="2" y1="24" x2="46" y2="24" gradientUnits="userSpaceOnUse">
<stop stop-color="#00A8A5"/>
<stop offset="1" stop-color="#045A72"/>
</linearGradient>
</defs>
</svg>
