<svg width="48" height="48" viewBox="0 0 48 48" fill="none" xmlns="http://www.w3.org/2000/svg">
<path fill-rule="evenodd" clip-rule="evenodd" d="M33.5 12C32.68 12 32 11.32 32 10.5V8.052C30.452 8 28.634 8 26.5 8H22.5C20.364 8 18.548 8 17 8.052V10.5C17 11.32 16.32 12 15.5 12C14.68 12 14 11.32 14 10.5V8.268C12.11 8.514 10.812 8.988 9.9 9.9C8.696 11.104 8.256 12.98 8.094 16H40.906C40.744 12.98 40.302 11.104 39.1 9.9C38.188 8.988 36.89 8.514 35 8.268V10.5C35 11.32 34.32 12 33.5 12ZM40.988 19C40.9987 20.0573 41.0027 21.224 41 22.5V24.5C41 25.32 41.68 26 42.5 26C43.32 26 44 25.32 44 24.5V22.5C44 14.54 44 10.56 41.22 7.78C39.676 6.236 37.76 5.55 35 5.244V3.5C35 2.68 34.32 2 33.5 2C32.68 2 32 2.68 32 3.5V5.05C30.408 5 28.59 5 26.5 5H22.5C20.408 5 18.592 5 17 5.05V3.5C17 2.68 16.32 2 15.5 2C14.68 2 14 2.68 14 3.5V5.244C11.24 5.55 9.324 6.236 7.78 7.78C5 10.56 5 14.56 5 22.5V26.5C5 34.46 5 38.44 7.78 41.22C10.56 44 14.54 44 22.5 44C23.32 44 24 43.32 24 42.5C24 41.68 23.32 41 22.5 41C15.38 41 11.8 41 9.9 39.1C8 37.2 8 33.62 8 26.5V22.5C7.99867 21.2253 8.002 20.0587 8.01 19H40.988ZM34.5 45C29.26 45 25 40.74 25 35.5C25 30.26 29.26 26 34.5 26C39.74 26 44 30.26 44 35.5C44 40.74 39.74 45 34.5 45ZM34.5 29C30.92 29 28 31.92 28 35.5C28 39.08 30.92 42 34.5 42C38.08 42 41 39.08 41 35.5C41 31.92 38.08 29 34.5 29ZM35.44 38.56C35.74 38.86 36.12 39 36.5 39C36.88 39 37.26 38.86 37.56 38.56C38.14 37.98 38.14 37.02 37.56 36.44L36 34.88V31.5C36 30.68 35.32 30 34.5 30C33.68 30 33 30.68 33 31.5V35.5C33 35.9 33.16 36.28 33.44 36.56L35.44 38.56Z" fill="url(#paint0_linear_87_213)"/>
<defs>
<linearGradient id="paint0_linear_87_213" x1="5" y1="23.5" x2="44" y2="23.5" gradientUnits="userSpaceOnUse">
<stop stop-color="#00A8A5"/>
<stop offset="1" stop-color="#045A72"/>
</linearGradient>
</defs>
</svg>
