<svg width="48" height="48" viewBox="0 0 48 48" fill="none" xmlns="http://www.w3.org/2000/svg">
<path d="M41.5476 36C43.0476 36 44.2376 35.058 45.3076 33.74C47.4996 31.04 43.9016 28.88 42.5296 27.826C41.1356 26.752 39.5776 26.142 37.9996 26M35.9996 22C37.3256 22 38.5974 21.4732 39.5351 20.5355C40.4728 19.5979 40.9996 18.3261 40.9996 17C40.9996 15.6739 40.4728 14.4021 39.5351 13.4645C38.5974 12.5268 37.3256 12 35.9996 12M6.45156 36C4.95156 36 3.76156 35.058 2.69156 33.74C0.499562 31.04 4.09756 28.88 5.46956 27.826C6.86356 26.752 8.41956 26.14 9.99956 26M10.9996 22C9.67348 22 8.40171 21.4732 7.46403 20.5355C6.52635 19.5979 5.99956 18.3261 5.99956 17C5.99956 15.6739 6.52635 14.4021 7.46403 13.4645C8.40171 12.5268 9.67348 12 10.9996 12M16.1676 30.222C14.1236 31.486 8.76556 34.066 12.0276 37.294C13.6256 38.872 15.3996 40 17.6336 40H30.3696C32.6036 40 34.3776 38.872 35.9716 37.294C39.2356 34.066 33.8776 31.486 31.8336 30.222C29.4792 28.77 26.7676 28.0011 24.0016 28.0011C21.2355 28.0011 18.5239 28.77 16.1696 30.222M30.9996 15C30.9996 15.9193 30.8185 16.8295 30.4667 17.6788C30.1149 18.5281 29.5993 19.2997 28.9493 19.9497C28.2993 20.5998 27.5276 21.1154 26.6783 21.4672C25.8291 21.8189 24.9188 22 23.9996 22C23.0803 22 22.1701 21.8189 21.3208 21.4672C20.4715 21.1154 19.6998 20.5998 19.0498 19.9497C18.3998 19.2997 17.8842 18.5281 17.5324 17.6788C17.1806 16.8295 16.9996 15.9193 16.9996 15C16.9996 13.1435 17.7371 11.363 19.0498 10.0503C20.3626 8.7375 22.143 8 23.9996 8C25.8561 8 27.6366 8.7375 28.9493 10.0503C30.2621 11.363 30.9996 13.1435 30.9996 15Z" stroke="url(#paint0_linear_87_232)" stroke-width="3" stroke-linecap="round" stroke-linejoin="round"/>
<defs>
<linearGradient id="paint0_linear_87_232" x1="2" y1="24" x2="45.9991" y2="24" gradientUnits="userSpaceOnUse">
<stop stop-color="#00A8A5"/>
<stop offset="1" stop-color="#045A72"/>
</linearGradient>
</defs>
</svg>
